# Blender v2.79 (sub 0) OBJ File: 'LODs_biskupin_tower.blend'
# www.blender.org
mtllib LOD1_biskupin_tower_stick.mtl
o LOD1_stick_beams_and_sticks_Circle.005
v 0.075112 1.856511 -0.080098
v 0.113272 1.861471 -0.076695
v 0.062871 1.859783 -0.104454
v 0.093866 1.860375 -0.136804
v 0.117686 1.853868 -0.129335
v 0.134654 1.858966 -0.097775
v 0.106718 -1.892711 -0.049716
v 0.132701 -1.881289 -0.029412
v 0.091177 -1.888009 -0.074774
v 0.121284 -1.893430 -0.101667
v 0.146999 -1.888413 -0.088445
v 0.155427 -1.888438 -0.056364
v -0.002223 -0.081132 0.132051
v 0.007133 -0.088495 0.076215
v -0.048186 -0.085336 0.095491
v -0.034295 -0.089323 0.120198
v -0.017634 -0.087751 0.065869
v 0.019831 -0.085959 0.108035
v -0.009763 0.439755 -0.005723
v 0.006660 0.443652 0.058904
v 0.014586 0.436084 0.003962
v -0.040477 0.440653 0.024698
v -0.027623 0.436703 0.049163
v 0.028566 0.439991 0.035644
v -0.071573 0.309500 0.000879
v -0.041868 0.313651 0.078898
v -0.047109 0.305901 0.010719
v -0.102278 0.310375 0.031171
v -0.088742 0.306677 0.055790
v -0.019927 0.309954 0.055474
v -0.049686 0.298883 0.017641
v -0.041760 0.336312 0.055857
v -0.082262 0.289851 0.011998
v -0.090950 0.314092 0.038396
v -0.159845 0.493942 0.007222
v -0.141342 0.473890 -0.029189
v -0.173560 0.464223 -0.032174
v -0.186470 0.481599 -0.005193
vt 1.950393 0.202819
vt 2.017730 0.202701
vt 2.017730 1.167190
vt 1.950393 1.167309
vt 1.748388 0.202377
vt 1.815724 0.202509
vt 1.815724 1.166999
vt 1.748388 1.166867
vt 1.883058 0.202688
vt 1.883057 1.167178
vt 2.085066 0.202542
vt 2.152403 0.202423
vt 2.152403 1.166913
vt 2.085066 1.167032
vt 2.085066 -0.761948
vt 2.152403 -0.762067
vt 2.152403 -0.060164
vt 2.085066 -0.059731
vt 1.748388 -0.762113
vt 1.815724 -0.761981
vt 1.815724 -0.060026
vt 1.748388 -0.060210
vt 0.496892 0.632487
vt 0.407260 0.632487
vt 0.362395 0.593661
vt 0.407258 0.554809
vt 0.496983 0.554836
vt 0.541755 0.593687
vt 3.002504 -1.130120
vt 2.948565 -1.145687
vt 2.948594 -1.176827
vt 3.002528 -1.192368
vt 3.056395 -1.176801
vt 3.056401 -1.145693
vt 1.950394 -0.761670
vt 2.017730 -0.761789
vt 2.017730 -0.059841
vt 1.950393 -0.059412
vt 1.815724 -0.010261
vt 1.748388 -0.010458
vt 1.883058 -0.060197
vt 1.883058 -0.761802
vt 2.017730 -0.010085
vt 1.950393 -0.009595
vt 2.152403 -0.010413
vt 2.085066 -0.009933
vt 1.883058 -0.010522
vt 0.218575 0.907330
vt 0.533920 0.908059
vt 0.533920 1.049212
vt 0.218575 1.048484
vt 0.060901 0.907021
vt 0.060900 1.048175
vt 0.691596 0.907780
vt 0.691595 1.048933
vt 0.783175 0.624364
vt 0.794810 0.665213
vt 0.676973 0.665213
vt 0.693684 0.622290
vt 1.006944 0.907129
vt 1.006944 1.048282
vn 0.7295 0.0484 -0.6823
vn 0.9783 0.0757 0.1931
vn 0.9801 0.0579 0.1898
vn 0.7605 0.1184 -0.6384
vn -0.6757 -0.0559 0.7351
vn -0.9878 -0.1297 -0.0865
vn -0.9565 -0.0477 -0.2878
vn -0.6736 -0.1189 0.7295
vn -0.1784 -0.0682 -0.9816
vn -0.2861 0.0666 -0.9559
vn 0.1894 0.0518 0.9805
vn 0.1802 -0.0766 0.9806
vn 0.3371 0.0629 0.9394
vn -0.5899 0.1169 0.7990
vn -0.5927 0.2432 0.7678
vn 0.3036 0.0386 0.9520
vn -0.9755 0.0512 -0.2139
vn -0.9582 0.2501 -0.1387
vn 0.0294 0.9993 -0.0247
vn 0.0524 -0.9954 0.0803
vn 0.6472 -0.1179 -0.7532
vn 0.9822 -0.0558 0.1794
vn 0.9698 -0.1912 0.1514
vn 0.6688 -0.2318 -0.7064
vn -0.9803 0.1350 -0.1440
vn -0.6961 0.1677 0.6981
vn -0.1652 -0.0428 -0.9853
vn -0.2537 -0.0707 -0.9647
vn 0.9807 -0.1139 0.1591
vn 0.6128 -0.1724 -0.7712
vn 0.1173 0.1303 0.9845
vn -0.2915 -0.0377 -0.9558
vn 0.6744 0.1934 -0.7126
vn 0.1596 0.3463 0.9244
vn 0.7096 0.5599 0.4278
vn 0.6086 0.1889 -0.7706
vn -0.5893 -0.5792 -0.5632
vn -0.2638 -0.2722 -0.9254
vn -0.7955 -0.4166 0.4400
vn -0.6414 -0.2560 0.7232
vn -0.0309 0.9126 -0.4078
vn -0.1508 0.7974 -0.5844
vn -0.1781 0.8154 -0.5508
vn -0.1556 0.8547 -0.4952
usemtl beams_and_sticks
s 1
f 14/1/1 18/2/2 12/3/3 11/4/4
f 16/5/5 15/6/6 9/7/7 7/8/8
f 15/6/6 17/9/9 10/10/10 9/7/7
f 13/11/11 16/12/5 7/13/8 8/14/12
f 2/15/13 1/16/14 23/17/15 20/18/16
f 1/19/14 3/20/17 22/21/18 23/22/15
f 1/23/19 2/24/19 6/25/19 5/26/19 4/27/19 3/28/19
f 8/29/20 7/30/20 9/31/20 10/32/20 11/33/20 12/34/20
f 12/3/3 18/2/2 13/11/11 8/14/12
f 10/10/10 17/9/9 14/1/1 11/4/4
f 5/35/21 6/36/22 24/37/23 21/38/24
f 28/39/25 29/40/26 23/22/15 22/21/18
f 19/41/27 4/42/28 5/35/21 21/38/24
f 24/37/23 6/36/22 2/15/13 20/18/16
f 30/43/29 18/2/2 14/1/1 27/44/30
f 30/43/29 27/44/30 21/38/24 24/37/23
f 29/45/26 26/46/31 20/18/16 23/17/15
f 26/46/31 30/43/29 24/37/23 20/18/16
f 25/47/32 28/39/25 22/21/18 19/41/27
f 3/20/17 4/42/28 19/41/27 22/21/18
f 28/39/25 15/6/6 16/5/5 29/40/26
f 25/47/32 17/9/9 15/6/6 28/39/25
f 29/45/26 16/12/5 13/11/11 26/46/31
f 18/2/2 30/43/29 26/46/31 13/11/11
f 17/9/9 25/47/32 27/44/30 14/1/1
f 27/44/30 25/47/32 19/41/27 21/38/24
f 36/48/33 35/49/34 32/50/35 31/51/36
f 37/52/37 36/48/33 31/51/36 33/53/38
f 35/49/34 38/54/39 34/55/40 32/50/35
f 38/56/41 35/57/42 36/58/43 37/59/44
f 34/55/40 38/54/39 37/60/37 33/61/38
