# Blender v2.79 (sub 0) OBJ File: 'LODs_biskupin_tower.blend'
# www.blender.org
mtllib LOD1_biskupin_tower_log.mtl
o LOD1_log_beams_and_sticks_Circle.002
v -0.114158 0.064170 -0.190033
v -0.098774 0.293564 -0.178448
v -0.104684 0.068517 0.155764
v -0.097061 0.294644 0.170164
v 0.183181 0.070316 -0.007305
v 0.193879 0.289442 -0.013313
v -0.172725 0.082902 -0.008371
v -0.189257 0.285472 -0.020281
v 0.094108 0.302139 0.152739
v 0.102638 0.078072 0.164984
v 0.096462 0.303382 -0.182739
v 0.125601 0.070431 -0.185270
v -0.118623 -1.197262 -0.172464
v -0.087262 -1.407976 -0.178596
v -0.097583 -1.200296 0.159026
v -0.103924 -1.421378 0.162348
v 0.175822 -1.205952 -0.002698
v 0.196264 -1.408417 -0.000797
v -0.190007 -1.194943 -0.013133
v -0.187654 -1.415767 -0.008743
v 0.094387 -1.419973 0.162646
v 0.096737 -1.201462 0.163243
v 0.096297 -1.412858 -0.182061
v 0.103444 -1.201496 -0.171825
v -0.001866 2.002538 -0.015397
v -0.087630 0.129628 -0.157757
v -0.092651 0.240473 -0.149000
v -0.082285 0.124769 0.132828
v -0.087023 0.238995 0.130438
v 0.162298 0.137731 0.000679
v 0.170634 0.241093 -0.012066
v -0.166920 0.142225 -0.010801
v -0.156626 0.234022 -0.004099
v 0.077599 0.228089 0.128134
v 0.073970 0.121244 0.118658
v 0.085508 0.245402 -0.145279
v 0.073518 0.125280 -0.138031
v -0.093544 -1.270953 -0.147468
v -0.091950 -1.361049 -0.158599
v -0.085317 -1.263876 0.116673
v -0.081569 -1.352620 0.130011
v 0.167348 -1.267064 -0.003936
v 0.158573 -1.355749 -0.012430
v -0.158072 -1.268789 -0.012233
v -0.158385 -1.359841 0.000212
v 0.078418 -1.353640 0.129576
v 0.076502 -1.258429 0.129386
v 0.078086 -1.353306 -0.150167
v 0.082537 -1.264774 -0.145183
v 0.104030 1.783894 0.151506
v 0.090357 1.783943 -0.169106
v -0.100607 1.792185 -0.171137
v -0.090325 1.779555 0.160938
v 0.195899 1.778942 -0.008244
v -0.184603 1.777331 -0.009554
v -0.100010 -1.871433 -0.178605
v -0.077862 -1.911587 -0.140821
v -0.143515 -1.912451 -0.016515
v -0.186286 -1.876537 -0.016374
v -0.071185 -1.912508 0.125003
v -0.094985 -1.873472 0.162749
v 0.075432 -1.914487 0.125878
v 0.098285 -1.875662 0.163844
v 0.142655 -1.916927 -0.004743
v 0.185801 -1.881899 -0.004514
v 0.072419 -1.914305 -0.141418
v 0.095569 -1.876150 -0.179568
v -0.166716 -0.284557 -0.045835
v 0.162049 -0.280972 -0.041689
v 0.141617 -0.287851 0.072684
v -0.146563 -0.286728 0.070185
v -0.182945 -0.801570 -0.067016
v 0.170706 -0.801933 -0.067241
v 0.148332 -0.857732 0.059845
v -0.151742 -0.858231 0.060099
v 0.159289 -0.412529 0.065747
v -0.153519 -0.406333 0.066195
v -0.171565 -0.857226 -0.039352
v 0.161787 -0.856297 -0.041036
v 0.154231 -0.750879 0.060923
v -0.160973 -0.753000 0.062886
v 0.143273 -0.803486 0.087674
v -0.142995 -0.804268 0.088248
v 0.137100 -0.349661 0.093960
v -0.136795 -0.348575 0.098355
v -0.176992 -0.748424 -0.037441
v 0.165528 -0.749960 -0.038938
v -0.170995 -0.406463 -0.048294
v 0.173227 -0.403658 -0.051004
v -0.173851 -0.345729 -0.077739
v 0.169356 -0.343427 -0.077081
v 0.064412 1.901733 0.089016
v -0.057622 1.899008 0.094938
v 0.122095 1.898624 -0.011290
v -0.064078 1.906939 -0.113568
v 0.055826 1.901763 -0.112294
v -0.116818 1.897612 -0.012112
v -0.096953 -0.801762 0.156718
v 0.095934 -0.804605 0.162426
v -0.107663 -0.797485 -0.174076
v -0.106814 -0.355188 -0.180912
v 0.098677 -0.797466 -0.171339
v 0.102592 -0.355354 -0.174719
v 0.099147 -0.350178 0.163624
v -0.097220 -0.348696 0.154663
v 0.179163 -0.259391 0.009302
v 0.182188 -0.883970 0.007054
v -0.191785 -0.883787 0.004576
v -0.182919 -0.259684 0.005436
v 0.185259 -0.437985 0.010561
v -0.184312 -0.441248 0.013222
v -0.188957 -0.717205 0.011538
v 0.177889 -0.717119 0.007740
v 0.182580 -0.578950 0.014462
v -0.183967 -0.575720 0.015128
v 0.094562 -0.577248 0.161528
v -0.098652 -0.575391 0.156483
v 0.109541 -0.576347 -0.175933
v -0.117887 -0.576099 -0.180742
vt 0.021560 1.319576
vt 0.199134 1.318881
vt 0.209714 1.377991
vt 0.019674 1.382680
vt 0.337463 0.577765
vt 0.152443 0.577765
vt 0.104889 0.399909
vt 0.246247 0.399909
vt 0.227072 0.886700
vt 0.260194 0.835967
vt 0.366553 0.825116
vt 0.300309 0.926581
vt 0.047260 0.858721
vt 0.121454 0.898687
vt 0.089072 0.950555
vt -0.059318 0.870624
vt 0.153836 0.846818
vt 0.188688 0.795121
vt 0.056723 2.085982
vt -0.134566 2.085228
vt -0.150680 1.409571
vt 0.030380 1.418498
vt -0.451704 0.399909
vt -0.507795 0.577765
vt -0.681380 0.577765
vt -0.631149 0.399909
vt -0.620669 0.875239
vt -0.647161 0.847323
vt -0.516719 0.693835
vt -0.538329 0.877712
vt -0.174969 0.399909
vt -0.179315 0.577765
vt -0.336966 0.577765
vt -0.303648 0.399909
vt -0.005972 0.577765
vt -0.040724 0.399909
vt 0.359894 1.329076
vt 0.205503 1.285026
vt 0.367958 1.303664
vt -0.326503 1.415361
vt -0.328461 1.376569
vt -0.151328 1.383113
vt -0.492307 1.413858
vt -0.498548 1.383212
vt -0.327876 1.321862
vt -0.499270 1.321936
vt -0.513777 1.293031
vt -0.327144 1.286708
vt 0.359853 0.678669
vt 0.190919 0.686825
vt 0.182295 0.654515
vt 0.333318 0.654515
vt 0.005867 1.278933
vt -0.160845 1.326921
vt -0.152572 1.292904
vt -0.678988 1.398979
vt -0.648324 1.376005
vt -0.656272 1.337021
vt -0.667245 1.312660
vt 0.205667 1.406514
vt -0.000207 0.689550
vt -0.003001 0.654515
vt -0.170759 0.689550
vt -0.173106 0.654515
vt -0.004745 0.609074
vt -0.170328 0.609074
vt -0.509143 0.609074
vt -0.658428 0.609074
vt -0.343910 0.697508
vt -0.519709 0.654515
vt -0.343108 0.654515
vt -0.340635 0.609074
vt 0.167537 0.609074
vt -0.704149 0.682305
vt -0.671157 0.654515
vt 0.336394 0.609074
vt -0.311626 2.087889
vt -0.498220 2.085168
vt 0.368894 1.395031
vt 0.425238 2.077800
vt 0.246725 2.087889
vt -0.695208 2.082871
vt 0.079986 0.806355
vt 0.006136 0.765891
vt 0.223540 0.743425
vt 0.364028 1.368219
vt 0.088757 0.376955
vt 0.207223 0.376955
vt -0.590078 0.376955
vt -0.435243 0.376955
vt -0.299132 0.376955
vt -0.174642 0.376955
vt -0.045008 0.376955
vt -0.347108 0.989037
vt -0.233586 1.067960
vt -0.266132 1.098724
vt -0.343805 1.099514
vt -0.261656 0.878175
vt -0.348420 0.877732
vt -0.235644 0.851285
vt -0.097109 1.099821
vt 0.016755 1.095363
vt -0.125962 1.130514
vt 0.015019 0.987858
vt -0.132141 0.904013
vt -0.109643 0.878273
vt 0.012139 0.879894
vt 0.219556 1.095486
vt 0.340292 1.100926
vt 0.363756 1.132220
vt -0.129763 0.851861
vt 0.213783 0.876968
vt 0.377403 0.214731
vt 0.012240 0.215249
vt 0.014701 0.179333
vt 0.380958 0.179800
vt 1.150218 0.602773
vt 0.830961 0.601716
vt 0.840766 0.569375
vt 1.145336 0.570320
vt 0.822219 0.538857
vt 1.157594 0.538982
vt -0.119919 1.071139
vt -0.179131 1.053910
vt -0.178658 0.987963
vt 0.802237 0.726866
vt 0.796446 0.694485
vt 1.172703 0.695835
vt 1.166667 0.727293
vt 0.793081 0.505419
vt 1.183408 0.505594
vt -0.244043 1.128566
vt -0.177870 1.141624
vt 0.020541 0.251913
vt 0.370373 0.252955
vt -0.701310 0.832329
vt 0.406588 0.827569
vt 0.357829 0.842336
vt -0.000093 0.141798
vt 0.393137 0.142250
vt 0.809069 0.661470
vt 1.163717 0.663694
vt -0.539945 0.990769
vt -0.534486 1.103736
vt -0.602589 1.105555
vt -0.641773 1.077360
vt 0.341435 0.073333
vt 0.049987 0.072829
vt 0.039985 0.036649
vt 0.346583 0.038570
vt 0.365602 0.109899
vt 0.032745 0.108066
vt 0.343130 0.871199
vt 0.218911 0.986511
vt -0.181082 0.920497
vt -0.233225 0.904123
vt -0.690944 1.154077
vt -0.626988 1.137485
vt 0.001525 -0.000737
vt 0.386754 0.001671
vt 1.185824 0.634253
vt 0.787927 0.634090
vt -0.181413 0.837959
vt 0.389177 0.282317
vt 0.003918 0.282314
vt 0.415102 1.145929
vt 1.179302 0.757710
vt 0.788975 0.757708
vt -0.653571 0.900747
vt -0.708593 0.991692
vt -0.708020 0.918992
vt -0.702636 1.060618
vt 0.365512 1.069931
vt 0.422727 0.984230
vt 0.427005 1.051984
vt 0.368954 0.898273
vt 0.423185 0.913072
vt 0.385698 0.563814
vt 0.517720 0.563814
vt 0.578968 0.623964
vt 0.519445 0.681216
vt 0.390656 0.680577
vt 0.327621 0.618299
vn 0.4920 -0.0642 -0.8682
vn -0.4464 0.0341 -0.8942
vn 0.4921 -0.0642 -0.8682
vn -0.9998 0.0005 -0.0201
vn -0.5106 0.0071 -0.8598
vn -0.5107 0.0071 -0.8598
vn 0.7957 0.6047 -0.0338
vn 0.7240 0.5627 0.3989
vn 0.7655 0.4829 0.4252
vn 0.8510 0.5239 -0.0362
vn -0.4132 0.5975 -0.6873
vn 0.0316 0.5233 -0.8515
vn 0.0286 0.4409 -0.8971
vn -0.4407 0.5107 -0.7383
vn -0.3264 0.7660 0.5538
vn -0.3984 0.6050 0.6894
vn 0.0279 0.5562 0.8306
vn 0.4858 0.0066 -0.8740
vn 0.9999 0.0003 -0.0170
vn -0.5288 -0.0070 0.8487
vn -0.8604 -0.0098 0.5095
vn -0.8655 -0.0109 0.5007
vn -0.3627 -0.0015 0.9319
vn -0.1540 0.0014 0.9881
vn 0.9999 -0.0100 -0.0035
vn 0.5003 -0.0033 0.8659
vn 0.5003 -0.0033 0.8658
vn 0.5284 -0.0074 -0.8490
vn -0.9395 0.3426 0.0041
vn -0.4156 0.5268 -0.7415
vn 0.4446 -0.4430 0.7785
vn 0.8955 -0.4427 0.0462
vn 0.8955 -0.4427 0.0461
vn -0.3897 -0.4936 0.7775
vn -0.3898 -0.4936 0.7775
vn 0.4046 0.5854 0.7026
vn -0.4625 0.5035 0.7297
vn -0.4625 0.5037 0.7296
vn 0.3981 -0.5210 -0.7550
vn -0.9024 -0.4298 0.0306
vn -0.4527 -0.4295 -0.7814
vn 0.4038 0.6299 -0.6634
vn 0.8017 0.5978 0.0036
vn -0.8736 -0.4864 0.0163
vn -0.3822 -0.5560 -0.7381
vn 0.4308 -0.3724 -0.8220
vn 0.9356 -0.3531 0.0088
vn 0.4562 0.5043 -0.7332
vn 0.8413 0.5401 0.0212
vn -0.4224 0.4805 0.7686
vn -0.9113 0.4101 0.0374
vn 0.4010 -0.5026 0.7659
vn -0.4708 -0.5151 0.7162
vn 0.3880 0.5181 0.7623
vn -0.4703 0.4390 -0.7656
vn 0.5217 -0.0005 0.8532
vn -0.5054 0.0035 0.8629
vn -0.5054 0.0038 0.8629
vn 0.5217 -0.0005 0.8531
vn -0.9999 0.0039 0.0163
vn -0.9999 0.0039 0.0164
vn -0.4992 0.0063 -0.8665
vn -0.7453 0.5295 0.4052
vn -0.7837 0.4507 0.4275
vn -0.4241 0.5242 0.7385
vn 0.4686 -0.0386 0.8826
vn 0.9950 -0.0994 -0.0080
vn -0.9989 0.0398 0.0239
vn -0.4639 -0.0119 0.8858
vn 0.9986 -0.0476 0.0216
vn 0.4894 0.0390 -0.8712
vn -0.9992 0.0241 0.0321
vn -0.4941 0.0729 0.8663
vn -0.4942 0.0729 0.8663
vn 0.4692 0.0095 0.8830
vn 0.4693 0.0095 0.8830
vn -0.5162 0.0500 -0.8550
vn -0.5159 0.0500 -0.8552
vn -0.7715 0.5298 -0.3523
vn -0.8094 0.4481 -0.3796
vn -0.6594 -0.7518 0.0075
vn -0.3290 -0.7476 -0.5770
vn -0.3290 -0.7476 -0.5769
vn -0.3466 -0.7574 0.5533
vn -0.3467 -0.7574 0.5533
vn 0.3148 -0.7599 0.5688
vn 0.3147 -0.7599 0.5688
vn 0.6452 -0.7640 -0.0044
vn 0.6452 -0.7640 -0.0043
vn 0.3135 -0.7622 -0.5663
vn 0.1360 -0.0014 0.9907
vn 0.8639 -0.0225 0.5031
vn 0.8964 0.0014 0.4432
vn 0.1044 -0.0013 0.9945
vn 0.8826 -0.0092 0.4700
vn 0.1098 0.0015 0.9940
vn 0.3394 -0.0028 0.9406
vn 0.8874 -0.0142 0.4607
vn 0.8986 -0.0096 -0.4387
vn 0.1069 -0.0112 -0.9942
vn 0.2492 -0.0255 -0.9681
vn 0.9359 -0.0189 -0.3516
vn 0.1456 -0.0128 -0.9893
vn 0.9173 0.0167 -0.3978
vn 0.8923 -0.0127 -0.4513
vn 0.0924 -0.0140 -0.9956
vn -0.0617 -0.0098 -0.9980
vn -0.9056 0.0048 -0.4241
vn -0.9346 0.0174 -0.3553
vn -0.2137 -0.0167 -0.9767
vn 0.9083 -0.0183 -0.4179
vn 0.2177 -0.0019 -0.9760
vn -0.1967 -0.0022 -0.9805
vn -0.0707 -0.0105 -0.9974
vn -0.0014 -0.0423 0.9991
vn -0.0022 0.6891 0.7247
vn -0.0022 0.6891 0.7246
vn -0.0006 0.7325 -0.6808
vn -0.0022 0.0116 -0.9999
vn -0.0019 -0.6826 -0.7308
vn -0.0019 -0.6825 -0.7308
vn 0.9110 -0.0439 -0.4100
vn 0.9775 -0.0504 0.2049
vn 0.9780 -0.0276 0.2067
vn 0.0017 -0.6737 0.7390
vn 0.0017 -0.0221 0.9998
vn 0.0002 -0.9999 -0.0144
vn 0.9840 -0.0127 0.1777
vn 0.3466 -0.0026 0.9380
vn 0.8999 -0.0007 0.4362
vn 0.9840 -0.0134 0.1777
vn -0.0011 -0.7092 0.7050
vn -0.9797 -0.0004 0.2003
vn -0.9797 -0.0010 0.2003
vn -0.9060 -0.0041 -0.4232
vn -0.0015 0.9987 0.0501
vn 0.0004 0.6673 0.7448
vn -0.2603 0.0026 0.9655
vn -0.1513 -0.0020 0.9885
vn -0.8494 -0.0034 0.5277
vn -0.8506 -0.0020 0.5259
vn -0.0035 0.0541 -0.9985
vn -0.0035 0.0540 -0.9985
vn -0.0006 -0.7250 -0.6888
vn -0.0001 0.6983 -0.7158
vn 0.7156 0.5316 -0.4530
vn 0.7523 0.4517 -0.4796
vn 0.6427 0.7656 -0.0273
vn -0.3326 0.7723 -0.5413
vn 0.0320 0.4766 0.8785
vn -0.8946 -0.0086 -0.4469
vn -0.1108 -0.0102 -0.9938
vn 0.9780 -0.0042 0.2084
vn 0.8708 -0.0031 0.4916
vn -0.2466 0.0009 0.9691
vn -0.9978 0.0218 0.0621
vn -0.8943 0.0156 0.4472
vn 0.0018 -0.9997 -0.0260
vn -0.0002 0.9997 0.0250
vn 0.9884 -0.0112 0.1517
vn -0.8527 0.0185 0.5220
vn -0.9569 0.0123 0.2902
vn -0.9567 0.0376 0.2888
vn -0.9565 -0.0129 0.2914
vn -0.9290 -0.0302 -0.3687
vn -0.9223 0.0407 -0.3842
vn -0.0157 -0.9999 -0.0018
usemtl beams_and_sticks
s 1
f 37/1/1 26/2/2 27/3/2 36/4/3
f 20/5/4 14/6/5 56/7/6 59/8/4
f 94/9/7 92/10/8 50/11/9 54/12/10
f 95/13/11 96/14/12 51/15/13 52/16/14
f 25/17/15 93/18/16 92/10/17
f 51/19/18 54/20/19 6/21/19 11/22/18
f 61/23/20 16/24/20 20/25/4 59/26/4
f 83/27/21 75/28/22 15/29/23 98/30/24
f 65/31/25 18/32/25 21/33/26 63/34/27
f 23/35/28 18/32/25 65/31/25 67/36/28
f 21/33/26 16/24/20 61/23/20 63/34/27
f 32/37/29 26/2/30 1/38/30 7/39/29
f 9/40/31 34/41/31 31/42/32 6/21/33
f 9/40/31 4/43/34 29/44/35 34/41/31
f 35/45/36 28/46/37 3/47/38 10/48/36
f 11/22/39 6/21/33 31/42/32 36/4/39
f 19/49/40 13/50/41 38/51/41 44/52/40
f 26/2/30 37/1/42 12/53/42 1/38/30
f 30/54/43 35/45/36 10/48/36 5/55/43
f 4/43/34 8/56/44 33/57/44 29/44/35
f 28/46/37 32/58/29 7/59/29 3/47/38
f 2/60/45 11/22/39 36/4/39 27/3/45
f 37/1/42 30/54/43 5/55/43 12/53/42
f 24/61/46 49/62/46 38/51/41 13/50/41
f 24/61/46 17/63/47 42/64/47 49/62/46
f 48/65/48 43/66/49 18/32/49 23/35/48
f 41/67/50 45/68/51 20/25/51 16/24/50
f 22/69/52 15/29/53 40/70/53 47/71/52
f 46/72/54 41/67/50 16/24/50 21/33/54
f 48/65/48 23/35/48 14/6/55 39/73/55
f 15/29/53 19/74/40 44/75/40 40/70/53
f 17/63/47 22/69/52 47/71/52 42/64/47
f 45/76/51 39/73/55 14/6/55 20/5/51
f 43/66/49 46/72/54 21/33/54 18/32/49
f 50/77/56 53/78/57 4/43/58 9/40/59
f 54/20/19 50/77/56 9/40/59 6/21/19
f 8/79/60 55/80/61 52/81/62 2/60/62
f 4/43/58 53/78/57 55/82/61 8/56/60
f 2/60/62 52/81/62 51/19/18 11/22/18
f 93/18/16 97/83/63 55/84/64 53/85/65
f 35/45/66 30/54/67 31/42/67 34/41/66
f 32/58/68 28/46/69 29/44/69 33/57/68
f 26/2/2 32/37/68 33/86/68 27/3/2
f 28/46/69 35/45/66 34/41/66 29/44/69
f 30/54/67 37/1/1 36/4/3 31/42/67
f 43/66/70 48/65/71 49/62/71 42/64/70
f 45/68/72 41/67/73 40/70/74 44/75/72
f 41/67/73 46/72/75 47/71/76 40/70/74
f 39/73/77 45/76/72 44/52/72 38/51/78
f 46/72/75 43/66/70 42/64/70 47/71/76
f 48/65/71 39/73/77 38/51/78 49/62/71
f 2/60/45 27/3/45 33/86/44 8/79/44
f 97/83/79 95/13/11 52/16/14 55/84/80
f 23/35/28 67/36/28 56/7/6 14/6/5
f 59/8/81 56/7/82 57/87/83 58/88/81
f 61/23/84 59/26/81 58/89/81 60/90/85
f 63/34/86 61/23/84 60/90/85 62/91/87
f 65/31/88 63/34/86 62/91/87 64/92/89
f 67/36/90 65/31/88 64/92/89 66/93/90
f 56/7/82 67/36/90 66/93/90 57/87/83
f 116/94/91 76/95/92 84/96/93 104/97/94
f 82/98/95 99/99/96 22/69/97 74/100/98
f 91/101/99 103/102/100 12/53/101 69/103/102
f 118/104/103 87/105/104 73/106/105 102/107/106
f 101/108/107 90/109/108 68/110/109 1/38/110
f 102/107/106 73/106/105 79/111/111 24/61/112
f 22/69/97 99/99/96 98/30/24 15/29/23
f 24/61/112 13/50/113 100/112/114 102/107/106
f 91/113/115 90/114/115 88/115/116 89/116/117
f 74/117/118 75/118/118 83/119/119 82/120/119
f 83/119/119 81/121/120 80/122/121 82/120/119
f 118/104/103 89/123/122 110/124/123 114/125/124
f 86/126/125 72/127/126 73/128/126 87/129/125
f 112/130/127 113/131/127 80/122/121 81/121/120
f 5/55/128 10/48/129 70/132/130 106/133/131
f 68/134/132 90/114/115 91/113/115 69/135/132
f 19/74/133 15/29/23 75/28/22 108/136/134
f 19/49/133 108/137/134 78/138/135 13/50/113
f 111/139/136 110/140/136 89/116/117 88/115/116
f 73/128/126 72/127/126 78/141/137 79/142/137
f 117/143/138 105/144/139 85/145/140 77/146/141
f 84/147/142 85/148/143 71/149/144 70/150/144
f 76/151/145 77/152/145 85/148/143 84/147/142
f 96/14/146 94/9/7 54/12/10 51/15/147
f 94/9/7 96/14/146 25/17/148
f 95/13/11 97/83/79 25/17/149
f 97/83/63 93/18/16 25/17/15
f 92/10/17 93/18/16 53/85/65 50/11/150
f 96/14/12 95/13/11 25/17/149
f 92/10/8 94/9/7 25/17/148
f 114/125/124 110/124/123 76/95/92 116/94/91
f 10/48/129 104/97/94 84/96/93 70/132/130
f 117/143/138 116/94/91 104/97/94 105/144/139
f 72/153/151 100/112/114 13/50/113 78/138/135
f 118/104/103 119/154/152 101/108/107 103/102/100
f 113/155/153 114/125/124 116/94/91 80/156/154
f 103/102/100 101/108/107 1/38/110 12/53/101
f 105/144/139 104/97/94 10/48/129 3/47/155
f 87/105/104 118/104/103 114/125/124 113/155/153
f 109/157/156 71/158/157 3/47/155 7/59/156
f 85/145/140 105/144/139 3/47/155 71/158/157
f 71/149/144 109/159/158 106/160/158 70/150/144
f 107/161/159 108/162/159 75/118/118 74/117/118
f 79/142/137 78/141/137 108/162/159 107/161/159
f 22/69/97 17/63/160 107/163/160 74/100/98
f 17/63/160 24/61/112 79/111/111 107/163/160
f 106/164/158 109/165/158 68/134/132 69/135/132
f 68/110/109 109/166/156 7/39/156 1/38/110
f 77/152/145 76/151/145 110/140/136 111/139/136
f 86/126/125 87/129/125 113/167/127 112/168/127
f 12/53/101 5/55/128 106/133/131 69/103/102
f 81/169/161 117/143/138 115/170/162 112/171/163
f 117/143/138 77/146/141 111/172/164 115/170/162
f 98/30/24 117/143/138 81/169/161 83/27/21
f 98/30/24 99/99/96 116/94/91 117/143/138
f 102/107/106 100/112/114 119/154/152 118/104/103
f 118/104/103 103/102/100 91/101/99 89/123/122
f 80/156/154 116/94/91 99/99/96 82/98/95
f 88/173/165 119/154/152 115/174/162 111/175/164
f 101/108/107 119/154/152 88/173/165 90/109/108
f 72/153/151 86/176/166 119/154/152 100/112/114
f 119/154/152 86/176/166 112/177/163 115/174/162
f 57/178/167 66/179/167 64/180/167 62/181/167 60/182/167 58/183/167
