# Blender v2.79 (sub 0) OBJ File: 'LODs_biskupin_tower.blend'
# www.blender.org
mtllib LOD0_biskupin_tower_rope.mtl
o LOD0_rope_cords_and_ropes_Circle.001
v 0.000000 0.000000 -0.017368
v 0.000000 0.000000 0.017368
v -0.019260 0.000000 0.000000
v 0.000000 1.808895 0.000000
v 0.000000 -1.808895 -0.000000
v 0.019261 0.000000 0.000000
v -0.014445 0.000000 -0.013026
v 0.000000 -1.808895 -0.017368
v 0.014446 0.000000 -0.013026
v 0.000000 1.808895 -0.017367
v -0.014445 0.000000 0.013026
v 0.000000 -1.808895 0.017367
v 0.014446 0.000000 0.013026
v 0.000000 1.808895 0.017368
v -0.019260 -1.808895 -0.000000
v -0.019260 1.808895 0.000000
v 0.019261 1.808895 0.000000
v 0.019261 -1.808895 -0.000000
v -0.014445 -1.808895 -0.013026
v 0.014446 -1.808895 -0.013026
v -0.014445 1.808895 -0.013026
v 0.014446 1.808895 -0.013026
v -0.014445 1.808895 0.013026
v -0.014445 -1.808895 0.013026
v 0.014446 -1.808895 0.013026
v 0.014446 1.808895 0.013026
vt 0.332130 0.084722
vt 0.331757 4.894157
vt 0.289788 4.894758
vt 0.290161 0.085323
vt 0.290533 -4.724112
vt 0.332502 -4.724713
vt 0.374472 -4.725323
vt 0.374099 0.084112
vt 0.373726 4.893548
vt 0.500001 0.083742
vt 0.541967 0.084250
vt 0.541593 4.894066
vt 0.499629 4.893177
vt 0.457663 4.892668
vt 0.458036 0.083234
vt 0.458408 -4.726202
vt 0.500374 -4.725693
vt 0.542338 -4.724804
vt 0.583935 0.083997
vt 0.584307 -4.725438
vt 0.615691 -4.750590
vt 0.625904 0.083363
vt 0.615132 4.917633
vt 0.583562 4.893432
vt 0.583935 -4.824143
vt 0.583562 -4.922849
vt 0.625531 -4.923483
vt 0.625903 -4.824778
vt 0.541966 -4.823510
vt 0.541593 -4.922215
vt 0.583935 4.992137
vt 0.625904 4.991503
vt 0.626277 5.090209
vt 0.584308 5.090843
vt 0.542339 5.091477
vt 0.541966 4.992771
vt 0.416068 0.083487
vt 0.415695 4.892921
vt 0.416440 -4.725948
vn 0.0000 0.0000 -1.0000
vn -0.6848 0.0000 -0.7287
vn 0.6848 0.0000 -0.7287
vn 0.0000 -0.0000 1.0000
vn -0.6848 -0.0000 0.7287
vn 0.6848 -0.0000 0.7287
vn -1.0000 0.0000 0.0000
vn 0.0000 1.0000 0.0000
vn 0.0000 -1.0000 0.0000
vn 1.0000 -0.0000 0.0000
usemtl rope
s 1
f 1/1/1 8/2/1 19/3/2 7/4/2
f 1/1/1 7/4/2 21/5/2 10/6/1
f 1/1/1 10/6/1 22/7/3 9/8/3
f 1/1/1 9/8/3 20/9/3 8/2/1
f 2/10/4 11/11/5 24/12/5 12/13/4
f 2/10/4 12/13/4 25/14/6 13/15/6
f 2/10/4 13/15/6 26/16/6 14/17/4
f 2/10/4 14/17/4 23/18/5 11/11/5
f 3/19/7 16/20/7 21/21/2 7/22/2
f 3/19/7 7/22/2 19/23/2 15/24/7
f 3/19/7 15/24/7 24/12/5 11/11/5
f 3/19/7 11/11/5 23/18/5 16/20/7
f 4/25/8 17/26/8 22/27/8 10/28/8
f 4/25/8 10/28/8 21/21/8 16/20/8
f 4/25/8 16/20/8 23/18/8 14/29/8
f 4/25/8 14/29/8 26/30/8 17/26/8
f 5/31/9 15/24/9 19/23/9 8/32/9
f 5/31/9 8/32/9 20/33/9 18/34/9
f 5/31/9 18/34/9 25/35/9 12/36/9
f 5/31/9 12/36/9 24/12/9 15/24/9
f 6/37/10 18/38/10 20/9/3 9/8/3
f 6/37/10 9/8/3 22/7/3 17/39/10
f 6/37/10 17/39/10 26/16/6 13/15/6
f 6/37/10 13/15/6 25/14/6 18/38/10
