# Blender v2.79 (sub 0) OBJ File: 'LODs_biskupin_tower.blend'
# www.blender.org
mtllib LOD1_biskupin_tower_rope_loop.mtl
o LOD1_rope_loop_cords_and_ropes_Circle.007
v 0.000000 -0.018345 -0.133667
v -0.066833 -0.018345 -0.115759
v -0.115759 -0.018345 -0.066833
v -0.133667 -0.018345 -0.000000
v -0.115759 -0.018345 0.066833
v -0.066833 -0.018345 0.115759
v 0.000000 -0.018345 0.133667
v 0.066833 -0.018345 0.115759
v 0.115759 -0.018345 0.066833
v 0.133667 -0.018345 -0.000000
v 0.115759 -0.018345 -0.066833
v 0.066833 -0.018345 -0.115759
v 0.000000 0.018345 -0.133667
v -0.066833 0.018345 -0.115759
v -0.115759 0.018345 -0.066833
v -0.133667 0.018345 -0.000000
v -0.115759 0.018345 0.066833
v -0.066833 0.018345 0.115759
v 0.000000 0.018345 0.133667
v 0.066833 0.018345 0.115759
v 0.115759 0.018345 0.066833
v 0.133667 0.018345 -0.000000
v 0.115759 0.018345 -0.066833
v 0.066833 0.018345 -0.115759
v -0.048141 -0.019685 -0.083382
v 0.000000 -0.019685 -0.096281
v -0.083382 -0.019685 -0.048141
v -0.096281 -0.019685 -0.000000
v -0.083382 -0.019685 0.048140
v -0.048141 -0.019685 0.083382
v 0.000000 -0.019685 0.096281
v 0.048141 -0.019685 0.083382
v 0.083382 -0.019685 0.048140
v 0.096281 -0.019685 -0.000000
v 0.083382 -0.019685 -0.048141
v 0.048141 -0.019685 -0.083382
v -0.048141 0.019685 -0.083382
v 0.000000 0.019685 -0.096281
v -0.083382 0.019685 -0.048141
v -0.096281 0.019685 -0.000000
v -0.083382 0.019685 0.048140
v -0.048141 0.019685 0.083382
v 0.000000 0.019685 0.096281
v 0.048141 0.019685 0.083382
v 0.083382 0.019685 0.048140
v 0.096281 0.019685 -0.000000
v 0.083382 0.019685 -0.048141
v 0.048141 0.019685 -0.083382
vt 0.555683 0.134513
vt 0.555683 -0.035981
vt 0.514849 -0.035981
vt 0.514849 0.134513
vt 0.555683 0.615659
vt 0.555683 0.460225
vt 0.514849 0.460225
vt 0.514849 0.615659
vt 0.555683 -0.573688
vt 0.555683 -0.747582
vt 0.514849 -0.747582
vt 0.514849 -0.573688
vt 0.555683 1.049450
vt 0.555683 0.911450
vt 0.514849 0.911450
vt 0.514849 1.049450
vt 0.555683 -0.211590
vt 0.514849 -0.211590
vt 0.555683 0.299880
vt 0.514849 0.299880
vt 0.555683 0.766197
vt 0.514849 0.766197
vt 0.555683 -0.391736
vt 0.514849 -0.391736
vt 0.555683 1.175668
vt 0.514849 1.175668
vt 0.434653 0.134513
vt 0.476167 0.134513
vt 0.476167 -0.035981
vt 0.434653 -0.035981
vt 0.434653 0.615659
vt 0.476167 0.615659
vt 0.476167 0.460225
vt 0.434653 0.460225
vt 0.434653 -0.573688
vt 0.476167 -0.573688
vt 0.476167 -0.747582
vt 0.434653 -0.747582
vt 0.434653 1.049450
vt 0.476167 1.049450
vt 0.476167 0.911450
vt 0.434653 0.911450
vt 0.476167 -0.211590
vt 0.434653 -0.211590
vt 0.476167 0.299880
vt 0.434653 0.299880
vt 0.476167 0.766197
vt 0.434653 0.766197
vt 0.476167 -0.391736
vt 0.434653 -0.391736
vt 0.434653 1.175668
vt 0.476167 1.175668
vt 0.399200 0.460225
vt 0.399200 0.299880
vt 0.399200 0.134513
vt 0.399200 -0.035981
vt 0.399200 1.175668
vt 0.399200 1.049450
vt 0.399200 -0.211590
vt 0.399200 0.911450
vt 0.399200 -0.391736
vt 0.399200 0.766197
vt 0.399200 -0.573688
vt 0.399200 0.615659
vt 0.399200 -0.747582
vn 0.3835 -0.6416 0.6643
vn 0.6643 -0.6416 0.3835
vn 0.6643 0.6416 0.3835
vn 0.3835 0.6416 0.6643
vn -0.6643 -0.6416 0.3835
vn -0.3835 -0.6416 0.6643
vn -0.3835 0.6416 0.6643
vn -0.6643 0.6416 0.3835
vn 0.3835 -0.6416 -0.6643
vn -0.0000 -0.6416 -0.7671
vn -0.0000 0.6416 -0.7671
vn 0.3835 0.6416 -0.6643
vn -0.3835 -0.6416 -0.6643
vn -0.6643 -0.6416 -0.3835
vn -0.6643 0.6416 -0.3835
vn -0.3835 0.6416 -0.6643
vn 0.7671 -0.6416 0.0000
vn 0.7671 0.6416 0.0000
vn -0.0000 -0.6416 0.7671
vn -0.0000 0.6416 0.7671
vn -0.7671 -0.6416 -0.0000
vn -0.7671 0.6416 -0.0000
vn 0.6643 -0.6416 -0.3835
vn 0.6643 0.6416 -0.3835
vn -0.3106 -0.7836 -0.5380
vn -0.3106 0.7836 -0.5380
vn -0.5380 0.7836 -0.3106
vn -0.5380 -0.7836 -0.3106
vn 0.5380 -0.7836 -0.3106
vn 0.5380 0.7836 -0.3106
vn 0.3106 0.7836 -0.5380
vn 0.3106 -0.7836 -0.5380
vn -0.3106 -0.7836 0.5380
vn -0.3106 0.7836 0.5380
vn 0.0000 0.7836 0.6212
vn -0.0000 -0.7836 0.6212
vn 0.3106 -0.7836 0.5380
vn 0.3106 0.7836 0.5380
vn 0.5380 0.7836 0.3106
vn 0.5380 -0.7836 0.3106
vn -0.6212 0.7836 0.0000
vn -0.6212 -0.7836 0.0000
vn 0.0000 0.7836 -0.6212
vn -0.0000 -0.7836 -0.6212
vn 0.6212 0.7836 -0.0000
vn 0.6212 -0.7836 -0.0000
vn -0.5380 0.7836 0.3106
vn -0.5380 -0.7836 0.3106
usemtl rope
s 1
f 8/1/1 9/2/2 21/3/3 20/4/4
f 5/5/5 6/6/6 18/7/7 17/8/8
f 12/9/9 1/10/10 13/11/11 24/12/12
f 2/13/13 3/14/14 15/15/15 14/16/16
f 9/2/2 10/17/17 22/18/18 21/3/3
f 6/6/6 7/19/19 19/20/20 18/7/7
f 3/14/14 4/21/21 16/22/22 15/15/15
f 10/17/17 11/23/23 23/24/24 22/18/18
f 7/19/19 8/1/1 20/4/4 19/20/20
f 4/21/21 5/5/5 17/8/8 16/22/22
f 11/23/23 12/9/9 24/12/12 23/24/24
f 1/25/10 2/13/13 14/16/16 13/26/11
f 32/27/25 44/28/26 45/29/27 33/30/28
f 29/31/29 41/32/30 42/33/31 30/34/32
f 36/35/33 48/36/34 38/37/35 26/38/36
f 25/39/37 37/40/38 39/41/39 27/42/40
f 33/30/28 45/29/27 46/43/41 34/44/42
f 30/34/32 42/33/31 43/45/43 31/46/44
f 27/42/40 39/41/39 40/47/45 28/48/46
f 34/44/42 46/43/41 47/49/47 35/50/48
f 31/46/44 43/45/43 44/28/26 32/27/25
f 28/48/46 40/47/45 41/32/30 29/31/29
f 35/50/48 47/49/47 48/36/34 36/35/33
f 26/51/36 38/52/35 37/40/38 25/39/37
f 6/53/6 30/34/32 31/46/44 7/54/19
f 22/18/18 46/43/41 45/29/27 21/3/3
f 15/15/15 39/41/39 37/40/38 14/16/16
f 7/54/19 31/46/44 32/27/25 8/55/1
f 23/24/24 47/49/47 46/43/41 22/18/18
f 16/22/22 40/47/45 39/41/39 15/15/15
f 8/55/1 32/27/25 33/30/28 9/56/2
f 24/12/12 48/36/34 47/49/47 23/24/24
f 1/57/10 26/51/36 25/39/37 2/58/13
f 17/8/8 41/32/30 40/47/45 16/22/22
f 9/56/2 33/30/28 34/44/42 10/59/17
f 13/11/11 38/37/35 48/36/34 24/12/12
f 2/58/13 25/39/37 27/42/40 3/60/14
f 18/7/7 42/33/31 41/32/30 17/8/8
f 10/59/17 34/44/42 35/50/48 11/61/23
f 3/60/14 27/42/40 28/48/46 4/62/21
f 19/20/20 43/45/43 42/33/31 18/7/7
f 11/61/23 35/50/48 36/35/33 12/63/9
f 4/62/21 28/48/46 29/31/29 5/64/5
f 20/4/4 44/28/26 43/45/43 19/20/20
f 12/63/9 36/35/33 26/38/36 1/65/10
f 5/64/5 29/31/29 30/34/32 6/53/6
f 21/3/3 45/29/27 44/28/26 20/4/4
f 14/16/16 37/40/38 38/52/35 13/26/11
