# Blender v2.79 (sub 0) OBJ File: 'LODs_biskupin_tower.blend'
# www.blender.org
mtllib LOD1_biskupin_tower_rope.mtl
o LOD1_rope_cords_and_ropes_Circle.006
v -0.019260 -1.808895 -0.017368
v 0.019261 -1.808895 -0.017368
v -0.019260 1.808895 -0.017367
v 0.019261 1.808895 -0.017367
v -0.019260 1.808895 0.017368
v -0.019260 -1.808895 0.017367
v 0.019261 -1.808895 0.017367
v 0.019261 1.808895 0.017368
vt 0.289788 4.894758
vt 0.290533 -4.724112
vt 0.374472 -4.725315
vt 0.373727 4.893556
vt 0.541593 4.894066
vt 0.457664 4.892288
vt 0.458409 -4.726582
vt 0.542338 -4.724804
vt 0.626276 -4.726072
vt 0.625531 4.892797
vt 0.625531 -4.923483
vt 0.541593 -4.922215
vt 0.626277 5.090209
vt 0.542339 5.091477
vn -0.7071 0.0000 -0.7071
vn 0.7071 0.0000 -0.7071
vn -0.7071 -0.0000 0.7071
vn 0.7071 -0.0000 0.7071
vn 0.0000 1.0000 0.0000
vn 0.0000 -1.0000 0.0000
usemtl rope
s 1
f 1/1/1 3/2/1 4/3/2 2/4/2
f 6/5/3 7/6/4 8/7/4 5/8/3
f 3/9/1 1/10/1 6/5/3 5/8/3
f 4/11/5 3/9/5 5/8/5 8/12/5
f 1/10/6 2/13/6 7/14/6 6/5/6
f 2/4/2 4/3/2 8/7/4 7/6/4
