# Blender v2.79 (sub 0) OBJ File: 'LODs_biskupin_tower.blend'
# www.blender.org
mtllib LOD0_biskupin_tower_stick.mtl
o LOD0_stick_beams_and_sticks_Circle.159
v 0.082347 -0.987826 0.009860
v 0.028854 -0.988845 0.022800
v 0.036660 -0.988631 -0.003770
v 0.050725 -0.986114 0.043280
v 0.041855 1.149584 -0.012182
v 0.017471 1.148412 -0.027673
v 0.099577 1.858496 -0.104193
v 0.125718 -1.888715 -0.066730
v 0.076434 -0.984204 0.038578
v 0.064445 -0.989522 -0.012007
v 0.073873 1.147227 -0.046876
v -0.064780 0.373602 0.040205
v 0.054094 1.147521 -0.066975
v 0.070788 1.151020 -0.019981
v -0.010018 0.110350 0.062611
v -0.005971 0.372983 0.026450
v -0.037893 0.375171 0.060689
v -0.006642 0.376812 0.057230
v -0.056023 0.375071 0.012756
v 0.026624 1.150141 -0.055571
v -0.068375 0.110598 0.075663
v -0.059918 0.111697 0.048353
v -0.041782 0.112469 0.096734
v -0.011047 0.114129 0.093615
v -0.032296 0.109789 0.038421
v -0.028465 0.372810 0.002459
v -0.097216 0.400789 0.013948
v -0.110060 0.381712 -0.005841
v -0.119756 0.406486 0.024071
v -0.165304 0.478413 -0.014834
v -0.132600 0.387409 0.004281
v 0.094192 1.858991 -0.078396
v 0.068991 1.858147 -0.092276
v 0.078368 1.860079 -0.120629
v 0.105776 1.857122 -0.133069
v 0.126170 1.856417 -0.113555
v 0.123963 1.860219 -0.087235
v 0.119710 -1.887000 -0.039564
v 0.098948 -1.890360 -0.062245
v 0.106230 -1.890720 -0.088220
v 0.134141 -1.890922 -0.095056
v 0.151213 -1.888425 -0.072405
v 0.144064 -1.884863 -0.042888
v 0.064409 -0.983185 0.046124
v 0.075231 -0.988564 -0.003594
v 0.027126 -0.987705 0.009937
v 0.038001 -0.989248 0.034140
v 0.083510 -0.986607 0.025027
v 0.051189 -0.989834 -0.012894
v 0.020749 -0.259292 0.093070
v 0.005412 -0.263995 0.042125
v -0.006894 -0.261025 0.098066
v -0.022269 -0.262505 0.051486
v -0.030500 -0.263226 0.078538
v 0.024823 -0.262982 0.064180
v 0.021576 0.438037 0.019803
v -0.034050 0.438678 0.036930
v -0.025120 0.440204 0.009487
v -0.010481 0.440177 0.054033
v 0.017613 0.441822 0.047274
v 0.002412 0.437919 -0.000881
v 0.016622 1.149747 -0.040750
v 0.041205 1.149448 -0.066268
v 0.065060 1.146175 -0.059806
v 0.058144 1.151432 -0.012488
v 0.026704 1.147803 -0.017697
v 0.076970 1.149301 -0.032247
v -0.033518 0.307928 0.033097
v -0.095510 0.308526 0.043480
v -0.086925 0.309938 0.016025
v -0.065305 0.310164 0.067344
v -0.030897 0.311803 0.067186
v -0.059341 0.307701 0.005799
v -0.016739 0.371944 0.010897
v -0.041456 0.374284 0.002593
v -0.065889 0.374925 0.027207
v -0.045355 0.110809 0.038381
v -0.020572 0.109386 0.046991
v -0.069689 0.111833 0.062669
v -0.054759 0.373038 0.051462
v -0.019936 0.377322 0.063930
v -0.000994 0.374935 0.043699
v -0.005290 0.112119 0.079934
v -0.024230 0.114779 0.100324
v -0.058298 0.110105 0.087096
v -0.132444 0.397396 0.015389
v -0.104644 0.409382 0.025274
v -0.062670 0.294367 0.018999
v -0.123911 0.380766 -0.004409
v -0.066355 0.325202 0.047127
v -0.098634 0.388851 0.000205
v -0.085186 0.301907 0.027247
v -0.043838 0.317662 0.038879
v -0.157451 0.469056 -0.030682
v -0.173157 0.487770 0.001014
v -0.180015 0.472911 -0.018684
v -0.150594 0.483916 -0.010984
v 0.078352 1.857540 -0.082717
v 0.111175 1.860538 -0.079755
v 0.068275 1.859448 -0.105453
v 0.092969 1.859488 -0.131826
v 0.116830 1.855319 -0.126323
v 0.129860 1.858642 -0.099085
v 0.108023 -1.890696 -0.050310
v 0.132294 -1.883610 -0.035319
v 0.096883 -1.889274 -0.075003
v 0.120735 -1.892125 -0.096653
v 0.144838 -1.889043 -0.086088
v 0.151533 -1.887541 -0.057005
v 0.008307 -0.258481 0.100396
v 0.016477 -0.263837 0.050299
v -0.031956 -0.262036 0.065590
v -0.021085 -0.263686 0.089605
v -0.007720 -0.263527 0.041804
v 0.027298 -0.261458 0.079770
v -0.010559 0.439408 -0.000710
v 0.005113 0.442326 0.054779
v 0.013290 0.437031 0.006711
v -0.035031 0.440047 0.023953
v -0.024944 0.438065 0.047322
v 0.024080 0.439960 0.034591
v -0.072353 0.309160 0.005896
v -0.044985 0.312317 0.073081
v -0.046769 0.306858 0.015083
v -0.096748 0.309803 0.030462
v -0.084575 0.308011 0.055601
v -0.026067 0.309910 0.052808
v -0.049585 0.302514 0.025420
v -0.048428 0.328872 0.049430
v -0.076675 0.293929 0.019610
v -0.083360 0.313823 0.037791
v -0.160860 0.489893 0.001119
v -0.147682 0.475188 -0.025011
v -0.171146 0.467603 -0.028429
v -0.181528 0.480970 -0.007014
vt 1.984062 0.685005
vt 1.950393 0.685033
vt 1.950394 0.296779
vt 1.984062 0.296746
vt 2.017730 0.296669
vt 2.017730 0.684940
vt 2.017730 1.167185
vt 1.984061 1.167250
vt 1.950393 1.167278
vt 1.782056 0.684688
vt 1.748388 0.684622
vt 1.748388 0.296334
vt 1.782056 0.296404
vt 1.815723 0.296472
vt 1.815723 0.684760
vt 1.815723 1.167005
vt 1.782056 1.166933
vt 1.748388 1.166867
vt 1.849391 0.684843
vt 1.849391 0.296536
vt 1.883058 0.296611
vt 1.883058 0.684927
vt 1.883058 1.167172
vt 1.849391 1.167088
vt 2.118734 0.684727
vt 2.085066 0.684792
vt 2.085066 0.296538
vt 2.118734 0.296462
vt 2.152403 0.296379
vt 2.152403 0.684668
vt 2.152403 1.166913
vt 2.118734 1.166972
vt 2.085066 1.167037
vt 2.118734 -0.410978
vt 2.085066 -0.410871
vt 2.085066 -0.761943
vt 2.118734 -0.762008
vt 2.152403 -0.762067
vt 2.152403 -0.411116
vt 2.152403 -0.141683
vt 2.118734 -0.059948
vt 2.085066 -0.059799
vt 1.782056 -0.411082
vt 1.748388 -0.411161
vt 1.748388 -0.762113
vt 1.782056 -0.762047
vt 1.815724 -0.761975
vt 1.815723 -0.411023
vt 1.815724 -0.060070
vt 1.782056 -0.060118
vt 1.748388 -0.141729
vt 0.452091 0.593661
vt 0.519324 0.613087
vt 0.496892 0.632487
vt 0.452076 0.632487
vt 0.407260 0.632487
vt 0.384828 0.613074
vt 0.362395 0.593661
vt 0.384827 0.574235
vt 0.407258 0.554809
vt 0.452120 0.554822
vt 0.496983 0.554836
vt 0.519369 0.574261
vt 0.541755 0.593687
vt 3.002498 -1.161249
vt 3.029453 -1.137906
vt 3.002504 -1.130120
vt 2.975535 -1.137903
vt 2.948565 -1.145687
vt 2.948580 -1.161257
vt 2.948594 -1.176827
vt 2.975561 -1.184598
vt 3.002528 -1.192368
vt 3.029462 -1.184585
vt 3.056395 -1.176801
vt 3.056398 -1.161247
vt 3.056401 -1.145693
vt 2.051398 0.684866
vt 2.051398 1.167111
vt 2.051398 0.296604
vt 1.916725 0.684999
vt 1.916725 1.167244
vt 1.916726 0.296713
vt 1.984062 -0.410678
vt 1.950394 -0.410633
vt 1.950394 -0.761702
vt 1.984062 -0.761730
vt 2.017730 -0.761794
vt 2.017730 -0.410784
vt 2.017730 -0.059774
vt 1.984062 -0.059626
vt 1.950394 -0.059563
vt 1.782056 -0.035239
vt 1.815723 -0.035194
vt 1.815723 -0.010318
vt 1.782056 -0.010359
vt 1.748388 0.009927
vt 1.748388 -0.035334
vt 1.916726 -0.410770
vt 1.916726 -0.059804
vt 1.883058 -0.060078
vt 1.883058 -0.410943
vt 1.883058 -0.761808
vt 1.916726 -0.761736
vt 2.051398 -0.410827
vt 2.051398 -0.059786
vt 2.051398 -0.761868
vt 1.984062 0.096460
vt 1.984062 -0.009840
vt 2.017730 -0.010004
vt 2.017730 0.096346
vt 1.950394 0.096508
vt 1.950393 -0.009772
vt 1.984062 -0.034733
vt 2.017730 -0.034889
vt 1.950394 -0.034668
vt 2.118734 -0.035060
vt 2.152403 -0.035288
vt 2.152403 0.009973
vt 2.118734 -0.010173
vt 2.085066 -0.010012
vt 2.085066 -0.034905
vt 2.051398 -0.034897
vt 2.051398 -0.010009
vt 1.849391 -0.035251
vt 1.883058 -0.035226
vt 1.883058 -0.010373
vt 1.849391 -0.010391
vt 1.849391 -0.060112
vt 1.849391 -0.411002
vt 1.849391 -0.761892
vt 1.782056 0.096042
vt 1.815723 0.096098
vt 1.748388 0.095959
vt 1.849391 0.096104
vt 1.883058 0.096154
vt 2.118734 0.096155
vt 2.152403 0.096005
vt 2.085066 0.096267
vt 2.051398 0.096306
vt 1.916726 0.096348
vt 1.916726 -0.010058
vt 1.916726 -0.034931
vt 0.376247 0.978271
vt 0.238283 0.977960
vt 0.238284 0.907383
vt 0.376247 0.907694
vt 0.514211 0.907933
vt 0.514211 0.978510
vt 0.514211 1.049086
vt 0.376247 1.048848
vt 0.238283 1.048536
vt 0.139738 0.977753
vt 0.060901 0.977598
vt 0.060901 0.907021
vt 0.139738 0.907176
vt 0.139738 1.048329
vt 0.060900 1.048175
vt 0.612758 0.978496
vt 0.612758 0.907919
vt 0.711305 0.907733
vt 0.711305 0.978310
vt 0.711305 1.048887
vt 0.612758 1.049073
vt 0.737160 0.644270
vt 0.738429 0.623327
vt 0.783175 0.624364
vt 0.788992 0.644789
vt 0.794810 0.665213
vt 0.735891 0.665213
vt 0.676973 0.665213
vt 0.685328 0.643752
vt 0.693684 0.622290
vt 0.849270 0.978031
vt 0.849270 1.048608
vt 0.849270 0.907454
vt 1.006944 0.907129
vt 1.006944 0.977705
vt 1.006944 1.048282
vn 0.9539 0.0975 -0.2838
vn 0.7585 0.1130 -0.6418
vn 0.7393 0.0880 -0.6676
vn 0.9339 0.0908 -0.3460
vn 0.9875 0.0737 0.1393
vn 0.9799 0.0589 0.1904
vn 0.9831 0.0587 0.1733
vn 0.9575 0.0980 -0.2711
vn 0.7596 0.1172 -0.6398
vn -0.9150 -0.1061 0.3892
vn -0.6804 -0.1155 0.7237
vn -0.6450 -0.0856 0.7594
vn -0.9123 -0.0964 0.3980
vn -0.9681 -0.0817 -0.2367
vn -0.9700 -0.0574 -0.2363
vn -0.9649 -0.0505 -0.2576
vn -0.9159 -0.1075 0.3868
vn -0.7079 -0.1199 0.6960
vn -0.6900 0.0066 -0.7238
vn -0.7030 -0.0407 -0.7100
vn -0.2747 0.0071 -0.9615
vn -0.2421 0.0626 -0.9682
vn -0.2061 0.0747 -0.9757
vn -0.6614 0.0190 -0.7498
vn -0.3894 -0.1069 0.9148
vn 0.1778 -0.0672 0.9818
vn 0.1750 -0.0196 0.9844
vn -0.3448 -0.0637 0.9365
vn -0.4563 -0.1163 0.8822
vn 0.1613 -0.0773 0.9839
vn -0.1751 0.1042 0.9790
vn 0.2703 0.0704 0.9602
vn 0.3033 0.0671 0.9505
vn -0.1203 0.1010 0.9876
vn -0.5243 0.1158 0.8436
vn -0.5548 0.1162 0.8238
vn -0.5742 0.2236 0.7876
vn -0.2460 0.1613 0.9557
vn 0.2497 0.0534 0.9669
vn -0.9113 0.1026 0.3987
vn -0.9206 0.1013 0.3772
vn -0.9549 0.0426 -0.2939
vn -0.9650 0.0466 -0.2581
vn -0.9408 0.2339 -0.2455
vn -0.8698 0.2710 0.4125
vn 0.0266 0.9993 -0.0273
vn -0.0040 0.9990 0.0434
vn -0.0375 0.9993 0.0074
vn -0.0468 0.9987 -0.0218
vn -0.0577 0.9968 -0.0559
vn -0.0151 0.9945 -0.1035
vn 0.0191 0.9898 -0.1414
vn 0.0558 0.9927 -0.1066
vn 0.0978 0.9930 -0.0663
vn 0.1047 0.9941 -0.0284
vn 0.1113 0.9937 0.0090
vn 0.0666 0.9968 0.0453
vn 0.0272 0.9967 0.0769
vn 0.0546 -0.9954 0.0781
vn 0.0601 -0.9896 0.1304
vn 0.1052 -0.9848 0.1380
vn 0.1163 -0.9887 0.0948
vn 0.1336 -0.9907 0.0245
vn 0.0634 -0.9978 0.0206
vn 0.0143 -0.9997 0.0178
vn 0.0170 -0.9978 0.0643
vn 0.0197 -0.9937 0.1100
vn 0.0349 -0.9952 0.0918
vn 0.0533 -0.9961 0.0696
vn 0.0265 -0.9951 0.0949
vn 0.0000 -0.9928 0.1198
vn 0.7356 -0.0001 0.6774
vn 0.7626 -0.0012 0.6469
vn 0.7340 0.0337 0.6783
vn 0.3528 0.1058 -0.9297
vn 0.3518 0.1129 -0.9292
vn 0.3322 0.0619 -0.9412
vn 0.9189 -0.1036 -0.3808
vn 0.6943 -0.1173 -0.7100
vn 0.6776 -0.1176 -0.7260
vn 0.9143 -0.1043 -0.3913
vn 0.9890 -0.0609 0.1346
vn 0.9888 -0.0607 0.1365
vn 0.9703 -0.1988 0.1378
vn 0.9040 -0.2490 -0.3476
vn 0.7046 -0.2395 -0.6680
vn -0.8244 0.4091 0.3912
vn -0.8866 0.4090 -0.2160
vn -0.9630 0.1261 -0.2382
vn -0.9128 0.1622 0.3747
vn -0.6445 0.1771 0.7438
vn -0.5964 0.3240 0.7344
vn 0.2450 -0.1075 -0.9636
vn 0.3023 -0.1565 -0.9403
vn -0.2861 -0.0011 -0.9582
vn -0.3443 -0.0615 -0.9368
vn -0.3606 -0.0597 -0.9308
vn 0.2028 -0.1054 -0.9735
vn 0.7302 0.0101 0.6832
vn 0.7357 -0.0827 0.6723
vn 0.7359 0.0091 0.6770
vn 0.9084 0.0616 -0.4135
vn 0.8769 -0.1813 -0.4452
vn 0.9907 -0.1316 0.0348
vn 0.9931 0.0965 0.0671
vn 0.7246 0.0256 -0.6887
vn 0.6819 -0.1821 -0.7084
vn 0.8452 -0.3912 -0.3643
vn 0.9319 -0.3474 0.1040
vn 0.6675 -0.3470 -0.6588
vn -0.3491 0.2435 0.9049
vn -0.4061 0.1758 0.8967
vn 0.0414 0.1380 0.9896
vn 0.1405 0.0810 0.9868
vn 0.7080 -0.1678 0.6860
vn 0.7026 0.0057 0.7116
vn -0.6760 0.2865 -0.6789
vn -0.2976 0.0930 -0.9501
vn -0.3493 -0.0330 -0.9364
vn -0.7219 0.0503 -0.6901
vn -0.6959 0.1329 -0.7058
vn -0.7212 -0.0110 -0.6926
vn -0.7173 -0.0117 -0.6966
vn -0.9098 -0.0703 0.4091
vn -0.9629 -0.1352 -0.2335
vn -0.6349 -0.0118 0.7725
vn -0.7057 -0.1447 -0.6936
vn -0.2985 -0.1192 -0.9469
vn -0.3633 0.0301 0.9312
vn 0.1251 0.0826 0.9887
vn 0.7289 0.1125 0.6754
vn 0.3188 -0.0425 -0.9469
vn 0.2381 -0.1406 -0.9610
vn 0.2791 -0.1814 -0.9429
vn 0.8532 0.4930 -0.1705
vn 0.6845 0.1974 -0.7018
vn 0.7469 0.2621 -0.6111
vn 0.8361 0.5476 0.0313
vn 0.2705 0.4324 0.8601
vn 0.4467 0.5131 0.7329
vn 0.6868 0.5850 0.4314
vn 0.8321 0.4127 -0.3704
vn 0.6334 0.1492 -0.7593
vn 0.2082 -0.1583 -0.9652
vn -0.4823 -0.4703 -0.7390
vn -0.5655 -0.4936 -0.6607
vn 0.1668 -0.1817 -0.9691
vn 0.2557 -0.1306 -0.9579
vn -0.3054 -0.4079 -0.8604
vn -0.3259 0.0625 0.9433
vn -0.3792 0.0240 0.9250
vn -0.7377 -0.2681 0.6196
vn -0.7318 -0.2594 0.6302
vn -0.7106 -0.2363 0.6627
vn -0.2962 0.0828 0.9515
vn -0.1579 0.8138 -0.5593
vn -0.1544 0.8094 -0.5666
vn -0.1435 0.8134 -0.5637
vn -0.1479 0.8180 -0.5559
vn -0.1516 0.8219 -0.5492
vn -0.1616 0.8180 -0.5520
vn -0.1713 0.8143 -0.5546
vn -0.1685 0.8102 -0.5614
vn -0.1652 0.8053 -0.5694
vn -0.8721 -0.4893 0.0016
vn -0.8577 -0.5048 -0.0980
vn -0.8748 -0.4828 0.0403
usemtl beams_and_sticks
s 1
f 1/1/1 45/2/2 111/3/3 55/4/4
f 1/1/1 55/4/4 115/5/5 48/6/6
f 1/1/1 48/6/6 109/7/7 42/8/8
f 1/1/1 42/8/8 108/9/9 45/2/2
f 2/10/10 47/11/11 113/12/12 54/13/13
f 2/10/10 54/13/13 112/14/14 46/15/15
f 2/10/10 46/15/15 106/16/16 39/17/17
f 2/10/10 39/17/17 104/18/18 47/11/11
f 3/19/19 46/15/15 112/14/14 53/20/20
f 3/19/19 53/20/20 114/21/21 49/22/22
f 3/19/19 49/22/22 107/23/23 40/24/24
f 3/19/19 40/24/24 106/16/16 46/15/15
f 4/25/25 44/26/26 110/27/27 52/28/28
f 4/25/25 52/28/28 113/29/12 47/30/11
f 4/25/25 47/30/11 104/31/18 38/32/29
f 4/25/25 38/32/29 105/33/30 44/26/26
f 5/34/31 65/35/32 99/36/33 32/37/34
f 5/34/31 32/37/34 98/38/35 66/39/36
f 5/34/31 66/39/36 120/40/37 59/41/38
f 5/34/31 59/41/38 117/42/39 65/35/32
f 6/43/40 66/44/36 98/45/35 33/46/41
f 6/43/40 33/46/41 100/47/42 62/48/43
f 6/43/40 62/48/43 119/49/44 57/50/45
f 6/43/40 57/50/45 120/51/37 66/44/36
f 7/52/46 33/53/47 98/54/48 32/55/49
f 7/52/46 32/55/49 99/56/50 37/57/51
f 7/52/46 37/57/51 103/58/52 36/59/53
f 7/52/46 36/59/53 102/60/54 35/61/55
f 7/52/46 35/61/55 101/62/56 34/63/57
f 7/52/46 34/63/57 100/64/58 33/53/47
f 8/65/59 43/66/60 105/67/61 38/68/62
f 8/65/59 38/68/62 104/69/63 39/70/64
f 8/65/59 39/70/64 106/71/65 40/72/66
f 8/65/59 40/72/66 107/73/67 41/74/68
f 8/65/59 41/74/68 108/75/69 42/76/70
f 8/65/59 42/76/70 109/77/71 43/66/60
f 9/78/72 43/79/73 109/7/7 48/6/6
f 9/78/72 48/6/6 115/5/5 50/80/74
f 9/78/72 50/80/74 110/27/27 44/26/26
f 9/78/72 44/26/26 105/33/30 43/79/73
f 10/81/75 41/82/76 107/23/23 49/22/22
f 10/81/75 49/22/22 114/21/21 51/83/77
f 10/81/75 51/83/77 111/3/3 45/2/2
f 10/81/75 45/2/2 108/9/9 41/82/76
f 11/84/78 64/85/79 102/86/80 36/87/81
f 11/84/78 36/87/81 103/88/82 67/89/83
f 11/84/78 67/89/83 121/90/84 56/91/85
f 11/84/78 56/91/85 118/92/86 64/85/79
f 12/93/87 76/94/88 125/95/89 69/96/90
f 12/93/87 69/96/90 126/97/91 80/98/92
f 12/93/87 80/98/92 120/51/37 57/50/45
f 12/93/87 57/50/45 119/49/44 76/94/88
f 13/99/93 61/100/94 116/101/95 63/102/96
f 13/99/93 63/102/96 101/103/97 35/104/98
f 13/99/93 35/104/98 102/86/80 64/85/79
f 13/99/93 64/85/79 118/92/86 61/100/94
f 14/105/99 60/106/100 121/90/84 67/89/83
f 14/105/99 67/89/83 103/88/82 37/107/101
f 14/105/99 37/107/101 99/36/33 65/35/32
f 14/105/99 65/35/32 117/42/39 60/106/100
f 15/108/102 68/109/103 127/110/104 83/111/105
f 15/108/102 83/111/105 115/5/5 55/4/4
f 15/108/102 55/4/4 111/3/3 78/112/106
f 15/108/102 78/112/106 124/113/107 68/109/103
f 16/114/108 82/115/109 127/110/104 68/109/103
f 16/114/108 68/109/103 124/113/107 74/116/110
f 16/114/108 74/116/110 118/92/86 56/91/85
f 16/114/108 56/91/85 121/90/84 82/115/109
f 17/117/111 80/118/92 126/119/91 71/120/112
f 17/117/111 71/120/112 123/121/113 81/122/114
f 17/117/111 81/122/114 117/42/39 59/41/38
f 17/117/111 59/41/38 120/40/37 80/118/92
f 18/123/115 81/122/114 123/121/113 72/124/116
f 18/123/115 72/124/116 127/110/104 82/115/109
f 18/123/115 82/115/109 121/90/84 60/106/100
f 18/123/115 60/106/100 117/42/39 81/122/114
f 19/125/117 75/126/118 122/127/119 70/128/120
f 19/125/117 70/128/120 125/95/89 76/94/88
f 19/125/117 76/94/88 119/49/44 58/129/121
f 19/125/117 58/129/121 116/101/95 75/126/118
f 20/130/122 62/48/43 100/47/42 34/131/123
f 20/130/122 34/131/123 101/103/97 63/102/96
f 20/130/122 63/102/96 116/101/95 58/129/121
f 20/130/122 58/129/121 119/49/44 62/48/43
f 21/132/124 69/96/90 125/95/89 79/133/125
f 21/132/124 79/133/125 112/14/14 54/13/13
f 21/132/124 54/13/13 113/12/12 85/134/126
f 21/132/124 85/134/126 126/97/91 69/96/90
f 22/135/127 70/128/120 122/127/119 77/136/128
f 22/135/127 77/136/128 114/21/21 53/20/20
f 22/135/127 53/20/20 112/14/14 79/133/125
f 22/135/127 79/133/125 125/95/89 70/128/120
f 23/137/129 71/120/112 126/119/91 85/138/126
f 23/137/129 85/138/126 113/29/12 52/28/28
f 23/137/129 52/28/28 110/27/27 84/139/130
f 23/137/129 84/139/130 123/121/113 71/120/112
f 24/140/131 50/80/74 115/5/5 83/111/105
f 24/140/131 83/111/105 127/110/104 72/124/116
f 24/140/131 72/124/116 123/121/113 84/139/130
f 24/140/131 84/139/130 110/27/27 50/80/74
f 25/141/132 51/83/77 114/21/21 77/136/128
f 25/141/132 77/136/128 122/127/119 73/142/133
f 25/141/132 73/142/133 124/113/107 78/112/106
f 25/141/132 78/112/106 111/3/3 51/83/77
f 26/143/134 74/116/110 124/113/107 73/142/133
f 26/143/134 73/142/133 122/127/119 75/126/118
f 26/143/134 75/126/118 116/101/95 61/100/94
f 26/143/134 61/100/94 118/92/86 74/116/110
f 27/144/135 91/145/136 133/146/137 97/147/138
f 27/144/135 97/147/138 132/148/139 87/149/140
f 27/144/135 87/149/140 129/150/141 93/151/142
f 27/144/135 93/151/142 128/152/143 91/145/136
f 28/153/144 89/154/145 134/155/146 94/156/147
f 28/153/144 94/156/147 133/146/137 91/145/136
f 28/153/144 91/145/136 128/152/143 88/157/148
f 28/153/144 88/157/148 130/158/149 89/154/145
f 29/159/150 87/149/140 132/148/139 95/160/151
f 29/159/150 95/160/151 135/161/152 86/162/153
f 29/159/150 86/162/153 131/163/154 90/164/155
f 29/159/150 90/164/155 129/150/141 87/149/140
f 30/165/156 96/166/157 135/167/158 95/168/159
f 30/165/156 95/168/159 132/169/160 97/170/161
f 30/165/156 97/170/161 133/171/162 94/172/163
f 30/165/156 94/172/163 134/173/164 96/166/157
f 31/174/165 92/175/166 131/163/154 86/162/153
f 31/174/165 86/162/153 135/161/152 96/176/167
f 31/174/165 96/176/167 134/177/146 89/178/145
f 31/174/165 89/178/145 130/179/149 92/175/166
