# Blender v2.79 (sub 0) OBJ File: 'LODs_biskupin_tower.blend'
# www.blender.org
mtllib LOD1_biskupin_tower_thatch.mtl
o LOD1_thatch_thatch_opacity_Plane.000
v -1.000000 -1.000000 0.225891
v 1.000000 -1.000000 0.225891
v -1.000000 -0.000000 0.000000
v 1.000000 -0.000000 0.000000
v -1.000000 -0.500000 0.225891
v 1.000000 -0.500000 0.225891
v 0.000000 -1.000000 0.225891
v 0.000000 -0.000000 0.000000
v 0.000000 -0.500000 0.225891
vt 0.500000 0.125053
vt 0.999929 0.125053
vt 0.999929 0.250035
vt 0.500000 0.250035
vt 0.500000 0.000071
vt 0.999929 0.000071
vt 0.000071 0.000071
vt 0.000071 0.125053
vt 0.000071 0.250035
vn -0.0098 0.2106 0.9775
vn 0.0000 0.2203 0.9754
vn 0.0000 0.4117 0.9113
vn 0.0000 0.0000 1.0000
usemtl thatch_opacity
s 1
f 9/1/1 6/2/2 4/3/3 8/4/3
f 7/5/4 2/6/4 6/2/2 9/1/1
f 1/7/4 7/5/4 9/1/1 5/8/2
f 5/8/2 9/1/1 8/4/3 3/9/3
