# Blender v2.79 (sub 0) OBJ File: 'LODs_biskupin_tower.blend'
# www.blender.org
mtllib LOD0_biskupin_tower_thatch.mtl
o LOD0_thatch_thatch_opacity_Plane.002
v 0.500000 -0.250000 0.112945
v 0.500000 -0.750000 0.225891
v -0.500000 -0.750000 0.225891
v -0.500000 -0.250000 0.112945
v -1.000000 -0.750000 0.225891
v 0.500000 -1.000000 0.225891
v 1.000000 -0.250000 0.112945
v -0.500000 -0.000000 0.000000
v -1.000000 -0.250000 0.112945
v 1.000000 -0.750000 0.225891
v -0.500000 -0.500000 0.197655
v -0.500000 -1.000000 0.225891
v 0.500000 -0.000000 0.000000
v 0.500000 -0.500000 0.197655
v 0.000000 -0.750000 0.225891
v 0.000000 -0.250000 0.112945
v -1.000000 -1.000000 0.225891
v 1.000000 -1.000000 0.225891
v -1.000000 -0.000000 0.000000
v 1.000000 -0.000000 0.000000
v -1.000000 -0.500000 0.197655
v 1.000000 -0.500000 0.197655
v 0.000000 -1.000000 0.225891
v 0.000000 -0.000000 0.000000
v 0.000000 -0.500000 0.197655
vt 0.749965 0.187544
vt 0.500000 0.187544
vt 0.500000 0.125053
vt 0.749965 0.125053
vt 0.999929 0.125053
vt 0.999929 0.187544
vt 0.999929 0.250035
vt 0.749965 0.250035
vt 0.500000 0.250035
vt 0.749965 0.062562
vt 0.500000 0.062562
vt 0.500000 0.000071
vt 0.749965 0.000071
vt 0.999929 0.000071
vt 0.999929 0.062562
vt 0.250035 0.062562
vt 0.000071 0.062562
vt 0.000071 0.000071
vt 0.250035 0.000071
vt 0.250035 0.125053
vt 0.000071 0.125053
vt 0.250035 0.187544
vt 0.000071 0.187544
vt 0.250035 0.250035
vt 0.000071 0.250035
vn 0.0000 0.3668 0.9303
vn 0.0000 0.2178 0.9760
vn 0.0000 0.4117 0.9113
vn 0.0000 0.0562 0.9984
vn 0.0000 0.0000 1.0000
usemtl thatch_opacity
s 1
f 1/1/1 16/2/1 25/3/2 14/4/2
f 1/1/1 14/4/2 22/5/2 7/6/1
f 1/1/1 7/6/1 20/7/3 13/8/3
f 1/1/1 13/8/3 24/9/3 16/2/1
f 2/10/4 15/11/4 23/12/5 6/13/5
f 2/10/4 6/13/5 18/14/5 10/15/4
f 2/10/4 10/15/4 22/5/2 14/4/2
f 2/10/4 14/4/2 25/3/2 15/11/4
f 3/16/4 5/17/4 17/18/5 12/19/5
f 3/16/4 12/19/5 23/12/5 15/11/4
f 3/16/4 15/11/4 25/3/2 11/20/2
f 3/16/4 11/20/2 21/21/2 5/17/4
f 4/22/1 9/23/1 21/21/2 11/20/2
f 4/22/1 11/20/2 25/3/2 16/2/1
f 4/22/1 16/2/1 24/9/3 8/24/3
f 4/22/1 8/24/3 19/25/3 9/23/1
