# Blender v2.79 (sub 0) OBJ File: 'road sign.blend'
# www.blender.org
mtllib bar.mtl
o Circle.004_Circle.005
v 0.110901 6.074378 0.192086
v 0.221802 6.074378 -0.000000
v 0.110901 6.074378 -0.192086
v -0.110902 6.074378 0.192086
v -0.000001 11.069256 0.000000
v -0.158754 0.569276 -0.274971
v -0.158754 0.569276 0.274971
v -0.221803 6.074378 -0.000000
v -0.317509 0.569276 -0.000000
v 0.317509 0.569276 -0.000000
v 0.158754 0.569276 0.274971
v 0.158754 0.569276 -0.274971
v -0.110902 6.074378 -0.192086
v 0.084654 11.039730 -0.146627
v 0.169309 11.039730 -0.000000
v 0.084654 11.039730 0.146627
v -0.084656 11.039730 0.146627
v -0.169311 11.039730 -0.000000
v -0.084656 11.039730 -0.146627
v 0.106051 11.010203 -0.183688
v 0.212103 11.010203 -0.000000
v 0.106051 11.010203 0.183688
v -0.106053 11.010203 0.183688
v -0.212105 11.010203 -0.000000
v -0.106053 11.010203 -0.183688
v 0.201759 0.000000 -0.349456
v 0.403518 0.000000 -0.000000
v 0.201759 0.000000 0.349456
v -0.201759 -0.000000 0.349456
v -0.403518 -0.000000 -0.000000
v -0.201759 -0.000000 -0.349456
v -0.000001 6.074378 -0.224101
v -0.125289 2.230190 -0.217007
v -0.194077 6.074378 -0.112050
v 0.194076 6.074378 -0.112050
v 0.125289 2.230190 -0.217007
v -0.000001 6.074378 0.224101
v 0.125289 2.230190 0.217007
v 0.194076 6.074378 0.112050
v -0.250578 2.230190 -0.000000
v -0.194077 6.074378 0.112050
v -0.125289 2.230190 0.217007
v 0.250578 2.230190 -0.000000
v -0.277820 0.569276 0.160400
v -0.277820 0.569276 -0.160400
v 0.000000 0.569276 -0.320799
v -0.000000 0.569276 0.320799
v 0.277820 0.569276 -0.160400
v 0.277820 0.569276 0.160400
v 0.063257 11.069256 -0.109566
v 0.126515 11.069256 0.000000
v 0.063257 11.069256 0.109566
v -0.063259 11.069256 0.109566
v -0.126517 11.069256 -0.000000
v -0.063259 11.069256 -0.109566
v -0.000001 11.039730 -0.171065
v 0.148145 11.039730 -0.085532
v 0.148145 11.039730 0.085532
v -0.000001 11.039730 0.171065
v -0.148147 11.039730 0.085532
v -0.148147 11.039730 -0.085532
v -0.000001 11.069256 -0.127827
v 0.110701 11.069256 -0.063914
v 0.110701 11.069256 0.063914
v -0.000001 11.069256 0.127827
v -0.110703 11.069256 0.063914
v -0.110703 11.069256 -0.063914
v 0.000000 -0.000000 -0.407699
v 0.353078 0.000000 -0.203850
v 0.353078 0.000000 0.203850
v 0.000000 -0.000000 0.407699
v -0.353078 -0.000000 0.203850
v -0.353078 -0.000000 -0.203850
v -0.219256 2.230190 -0.126587
v -0.219256 2.230190 0.126587
v -0.000000 2.230190 -0.253174
v 0.219255 2.230190 -0.126587
v 0.219255 2.230190 0.126587
v -0.000000 2.230190 0.253175
v 0.185590 11.010203 -0.107151
v -0.000001 11.010203 -0.214302
v 0.185590 11.010203 0.107151
v -0.000001 11.010203 0.214302
v -0.185592 11.010203 0.107151
v -0.185592 11.010203 -0.107151
vt 0.816764 0.554190
vt 0.805785 0.555247
vt 0.798044 0.219442
vt 0.810303 0.217165
vt 0.822627 0.215129
vt 0.827792 0.553233
vt 0.830818 0.987888
vt 0.820350 0.987962
vt 0.809883 0.988045
vt 0.838917 0.552476
vt 0.835082 0.213575
vt 0.847629 0.212493
vt 0.850115 0.551928
vt 0.851766 0.987789
vt 0.841291 0.987830
vt 0.861358 0.551596
vt 0.860230 0.211873
vt 0.872849 0.211708
vt 0.872624 0.551482
vt 0.872723 0.987757
vt 0.862244 0.987764
vt 0.928675 0.554157
vt 0.917511 0.553195
vt 0.922850 0.215505
vt 0.935092 0.217574
vt 0.947270 0.219870
vt 0.939834 0.555224
vt 0.936089 0.988045
vt 0.925351 0.987964
vt 0.914680 0.987891
vt 0.964273 0.954357
vt 0.969561 0.945198
vt 0.973526 0.949014
vt 0.974848 0.954357
vt 0.973526 0.959700
vt 0.969561 0.963516
vt 0.964273 0.965043
vt 0.958985 0.963516
vt 0.955019 0.959700
vt 0.953697 0.954357
vt 0.955019 0.949014
vt 0.958985 0.945198
vt 0.964273 0.943672
vt 0.888760 0.065559
vt 0.903702 0.066912
vt 0.898005 0.212717
vt 0.885451 0.211990
vt 0.873725 0.064935
vt 0.874926 0.014662
vt 0.892941 0.015711
vt 0.910812 0.017799
vt 0.947694 0.075443
vt 0.962089 0.079450
vt 0.933206 0.071826
vt 0.946071 0.025153
vt 0.963389 0.030536
vt 0.980598 0.036497
vt 0.906335 0.552445
vt 0.895133 0.551908
vt 0.910479 0.213887
vt 0.904143 0.987833
vt 0.893673 0.987791
vt 0.918530 0.068992
vt 0.928533 0.020927
vt 0.828322 0.067580
vt 0.843476 0.065912
vt 0.813184 0.070126
vt 0.801603 0.021675
vt 0.820100 0.018037
vt 0.838490 0.015757
vt 0.798091 0.073634
vt 0.783019 0.077623
vt 0.764351 0.032797
vt 0.783003 0.026852
vt 0.858621 0.065041
vt 0.856770 0.014655
vt 0.883889 0.551587
vt 0.883199 0.987766
vt 0.978426 0.954357
vt 0.976657 0.961507
vt 0.976657 0.947207
vt 0.979787 0.945400
vt 0.982003 0.954357
vt 0.979787 0.963314
vt 0.971349 0.942100
vt 0.964273 0.940057
vt 0.964273 0.936443
vt 0.973138 0.939002
vt 0.957196 0.942100
vt 0.951889 0.947207
vt 0.948758 0.945400
vt 0.955407 0.939002
vt 0.950119 0.954357
vt 0.951889 0.961507
vt 0.948758 0.963314
vt 0.946542 0.954357
vt 0.957196 0.966614
vt 0.964273 0.968657
vt 0.964273 0.972271
vt 0.955407 0.969712
vt 0.971349 0.966614
vt 0.973138 0.969712
vn 0.5000 0.0047 0.8660
vn 0.0000 0.0048 1.0000
vn -0.0000 0.0242 0.9997
vn 0.4999 0.0239 0.8658
vn 0.8658 0.0242 0.4999
vn 0.8660 0.0048 0.5000
vn 0.8660 0.0020 0.5000
vn 0.5000 0.0020 0.8660
vn 0.0000 0.0020 1.0000
vn 1.0000 0.0047 -0.0000
vn 0.9997 0.0239 0.0000
vn 0.8658 0.0242 -0.4999
vn 0.8660 0.0048 -0.5000
vn 0.8660 0.0020 -0.5000
vn 1.0000 0.0020 -0.0000
vn 0.5000 0.0047 -0.8660
vn 0.4999 0.0239 -0.8658
vn -0.0000 0.0242 -0.9997
vn 0.0000 0.0048 -1.0000
vn 0.0000 0.0020 -1.0000
vn 0.5000 0.0020 -0.8660
vn -0.5000 0.0047 0.8660
vn -0.8660 0.0048 0.5000
vn -0.8658 0.0242 0.4999
vn -0.4999 0.0239 0.8658
vn -0.5000 0.0020 0.8660
vn -0.8660 0.0020 0.5000
vn 0.0000 1.0000 0.0000
vn -0.4977 0.0958 -0.8620
vn -0.8620 0.0969 -0.4976
vn -0.8658 0.0242 -0.4999
vn -0.4999 0.0239 -0.8658
vn -0.0000 0.0969 -0.9953
vn -0.0000 0.1509 -0.9885
vn -0.4944 0.1494 -0.8563
vn -0.8561 0.1509 -0.4943
vn -0.4977 0.0958 0.8620
vn -0.0000 0.0969 0.9953
vn -0.8620 0.0969 0.4976
vn -0.8561 0.1509 0.4943
vn -0.4944 0.1494 0.8563
vn -0.0000 0.1509 0.9885
vn -1.0000 0.0047 -0.0000
vn -0.8660 0.0048 -0.5000
vn -0.9997 0.0239 0.0000
vn -1.0000 0.0020 -0.0000
vn -0.8660 0.0020 -0.5000
vn -0.9954 0.0958 -0.0000
vn -0.9888 0.1494 -0.0000
vn 0.9954 0.0958 -0.0000
vn 0.8620 0.0969 -0.4976
vn 0.8620 0.0969 0.4976
vn 0.8561 0.1509 0.4943
vn 0.9888 0.1494 -0.0000
vn 0.8561 0.1509 -0.4943
vn 0.4977 0.0958 0.8620
vn 0.4944 0.1494 0.8563
vn 0.4977 0.0958 -0.8620
vn 0.4944 0.1494 -0.8563
vn -0.5000 0.0047 -0.8660
vn -0.5000 0.0020 -0.8660
vn 0.2840 0.8231 -0.4918
vn 0.0000 0.8258 -0.5639
vn 0.2839 0.8231 -0.4918
vn 0.4884 0.8258 -0.2820
vn 0.5679 0.8231 0.0000
vn 0.4884 0.8258 0.2820
vn 0.2840 0.8231 0.4918
vn 0.0000 0.8258 0.5639
vn -0.2840 0.8231 0.4918
vn -0.2839 0.8231 0.4918
vn -0.4884 0.8258 0.2820
vn -0.5679 0.8231 0.0000
vn -0.4884 0.8258 -0.2820
vn -0.2840 0.8231 -0.4918
vn -0.2839 0.8231 -0.4918
usemtl road_sign
s 1
f 1/1/1 37/2/2 79/3/3 38/4/4
f 1/1/1 38/4/4 78/5/5 39/6/6
f 1/1/1 39/6/6 82/7/7 22/8/8
f 1/1/1 22/8/8 83/9/9 37/2/2
f 2/10/10 39/6/6 78/5/5 43/11/11
f 2/10/10 43/11/11 77/12/12 35/13/13
f 2/10/10 35/13/13 80/14/14 21/15/15
f 2/10/10 21/15/15 82/7/7 39/6/6
f 3/16/16 35/13/13 77/12/12 36/17/17
f 3/16/16 36/17/17 76/18/18 32/19/19
f 3/16/16 32/19/19 81/20/20 20/21/21
f 3/16/16 20/21/21 80/14/14 35/13/13
f 4/22/22 41/23/23 75/24/24 42/25/25
f 4/22/22 42/25/25 79/26/3 37/27/2
f 4/22/22 37/27/2 83/28/9 23/29/26
f 4/22/22 23/29/26 84/30/27 41/23/23
f 5/31/28 51/32/28 63/33/28 50/34/28
f 5/31/28 50/34/28 62/35/28 55/36/28
f 5/31/28 55/36/28 67/37/28 54/38/28
f 5/31/28 54/38/28 66/39/28 53/40/28
f 5/31/28 53/40/28 65/41/28 52/42/28
f 5/31/28 52/42/28 64/43/28 51/32/28
f 6/44/29 45/45/30 74/46/31 33/47/32
f 6/44/29 33/47/32 76/18/18 46/48/33
f 6/44/29 46/48/33 68/49/34 31/50/35
f 6/44/29 31/50/35 73/51/36 45/45/30
f 7/52/37 47/53/38 79/26/3 42/25/25
f 7/52/37 42/25/25 75/24/24 44/54/39
f 7/52/37 44/54/39 72/55/40 29/56/41
f 7/52/37 29/56/41 71/57/42 47/53/38
f 8/58/43 34/59/44 74/46/31 40/60/45
f 8/58/43 40/60/45 75/24/24 41/23/23
f 8/58/43 41/23/23 84/30/27 24/61/46
f 8/58/43 24/61/46 85/62/47 34/59/44
f 9/63/48 44/54/39 75/24/24 40/60/45
f 9/63/48 40/60/45 74/46/31 45/45/30
f 9/63/48 45/45/30 73/51/36 30/64/49
f 9/63/48 30/64/49 72/55/40 44/54/39
f 10/65/50 48/66/51 77/12/12 43/11/11
f 10/65/50 43/11/11 78/5/5 49/67/52
f 10/65/50 49/67/52 70/68/53 27/69/54
f 10/65/50 27/69/54 69/70/55 48/66/51
f 11/71/56 49/67/52 78/5/5 38/4/4
f 11/71/56 38/4/4 79/3/3 47/72/38
f 11/71/56 47/72/38 71/73/42 28/74/57
f 11/71/56 28/74/57 70/68/53 49/67/52
f 12/75/58 46/48/33 76/18/18 36/17/17
f 12/75/58 36/17/17 77/12/12 48/66/51
f 12/75/58 48/66/51 69/70/55 26/76/59
f 12/75/58 26/76/59 68/49/34 46/48/33
f 13/77/60 32/19/19 76/18/18 33/47/32
f 13/77/60 33/47/32 74/46/31 34/59/44
f 13/77/60 34/59/44 85/62/47 25/78/61
f 13/77/60 25/78/61 81/20/20 32/19/19
f 14/79/62 56/80/63 62/35/63 50/34/64
f 14/79/62 50/34/64 63/33/65 57/81/65
f 14/79/62 57/81/65 80/82/65 20/83/62
f 14/79/62 20/83/62 81/84/63 56/80/63
f 15/85/66 57/81/65 63/33/65 51/32/66
f 15/85/66 51/32/66 64/43/67 58/86/67
f 15/85/66 58/86/67 82/87/67 21/88/66
f 15/85/66 21/88/66 80/82/65 57/81/65
f 16/89/68 58/86/67 64/43/67 52/42/68
f 16/89/68 52/42/68 65/41/69 59/90/69
f 16/89/68 59/90/69 83/91/69 22/92/68
f 16/89/68 22/92/68 82/87/67 58/86/67
f 17/93/70 59/90/69 65/41/69 53/40/71
f 17/93/70 53/40/71 66/39/72 60/94/72
f 17/93/70 60/94/72 84/95/72 23/96/70
f 17/93/70 23/96/70 83/91/69 59/90/69
f 18/97/73 60/94/72 66/39/72 54/38/73
f 18/97/73 54/38/73 67/37/74 61/98/74
f 18/97/73 61/98/74 85/99/74 24/100/73
f 18/97/73 24/100/73 84/95/72 60/94/72
f 19/101/75 61/98/74 67/37/74 55/36/76
f 19/101/75 55/36/76 62/35/63 56/80/63
f 19/101/75 56/80/63 81/84/63 25/102/75
f 19/101/75 25/102/75 85/99/74 61/98/74
