# Blender v2.79 (sub 0) OBJ File: 'road sign.blend'
# www.blender.org
mtllib board.mtl
o Circle.008_Circle.009
v -0.130633 0.513704 -2.837217
v -0.055489 0.589064 -2.920266
v 0.130633 0.513704 -2.865561
v 0.055489 0.589063 -2.932149
v -0.130633 -0.513704 -2.842091
v -0.055682 -0.589063 -2.927495
v 0.130633 -0.513704 -2.875482
v 0.055682 -0.589063 -2.941887
v -0.130633 0.513704 2.863746
v -0.055489 0.589064 2.926148
v 0.130633 0.513704 2.824035
v 0.055489 0.589064 2.909105
v -0.130633 -0.513704 2.883257
v -0.055453 -0.589063 2.950408
v 0.130633 -0.513704 2.849280
v 0.055453 -0.589063 2.936167
vt 0.039866 0.665040
vt 0.041490 0.654460
vt 0.598391 0.654461
vt 0.597258 0.665043
vt 0.025541 0.539458
vt 0.036199 0.539241
vt 0.038825 0.651561
vt 0.028123 0.651774
vt 0.047197 0.546359
vt 0.592989 0.546363
vt 0.592042 0.644314
vt 0.049603 0.644311
vt 0.572442 0.984230
vt 0.026589 0.984230
vt 0.028449 0.886277
vt 0.571977 0.886277
vt 0.612231 0.651633
vt 0.601591 0.651530
vt 0.602559 0.539209
vt 0.613264 0.539315
vt 0.597948 0.525612
vt 0.599320 0.536229
vt 0.038913 0.536211
vt 0.037555 0.525634
vt 0.043957 0.515485
vt 0.589805 0.515479
vt 0.589341 0.675188
vt 0.045814 0.675186
vt 0.623998 0.546647
vt 0.623006 0.644595
vt 0.018556 0.644932
vt 0.016200 0.546990
vn 0.0000 1.0000 -0.0000
vn 0.1396 0.0216 0.9900
vn 1.0000 0.0000 0.0000
vn -1.0000 -0.0000 -0.0000
vn -0.1174 0.0072 -0.9931
vn 0.0000 -1.0000 0.0000
vn -0.7085 -0.7057 0.0000
vn 0.7085 -0.7057 0.0000
vn -0.7081 0.7061 -0.0000
vn 0.7081 0.7061 -0.0000
vn -0.7466 0.0037 -0.6652
vn 0.6632 0.0067 -0.7484
vn -0.6528 0.0150 0.7574
vn 0.7528 0.0156 0.6581
usemtl road_sign
s 1
f 10/1/1 12/2/1 4/3/1 2/4/1
f 14/5/2 16/6/2 12/7/2 10/8/2
f 15/9/3 7/10/3 3/11/3 11/12/3
f 5/13/4 13/14/4 9/15/4 1/16/4
f 2/17/5 4/18/5 8/19/5 6/20/5
f 6/21/6 8/22/6 16/23/6 14/24/6
f 13/25/7 5/26/7 6/21/7 14/24/7
f 7/10/8 15/9/8 16/23/8 8/22/8
f 1/27/9 9/28/9 10/1/9 2/4/9
f 11/12/10 3/11/10 4/3/10 12/2/10
f 5/29/11 1/30/11 2/17/11 6/20/11
f 3/11/12 7/10/12 8/19/12 4/18/12
f 9/31/13 13/32/13 14/5/13 10/8/13
f 15/9/14 11/12/14 12/7/14 16/6/14
