# Blender v2.79 (sub 0) OBJ File: 'road sign.blend'
# www.blender.org
mtllib plank2.mtl
o Circle.007_Circle.008
v 0.130632 -0.512999 -2.813259
v 0.055395 -0.589056 -2.828933
v -0.130633 -0.512997 -2.779451
v -0.055395 -0.589056 -2.814615
v 0.130632 0.513045 -2.803308
v 0.055321 0.589070 -2.819215
v -0.130633 0.513026 -2.774565
v -0.055320 0.589070 -2.807367
v -0.130633 0.359707 2.990609
v -0.055488 0.433497 3.039065
v 0.130632 0.359713 2.950384
v 0.055489 0.433497 3.022022
v -0.130633 -0.359787 3.009158
v -0.055395 -0.433484 3.063318
v 0.130632 -0.359820 2.974388
v 0.055395 -0.433484 3.049092
v -0.055418 0.000007 -3.555503
v -0.130633 0.000007 -3.424298
v 0.055417 0.000007 -3.570474
v 0.130633 0.000007 -3.459435
v -0.055734 0.000007 3.135252
v -0.130633 0.000007 3.070864
v 0.055736 0.000007 3.117286
v 0.130632 0.000007 3.028993
vt 0.680037 0.250470
vt 0.674273 0.259616
vt 0.602365 0.202958
vt 0.608163 0.193848
vt 0.047840 0.230525
vt 0.598906 0.212821
vt 0.661562 0.262168
vt 0.046232 0.264355
vt 0.026040 0.264812
vt 0.036047 0.264487
vt 0.039945 0.304973
vt 0.028995 0.305578
vt 0.025991 0.224342
vt 0.036906 0.224259
vt 0.598371 0.311949
vt 0.050452 0.298328
vt 0.572471 0.773501
vt 0.021169 0.744226
vt 0.016200 0.709779
vt 0.635229 0.726243
vt 0.024761 0.675701
vt 0.574606 0.675703
vt 0.598562 0.192108
vt 0.600263 0.202610
vt 0.040591 0.220594
vt 0.038898 0.210090
vt 0.041683 0.318843
vt 0.043567 0.308319
vt 0.599825 0.322149
vt 0.598435 0.332657
vt 0.607829 0.330749
vt 0.601901 0.321784
vt 0.674275 0.264653
vt 0.680037 0.273791
vt 0.043542 0.199810
vt 0.594699 0.182103
vt 0.594869 0.342703
vt 0.045856 0.329063
vt 0.678840 0.288348
vt 0.616016 0.337810
vt 0.017205 0.265307
vt 0.016200 0.230701
vt 0.616300 0.186615
vt 0.678880 0.235896
vt 0.018934 0.300191
vn -0.0819 -0.7802 -0.6201
vn 1.0000 -0.0000 0.0000
vn 0.1519 0.2131 0.9651
vn 0.1415 -0.1580 0.9772
vn -1.0000 -0.0000 -0.0000
vn 0.0034 -0.9996 0.0265
vn 0.0035 0.9996 0.0266
vn -0.0746 0.7841 -0.6161
vn 0.7089 -0.7051 0.0187
vn -0.7065 -0.7075 0.0187
vn 0.7089 0.7050 0.0188
vn -0.7065 0.7075 0.0188
vn -0.7310 0.5359 -0.4224
vn 0.6769 -0.5764 -0.4578
vn -0.6522 -0.1262 0.7475
vn 0.7536 0.1410 0.6420
vn -0.7350 -0.5307 -0.4221
vn 0.6761 0.5801 -0.4542
vn -0.6436 0.1664 0.7470
vn 0.7541 -0.1008 0.6490
usemtl road_sign
s 1
f 17/1/1 19/2/1 2/3/1 4/4/1
f 15/5/2 1/6/2 20/7/2 24/8/2
f 21/9/3 23/10/3 12/11/3 10/12/3
f 14/13/4 16/14/4 23/10/4 21/9/4
f 24/8/2 20/7/2 5/15/2 11/16/2
f 3/17/5 13/18/5 22/19/5 18/20/5
f 18/20/5 22/19/5 9/21/5 7/22/5
f 4/23/6 2/24/6 16/25/6 14/26/6
f 10/27/7 12/28/7 6/29/7 8/30/7
f 8/31/8 6/32/8 19/33/8 17/34/8
f 1/6/9 15/5/9 16/25/9 2/24/9
f 13/35/10 3/36/10 4/23/10 14/26/10
f 11/16/11 5/15/11 6/29/11 12/28/11
f 7/37/12 9/38/12 10/27/12 8/30/12
f 18/39/13 7/40/13 8/31/13 17/34/13
f 20/7/14 1/6/14 2/3/14 19/2/14
f 22/41/15 13/42/15 14/13/15 21/9/15
f 24/8/16 11/16/16 12/11/16 23/10/16
f 3/43/17 18/44/17 17/1/17 4/4/17
f 5/15/18 20/7/18 19/33/18 6/32/18
f 9/45/19 22/41/19 21/9/19 10/12/19
f 15/5/20 24/8/20 23/10/20 16/14/20
