# Blender v2.79 (sub 0) OBJ File: 'road sign.blend'
# www.blender.org
mtllib plank1.mtl
o Circle.005_Circle.006
v -0.130633 0.498051 -2.679535
v -0.055376 0.573410 -2.717722
v 0.130633 0.498051 -2.707613
v 0.055375 0.573410 -2.729582
v -0.130633 -0.529357 -2.681578
v -0.055469 -0.604716 -2.724966
v 0.130632 -0.529357 -2.714689
v 0.055468 -0.604716 -2.739304
v -0.130633 0.498051 2.967830
v -0.055376 0.573410 3.128686
v 0.130632 0.498051 2.928554
v 0.055375 0.573410 3.111678
v -0.130633 -0.529357 3.004798
v -0.055342 -0.604716 3.152949
v 0.130632 -0.529357 2.971242
v 0.055341 -0.604716 3.138738
v -0.055420 -0.019962 -3.342012
v -0.130633 -0.018067 -3.221825
v 0.055419 -0.019962 -3.355108
v 0.130632 -0.018060 -3.252413
v -0.055302 0.082512 2.675346
v -0.130633 0.080736 2.581648
v 0.055300 0.082512 2.659753
v 0.130632 0.080741 2.545170
vt 0.046348 0.374487
vt 0.594054 0.389069
vt 0.605897 0.436267
vt 0.058346 0.438366
vt 0.558339 0.871966
vt 0.016200 0.871967
vt 0.056543 0.813801
vt 0.609845 0.823220
vt 0.029886 0.365130
vt 0.037112 0.365034
vt 0.045354 0.437763
vt 0.034608 0.436566
vt 0.019724 0.774014
vt 0.558144 0.774014
vt 0.590610 0.483181
vt 0.037300 0.483181
vt 0.595601 0.368155
vt 0.596698 0.378878
vt 0.030487 0.363796
vt 0.029401 0.353098
vt 0.026445 0.491878
vt 0.019640 0.490613
vt 0.618164 0.436585
vt 0.611963 0.436371
vt 0.601341 0.384666
vt 0.610763 0.382273
vt 0.017650 0.504511
vt 0.019320 0.493638
vt 0.592767 0.493637
vt 0.591603 0.504510
vt 0.626285 0.437059
vt 0.615033 0.491071
vt 0.606696 0.491163
vt 0.043946 0.343216
vt 0.591695 0.357791
vt 0.024442 0.434580
vt 0.023288 0.375390
vt 0.587853 0.514966
vt 0.033442 0.514966
vt 0.619226 0.382682
vt 0.597448 0.488216
vt 0.016200 0.478911
vn 1.0000 0.0000 -0.0000
vn -1.0000 0.0000 -0.0000
vn 0.1099 0.5678 0.8158
vn 0.0000 -1.0000 0.0000
vn 0.1076 -0.6739 0.7309
vn -0.0848 -0.7229 -0.6857
vn 0.0000 1.0000 0.0000
vn -0.7335 0.4925 -0.4684
vn 0.6909 -0.5241 -0.4980
vn -0.7077 -0.7065 0.0000
vn 0.7077 -0.7065 0.0000
vn -0.7209 0.3953 0.5692
vn 0.7424 -0.4535 0.4930
vn -0.7076 0.7066 0.0000
vn 0.7076 0.7066 0.0000
vn -0.7462 -0.4833 -0.4578
vn 0.6788 0.5330 -0.5052
vn -0.6663 -0.5062 0.5476
vn 0.7824 0.3563 0.5107
vn -0.0773 0.7230 -0.6865
usemtl road_sign
s 1
f 15/1/1 7/2/1 20/3/1 24/4/1
f 5/5/2 13/6/2 22/7/2 18/8/2
f 14/9/3 16/10/3 23/11/3 21/12/3
f 18/8/2 22/7/2 9/13/2 1/14/2
f 24/4/1 20/3/1 3/15/1 11/16/1
f 6/17/4 8/18/4 16/19/4 14/20/4
f 21/12/5 23/11/5 12/21/5 10/22/5
f 17/23/6 19/24/6 8/25/6 6/26/6
f 10/27/7 12/28/7 4/29/7 2/30/7
f 18/31/8 1/32/8 2/33/8 17/23/8
f 20/3/9 7/2/9 8/25/9 19/24/9
f 13/34/10 5/35/10 6/17/10 14/20/10
f 7/2/11 15/1/11 16/19/11 8/18/11
f 22/36/12 13/37/12 14/9/12 21/12/12
f 24/4/13 11/16/13 12/21/13 23/11/13
f 1/38/14 9/39/14 10/27/14 2/30/14
f 11/16/15 3/15/15 4/29/15 12/28/15
f 5/40/16 18/31/16 17/23/16 6/26/16
f 3/15/17 20/3/17 19/24/17 4/41/17
f 9/42/18 22/36/18 21/12/18 10/22/18
f 15/1/19 24/4/19 23/11/19 16/10/19
f 2/33/20 4/41/20 19/24/20 17/23/20
