# Blender v2.79 (sub 0) OBJ File: 'road sign.blend'
# www.blender.org
mtllib plank3.mtl
o Circle.006_Circle.007
v -0.130633 0.238399 -2.558609
v -0.055489 0.282703 -2.641658
v 0.130633 0.238400 -2.586952
v 0.055489 0.282703 -2.653541
v -0.130633 -0.365610 -2.563482
v -0.055682 -0.409914 -2.648886
v 0.130633 -0.365610 -2.596874
v 0.055682 -0.409914 -2.663279
v -0.130633 0.238399 2.742124
v -0.055489 0.282703 2.804526
v 0.130633 0.238400 2.702413
v 0.055489 0.282703 2.787483
v -0.130633 -0.365610 3.161867
v -0.055453 -0.409914 3.229017
v 0.130633 -0.365610 3.127889
v 0.055453 -0.409914 3.214777
v -0.130633 0.127222 -3.505238
v -0.055532 0.127220 -3.589012
v 0.130633 0.127208 -3.534511
v 0.055532 0.127212 -3.601460
v -0.130633 0.127222 2.824991
v -0.055481 0.127213 2.889248
v 0.130633 0.127208 2.786336
v 0.055481 0.127201 2.872835
vt 0.069312 0.115828
vt 0.070952 0.105193
vt 0.582858 0.104945
vt 0.582463 0.115404
vt 0.576327 0.096656
vt 0.667200 0.086445
vt 0.674595 0.093068
vt 0.674691 0.104275
vt 0.585070 0.019881
vt 0.586410 0.030424
vt 0.030117 0.029239
vt 0.028791 0.018738
vt 0.036126 0.009207
vt 0.575721 0.010316
vt 0.579142 0.039952
vt 0.039605 0.038803
vt 0.575241 0.124659
vt 0.075616 0.124659
vt 0.079690 0.096247
vt 0.071719 0.085723
vt 0.051641 0.111467
vt 0.045727 0.099955
vt 0.051512 0.092616
vt 0.060469 0.106746
vt 0.060958 0.087539
vt 0.028191 0.036743
vt 0.069751 0.101899
vt 0.664462 0.135138
vt 0.067805 0.135138
vt 0.016200 0.051765
vt 0.018989 0.041796
vt 0.586819 0.033096
vt 0.675720 0.082338
vt 0.591563 0.011906
vt 0.677831 0.062327
vt 0.679900 0.072699
vt 0.590877 0.023350
vt 0.575696 0.181590
vt 0.036053 0.181590
vt 0.667344 0.112822
vn 0.0000 1.0000 0.0000
vn 0.3840 0.9143 -0.1286
vn -0.0177 0.9867 -0.1619
vn 0.0000 -1.0000 -0.0000
vn -0.5083 -0.8612 0.0000
vn 0.5083 -0.8612 0.0000
vn -0.5079 0.8614 -0.0000
vn 0.5079 0.8614 -0.0000
vn 1.0000 0.0000 0.0000
vn -0.6565 0.4014 0.6387
vn 0.6238 0.4322 0.6513
vn 0.1311 0.4757 0.8698
vn -1.0000 0.0000 -0.0000
vn 0.7465 0.3566 0.5618
vn -0.4944 0.4773 0.7265
vn 0.5660 -0.7226 -0.3968
vn -0.6249 -0.6848 -0.3749
vn -0.0598 -0.8665 -0.4956
vn 0.1159 0.5322 0.8386
vn -0.4079 0.9041 -0.1273
usemtl road_sign
s 1
f 10/1/1 12/2/1 4/3/1 2/4/1
f 3/5/2 19/6/2 20/7/2 4/3/2
f 2/4/3 4/3/3 20/7/3 18/8/3
f 6/9/4 8/10/4 16/11/4 14/12/4
f 13/13/5 5/14/5 6/9/5 14/12/5
f 7/15/6 15/16/6 16/11/6 8/10/6
f 1/17/7 9/18/7 10/1/7 2/4/7
f 11/19/8 3/5/8 4/3/8 12/2/8
f 23/20/9 19/6/9 3/5/9 11/19/9
f 9/21/10 21/22/10 22/23/10 10/24/10
f 15/16/11 23/20/11 24/25/11 16/26/11
f 22/23/12 24/25/12 12/27/12 10/24/12
f 17/28/13 21/29/13 9/18/13 1/17/13
f 23/20/14 11/19/14 12/27/14 24/25/14
f 21/22/15 13/30/15 14/31/15 22/23/15
f 19/6/16 7/15/16 8/32/16 20/33/16
f 5/34/17 17/35/17 18/36/17 6/37/17
f 20/33/18 8/32/18 6/37/18 18/36/18
f 5/38/13 13/39/13 21/29/13 17/28/13
f 15/16/9 7/15/9 19/6/9 23/20/9
f 14/31/19 16/26/19 24/25/19 22/23/19
f 17/40/20 1/17/20 2/4/20 18/8/20
