# Blender v2.79 (sub 0) OBJ File: 'benches.blend'
# www.blender.org
mtllib bench_big.mtl
o Bench_Big_Cube.001
v -0.020249 3.597815 7.487090
v 0.017270 4.016318 7.452684
v -1.297851 3.599012 7.547012
v -1.398785 3.951164 7.449226
v 0.000191 3.538660 -7.276730
v 0.020130 4.074687 -7.222916
v -1.254656 3.523117 -7.509721
v -1.376637 3.912822 -7.448942
v 1.273865 3.611812 7.214017
v 1.264509 3.977816 7.225962
v 0.119067 3.537712 7.349743
v 0.033640 3.990336 7.296001
v 1.366813 3.659722 -7.389698
v 1.304045 4.019618 -7.379264
v 0.166887 3.604033 -7.406789
v 0.017025 4.008246 -7.387680
v -0.206574 0.478551 6.149695
v 0.159429 0.488744 6.160934
v -0.158665 0.388178 -6.175671
v 0.201231 0.450946 -6.165237
v -0.270316 1.632003 5.200975
v -0.224712 1.596230 -5.073091
v 0.187095 1.735417 -5.092992
v 0.174715 1.724008 5.180226
v -0.166070 0.402148 -5.090816
v -0.199169 0.464582 5.183662
v 0.165893 0.482900 5.194106
v 0.194768 0.456791 -5.079587
v 0.194518 1.210761 -6.170206
v -0.191850 1.103221 -6.185856
v 0.166871 1.221405 6.149720
v -0.250965 1.174406 6.180923
v 0.171130 1.219760 5.185864
v 0.190233 1.212412 -5.087509
v -0.201043 1.114270 -5.080246
v -0.241751 1.163299 5.194025
v -0.842658 0.000000 5.518996
v -0.891095 0.000000 5.100493
v 0.806715 0.000000 5.517799
v 0.937019 0.000000 5.165647
v -0.675477 3.566355 5.578150
v -0.695415 3.543765 5.042123
v 0.579371 3.664160 5.593693
v 0.701352 3.638646 5.203988
v -0.207290 0.000000 5.518576
v 0.174819 0.000000 5.518219
v 0.205842 0.000000 5.141828
v -0.174898 0.000000 5.124310
v -0.693511 1.203220 5.080994
v -0.661899 1.207143 5.538855
v 0.716006 1.251341 5.178618
v 0.607824 1.243675 5.543699
v -0.178537 1.220695 5.116549
v 0.201071 1.233687 5.142870
v -0.217973 1.219824 5.540520
v 0.163958 1.230962 5.541998
v 0.822121 0.000000 -5.402666
v 0.870557 0.000000 -5.071215
v -0.827253 0.000000 -5.401719
v -0.957557 0.000000 -5.122816
v 0.654939 3.566355 -5.449517
v 0.674877 3.543765 -5.024986
v -0.599909 3.664159 -5.461826
v -0.721890 3.638646 -5.153182
v 0.186752 0.000000 -5.402334
v -0.195357 0.000000 -5.402050
v -0.226380 0.000000 -5.103951
v 0.154360 0.000000 -5.090077
v 0.672973 1.203220 -5.055771
v 0.641361 1.207143 -5.418395
v -0.736544 1.251341 -5.133089
v -0.628362 1.243675 -5.422231
v 0.157999 1.220695 -5.083930
v -0.221609 1.233687 -5.104777
v 0.197435 1.219824 -5.419713
v -0.184496 1.230962 -5.420883
v 0.134786 1.519860 5.016818
v 0.145949 1.754372 5.136204
v 0.028061 1.868730 5.138315
v -0.091435 1.725144 5.168673
v -0.203831 1.566133 5.068244
v -0.045925 1.523340 5.077883
v 0.279169 3.371092 1.554407
v 0.253094 3.541708 1.629510
v 0.041947 3.392167 1.432064
v 0.021491 3.647459 1.631989
v -0.082104 3.429954 1.477849
v 0.176349 3.681584 1.647094
v -0.100894 1.578905 -5.140245
v -0.127079 1.813417 -5.257257
v -0.010406 1.927775 -5.274274
v 0.104285 1.784190 -5.319514
v 0.228490 1.625178 -5.234119
v 0.070634 1.582386 -5.223693
v -0.150196 3.430139 -1.661834
v -0.133837 3.600755 -1.739634
v 0.100604 3.451213 -1.570503
v 0.095589 3.706505 -1.771409
v 0.217862 3.489000 -1.631622
v -0.059935 3.740630 -1.766791
v 0.144677 3.382288 -0.553153
v 0.024739 3.808988 -0.570433
v 1.323679 3.446546 -0.612553
v 1.285697 3.809276 -0.601333
v -1.284075 3.442699 2.745037
v -1.391764 3.807590 2.726851
v -0.013804 3.448330 2.831881
v 0.018168 3.904220 2.841646
vt 0.482784 0.732217
vt 0.482784 0.794170
vt 0.254568 0.794170
vt 0.254568 0.732217
vt 0.254569 2.664415
vt 0.254569 2.602462
vt 0.482785 2.602462
vt 0.482785 2.664415
vt 0.191136 -0.003321
vt 0.191136 0.035469
vt 0.048248 0.035469
vt 0.048248 -0.003321
vt 0.048248 1.167657
vt 0.048248 0.642012
vt 0.191136 0.642236
vt 0.191136 1.167657
vt 0.048248 1.206446
vt 0.191136 1.206446
vt 0.227844 1.167656
vt 0.227844 0.642242
vt 0.402035 -0.073259
vt 0.402035 0.095868
vt 0.354777 0.096009
vt 0.354777 -0.074810
vt 0.354777 0.122139
vt 0.402035 0.123701
vt 0.477844 1.575859
vt 0.441136 1.575860
vt 0.441136 1.400800
vt 0.477844 1.400851
vt 0.477844 0.618680
vt 0.441136 0.618731
vt 0.441136 0.570625
vt 0.477844 0.570625
vt 0.934555 1.366965
vt 0.878163 1.367703
vt 0.878461 0.587714
vt 0.934556 0.588448
vt 0.339966 0.083863
vt 0.470002 0.083863
vt 0.470002 0.131970
vt 0.340105 0.131817
vt 0.402035 0.880683
vt 0.354777 0.879189
vt 0.251214 0.131713
vt 0.340707 0.914191
vt 0.251214 0.914296
vt 0.402035 0.907780
vt 0.354777 0.904613
vt 0.402035 1.075875
vt 0.354777 1.074402
vt 0.878097 1.543801
vt 0.794839 1.543801
vt 0.794839 1.368792
vt 0.470003 0.914039
vt 0.794839 0.586620
vt 0.794839 0.411612
vt 0.878538 0.411612
vt 0.356780 1.575860
vt 0.441136 1.614649
vt 0.355989 1.614649
vt 0.470003 0.996086
vt 0.340837 0.996086
vt 0.441136 0.531836
vt 0.356211 0.570625
vt 0.355537 0.531836
vt 0.163917 0.134724
vt 0.226280 0.134724
vt 0.226280 0.343141
vt 0.163917 0.344963
vt 0.264569 0.343142
vt 0.264568 0.134724
vt 0.343846 0.134724
vt 0.343798 0.342178
vt 0.334303 0.113619
vt 0.338157 0.134724
vt 0.244882 0.134724
vt 0.244882 0.113619
vt 0.500037 0.771843
vt 0.244883 0.771843
vt 0.244883 0.750738
vt 0.500037 0.750738
vt 0.754984 0.331274
vt 0.829294 0.332493
vt 0.754984 0.740471
vt 0.893236 0.333523
vt 0.967545 0.334695
vt 0.967545 0.740471
vt 0.500036 0.113619
vt 0.500036 0.134724
vt 0.406761 0.134724
vt 0.410615 0.113619
vt 0.829478 0.124456
vt 0.754984 0.124456
vt 0.562400 0.341542
vt 0.500037 0.340502
vt 0.562400 0.134724
vt 0.967545 0.124456
vt 0.893051 0.124456
vt 0.264570 0.750738
vt 0.562401 0.750738
vt 0.226281 0.750738
vt 0.163917 0.750738
vt 0.402205 0.341467
vt 0.402156 0.134724
vt 0.481434 0.134724
vt 0.481434 0.340502
vt 0.296352 0.311868
vt 0.405626 0.312415
vt 0.409998 0.351883
vt 0.293924 0.351307
vt 0.401766 0.477434
vt 0.293924 0.474519
vt 0.402862 0.184868
vt 0.299777 0.187368
vt 0.003761 0.134724
vt 0.066124 0.134724
vt 0.066124 0.343141
vt 0.003761 0.344963
vt 0.104413 0.343142
vt 0.104412 0.134724
vt 0.183690 0.134724
vt 0.183642 0.342178
vt 0.174147 0.113619
vt 0.178001 0.134724
vt 0.084726 0.134724
vt 0.084726 0.113619
vt 0.339881 0.771843
vt 0.084727 0.771843
vt 0.084727 0.750738
vt 0.339881 0.750738
vt 0.481435 0.750738
vt 0.339880 0.113619
vt 0.339880 0.134724
vt 0.246605 0.134724
vt 0.250459 0.113619
vt 0.669321 0.124456
vt 0.669137 0.332493
vt 0.594828 0.331274
vt 0.594828 0.124456
vt 0.402244 0.341542
vt 0.339880 0.340502
vt 0.402244 0.134724
vt 0.807389 0.124456
vt 0.807389 0.334695
vt 0.733080 0.333523
vt 0.732895 0.124456
vt 0.104413 0.750738
vt 0.402244 0.750738
vt 0.066125 0.750738
vt 0.003761 0.750738
vt 0.242049 0.341467
vt 0.242000 0.134724
vt 0.321278 0.134724
vt 0.321278 0.340502
vt 0.136196 0.311868
vt 0.245469 0.312415
vt 0.249842 0.351883
vt 0.133768 0.351307
vt 0.241610 0.477434
vt 0.133767 0.474519
vt 0.242706 0.184868
vt 0.139621 0.187368
vt 0.901532 1.271236
vt 0.901658 0.998223
vt 0.878579 0.998147
vt 0.878453 1.271160
vt 0.855374 1.271084
vt 0.855500 0.998070
vt 0.832421 0.997994
vt 0.832295 1.271008
vt 0.809216 1.270931
vt 0.809343 0.997918
vt 0.786264 0.997841
vt 0.786138 1.270855
vt 0.763185 0.997765
vt 0.763059 1.270779
vt 0.782723 0.442095
vt 0.755266 0.429294
vt 0.804886 0.399156
vt 0.860100 0.420264
vt 0.855424 0.445849
vt 0.848369 0.399156
vt 0.782044 0.463411
vt 0.813943 0.427264
vt 0.863384 0.474712
vt 0.880527 0.429455
vt 0.816855 0.491562
vt 0.756621 0.427264
vt 0.681404 0.835631
vt 0.681530 0.562618
vt 0.658451 0.562542
vt 0.658325 0.835555
vt 0.635246 0.835479
vt 0.635372 0.562465
vt 0.612294 0.562389
vt 0.612167 0.835402
vt 0.589089 0.835326
vt 0.589215 0.562313
vt 0.566136 0.562236
vt 0.566010 0.835250
vt 0.543057 0.562160
vt 0.542931 0.835174
vt 0.562595 0.006490
vt 0.535138 -0.006311
vt 0.584758 -0.036449
vt 0.639972 -0.015341
vt 0.635296 0.010244
vt 0.628241 -0.036449
vt 0.561916 0.027806
vt 0.593815 -0.008341
vt 0.643257 0.039107
vt 0.660400 -0.006151
vt 0.596727 0.055957
vt 0.536493 -0.008341
vt 0.594828 0.740471
vt 0.807388 0.740471
vt 0.321279 0.750738
vt 0.011540 0.641815
vt 0.011540 1.167657
vt 0.684555 0.609755
vt 0.684555 1.135598
vt 0.544839 1.135598
vt 0.544839 0.610183
vt 0.254568 1.367356
vt 0.482784 1.362331
vt 0.684556 0.003408
vt 0.544839 0.003408
vt 0.227844 0.035469
vt 0.011540 0.035469
vt 0.975257 0.762109
vt 0.975257 1.338820
vt 0.752107 1.332286
vt 0.752107 0.762109
vt 0.541414 1.364346
vt 0.541414 0.794170
vt 0.195939 0.794170
vt 0.195939 1.370880
vt 0.975257 2.570404
vt 0.752107 2.570404
vt 0.541414 2.602462
vt 0.195939 2.602462
vn 0.0166 0.1704 0.9852
vn 0.1599 0.1386 -0.9774
vn 0.0842 0.0605 0.9946
vn -0.0043 0.9995 0.0301
vn -0.0001 1.0000 0.0035
vn -0.0002 1.0000 0.0044
vn 0.0091 0.0412 -0.9991
vn 0.0040 0.9997 -0.0223
vn 0.9904 0.1378 0.0088
vn 0.9949 0.1007 0.0059
vn 0.9948 0.1020 0.0060
vn -0.1239 0.9923 -0.0073
vn 0.0338 -0.0005 0.9994
vn 0.1605 -0.9870 0.0100
vn 0.1059 -0.9944 0.0056
vn 0.1055 -0.9944 0.0056
vn 0.0944 -0.9955 0.0057
vn 0.0948 -0.9955 0.0057
vn 0.0387 -0.9992 0.0105
vn -0.9985 -0.0548 -0.0040
vn -0.9986 -0.0525 -0.0047
vn -0.9983 -0.0572 -0.0050
vn 0.9999 -0.0086 0.0056
vn 1.0000 -0.0045 0.0040
vn 1.0000 -0.0031 0.0031
vn -0.2606 0.9654 -0.0019
vn 1.0000 -0.0004 0.0015
vn 1.0000 0.0022 0.0029
vn -0.0340 0.0008 -0.9994
vn -0.2556 0.9667 -0.0072
vn -0.9988 -0.0477 -0.0070
vn -0.9987 -0.0512 -0.0052
vn 1.0000 0.0035 0.0036
vn -0.9983 -0.0584 -0.0055
vn -0.9980 -0.0620 -0.0077
vn 0.0370 -0.0093 -0.9993
vn 1.0000 0.0075 0.0049
vn 0.0264 -0.0133 0.9996
vn 0.9373 0.1529 0.3133
vn 0.9495 0.0794 0.3034
vn 0.9498 0.0775 0.3031
vn 0.0728 0.0118 -0.9973
vn 0.0476 0.0100 -0.9988
vn 0.0872 0.0042 -0.9962
vn 0.0000 -1.0000 -0.0000
vn -0.0682 0.9959 -0.0595
vn -0.0684 0.9959 -0.0593
vn -0.0020 -0.0169 0.9999
vn -0.0047 -0.0176 0.9998
vn -0.0085 -0.0185 0.9998
vn -0.0047 -0.0198 0.9998
vn -0.0021 -0.0204 0.9998
vn -0.0084 -0.0190 0.9998
vn -0.0010 -0.0172 0.9999
vn -0.9947 0.0743 0.0707
vn -0.9946 0.0757 0.0707
vn -0.9840 0.1544 0.0892
vn -0.0010 -0.0202 0.9998
vn 0.1004 -0.0005 -0.9950
vn -0.9986 -0.0033 0.0519
vn 0.9565 0.0040 0.2916
vn 0.0873 -0.0092 -0.9961
vn 0.0484 -0.0151 -0.9987
vn 0.0745 -0.0171 -0.9971
vn 0.0317 -0.9995 -0.0014
vn 0.9962 0.0053 0.0875
vn -0.9961 -0.0054 -0.0875
vn -0.9111 0.1486 -0.3845
vn -0.9246 0.0771 -0.3730
vn -0.9249 0.0755 -0.3727
vn -0.0577 0.0094 0.9983
vn -0.0377 0.0079 0.9993
vn -0.0691 0.0033 0.9976
vn 0.0682 0.9949 0.0749
vn 0.0683 0.9949 0.0748
vn 0.1010 -0.0046 -0.9949
vn 0.0008 -0.0136 -0.9999
vn 0.0037 -0.0139 -0.9999
vn 0.0016 -0.0134 -0.9999
vn 0.9933 0.0741 -0.0888
vn 0.9931 0.0759 -0.0893
vn 0.9817 0.1541 -0.1123
vn 0.0008 -0.0160 -0.9999
vn 0.0016 -0.0162 -0.9999
vn 0.0037 -0.0157 -0.9999
vn -0.0796 -0.0004 0.9968
vn 0.9978 -0.0033 -0.0655
vn -0.9332 0.0039 -0.3592
vn -0.0692 -0.0073 0.9976
vn -0.0383 -0.0120 0.9992
vn -0.0591 -0.0135 0.9982
vn -0.0317 -0.9995 0.0018
vn -0.9939 0.0053 -0.1102
vn 0.9939 -0.0054 0.1103
vn -0.1025 -0.8839 -0.4564
vn -0.1159 -0.8787 -0.4632
vn 0.7578 -0.5952 -0.2674
vn 0.7394 -0.5945 -0.3160
vn 0.9632 0.2161 0.1597
vn 0.9586 0.2687 0.0938
vn 0.1584 0.8689 0.4690
vn 0.2074 0.8607 0.4649
vn -0.7907 0.5490 0.2709
vn -0.7847 0.5898 0.1907
vn -0.9518 0.2905 0.0982
vn -0.9009 0.3950 0.1802
vn -0.2984 -0.8447 -0.4444
vn 0.2562 0.5517 -0.7937
vn 0.0614 0.1576 -0.9856
vn 0.0537 -0.2856 0.9569
vn 0.1366 -0.4159 0.8991
vn 0.2049 -0.3203 0.9249
vn 0.2788 -0.4462 0.8504
vn 0.1218 0.1073 0.9867
vn -0.1721 -0.4362 0.8832
vn 0.1647 -0.8778 0.4499
vn 0.1726 -0.8729 0.4563
vn 0.0429 -0.8858 0.4622
vn -0.9745 0.1900 -0.1192
vn -0.9679 0.2477 -0.0415
vn -0.2204 0.8620 -0.4565
vn -0.2512 0.8543 -0.4550
vn 0.7583 0.5753 -0.3067
vn 0.7567 0.6138 -0.2250
vn 0.9348 0.3156 -0.1631
vn 0.8715 0.4344 -0.2276
vn 0.3547 -0.8318 0.4270
vn -0.9997 -0.0225 0.0037
vn -0.9899 -0.1239 0.0687
vn -0.1434 0.5588 0.8168
vn 0.0638 0.1576 0.9854
vn -0.1787 -0.2837 -0.9421
vn -0.2470 -0.4154 -0.8755
vn -0.3158 -0.3145 -0.8952
vn -0.3842 -0.4462 -0.8083
vn -0.2457 0.1073 -0.9634
vn 0.0589 -0.4362 -0.8979
vn 0.0067 -0.0147 -0.9999
vn 0.0067 -0.0150 -0.9999
vn -0.0799 -0.0034 0.9968
vn -0.9637 -0.2670 -0.0031
vn -0.9631 -0.2693 -0.0035
vn -0.9511 -0.3088 -0.0105
vn 0.0555 -0.9984 -0.0046
vn 0.0498 -0.9983 -0.0316
vn 0.0551 -0.9985 -0.0064
vn -0.0933 0.9955 0.0135
vn -0.0756 0.9971 -0.0059
vn -0.0737 0.9972 -0.0080
vn 0.0609 -0.9979 0.0206
vn 0.9979 0.0647 0.0031
vn -0.9739 -0.2271 0.0038
vn 0.0014 -0.9995 0.0323
vn 0.0056 -0.9999 0.0111
vn 0.0053 -0.9999 0.0128
vn 0.9979 -0.0654 0.0015
vn 0.9978 -0.0659 0.0016
vn 0.9969 -0.0791 0.0030
vn -0.9605 -0.2784 0.0067
vn -0.9586 -0.2848 0.0008
vn -0.9587 -0.2845 0.0011
vn -0.0560 0.9981 -0.0274
vn 0.0094 -0.9999 -0.0084
vn 0.9986 -0.0523 0.0001
vn -0.9567 -0.2909 -0.0047
usemtl None
s 1
f 1/1/1 2/2/1 4/3/1 3/4/1
f 7/5/2 8/6/2 6/7/2 5/8/2
f 9/9/3 10/10/3 12/11/3 11/12/3
f 16/13/4 102/14/5 104/15/6 14/16/4
f 15/17/7 16/13/7 14/16/7 13/18/7
f 102/14/5 12/11/8 10/10/8 104/15/6
f 13/19/9 14/16/9 104/15/10 103/20/11
f 31/21/12 33/22/12 36/23/12 32/24/12
f 21/25/13 36/23/13 33/22/13 24/26/13
f 19/27/14 20/28/14 28/29/15 25/30/16
f 26/31/17 27/32/18 18/33/19 17/34/19
f 22/35/20 35/36/21 36/37/22 21/38/20
f 31/39/23 18/40/23 27/41/24 33/42/25
f 27/32/18 26/31/17 25/30/16 28/29/15
f 23/43/26 22/44/26 21/25/26 24/26/26
f 24/45/27 33/42/25 34/46/28 23/47/27
f 23/43/29 34/48/29 35/49/29 22/44/29
f 35/49/30 34/48/30 29/50/30 30/51/30
f 30/52/31 19/53/31 25/54/32 35/36/21
f 33/42/25 27/41/24 28/55/33 34/46/28
f 35/36/21 25/54/32 26/56/34 36/37/22
f 36/37/22 26/56/34 17/57/35 32/58/35
f 29/59/36 20/28/36 19/60/36 30/61/36
f 34/46/28 28/55/33 20/62/37 29/63/37
f 17/64/38 18/33/38 31/65/38 32/66/38
f 39/67/39 40/68/39 51/69/40 52/70/41
f 51/71/42 40/72/43 47/73/43 54/74/44
f 46/75/45 47/76/45 40/77/45 39/78/45
f 41/79/46 43/80/47 44/81/47 42/82/47
f 50/83/48 55/84/49 41/85/50
f 56/86/51 52/87/52 43/88/53
f 37/89/45 38/90/45 48/91/45 45/92/45
f 45/93/54 55/84/49 50/83/48 37/94/54
f 50/95/55 49/96/56 38/90/57 37/97/57
f 39/98/58 52/87/52 56/86/51 46/99/58
f 44/100/59 51/71/42 54/74/44
f 41/101/60 42/82/60 49/96/56 50/95/55
f 51/69/40 44/102/61 43/103/61 52/70/41
f 53/104/62 48/105/63 38/106/63 49/107/64
f 54/108/65 56/109/65 55/110/65 53/111/65
f 45/112/66 48/113/66 53/111/66 55/110/66
f 46/114/67 56/109/67 54/108/67 47/115/67
f 59/116/68 60/117/68 71/118/69 72/119/70
f 71/120/71 60/121/72 67/122/72 74/123/73
f 66/124/45 67/125/45 60/126/45 59/127/45
f 61/128/74 63/129/75 64/130/75 62/131/75
f 42/132/76 44/100/59 54/74/44 53/104/62
f 53/104/62 49/107/64 42/132/76
f 57/133/45 58/134/45 68/135/45 65/136/45
f 65/137/77 75/138/78 70/139/79 57/140/77
f 70/141/80 69/142/81 58/134/82 57/143/82
f 59/144/83 72/145/84 76/146/85 66/147/83
f 64/148/86 71/120/71 74/123/73
f 61/149/87 62/131/87 69/142/81 70/141/80
f 71/118/69 64/150/88 63/151/88 72/119/70
f 73/152/89 68/153/90 58/154/90 69/155/91
f 74/156/92 76/157/92 75/158/92 73/159/92
f 65/160/93 68/161/93 73/159/93 75/158/93
f 66/162/94 76/157/94 74/156/94 67/163/94
f 82/164/95 85/165/96 83/166/97 77/167/98
f 78/168/99 84/169/100 88/170/101 79/171/102
f 80/172/103 86/173/104 87/174/105 81/175/106
f 79/171/102 88/170/101 86/173/104 80/172/103
f 81/175/107 87/174/107 85/176/96 82/177/95
f 77/167/98 83/166/97 84/169/100 78/168/99
f 85/178/108 87/179/105 86/180/104
f 84/181/100 83/182/97 85/178/108
f 86/180/104 88/183/109 84/181/100
f 84/181/100 85/178/108 86/180/104
f 80/184/110 82/185/111 78/186/112
f 77/187/113 78/186/112 82/185/111
f 78/186/112 79/188/114 80/184/110
f 80/184/110 81/189/115 82/185/111
f 94/190/116 97/191/117 95/192/118 89/193/118
f 90/194/119 96/195/120 100/196/121 91/197/122
f 92/198/123 98/199/124 99/200/125 93/201/126
f 91/197/122 100/196/121 98/199/124 92/198/123
f 93/201/127 99/200/127 97/202/117 94/203/116
f 89/193/128 95/192/129 96/195/120 90/194/119
f 97/204/130 99/205/125 98/206/124
f 96/207/120 95/208/129 97/204/130
f 98/206/124 100/209/131 96/207/120
f 96/207/120 97/204/130 98/206/124
f 92/210/132 94/211/133 90/212/134
f 89/213/135 90/212/134 94/211/133
f 90/212/134 91/214/136 92/210/132
f 92/210/132 93/215/137 94/211/133
f 55/84/49 56/86/51 43/88/53 41/85/50
f 70/139/79 75/138/78 61/216/138
f 76/146/85 72/145/84 63/217/139
f 75/138/78 76/146/85 63/217/139 61/216/138
f 73/152/89 69/155/91 62/218/140
f 62/218/140 64/148/86 74/123/73 73/152/89
f 101/219/141 102/14/142 16/13/143 15/220/143
f 101/221/144 15/222/145 13/223/145 103/224/146
f 8/6/147 106/225/148 108/226/149 6/7/147
f 11/227/150 101/221/144 103/224/146 9/228/150
f 104/15/10 10/10/151 9/229/151 103/20/11
f 11/230/152 12/11/152 102/14/142 101/219/141
f 3/231/153 105/232/154 107/233/155 1/234/153
f 107/235/156 108/226/157 2/2/158 1/236/158
f 3/237/159 4/3/159 106/225/160 105/238/161
f 106/225/148 4/3/162 2/2/162 108/226/149
f 105/232/154 7/239/163 5/240/163 107/233/155
f 5/241/164 6/7/164 108/226/157 107/235/156
f 106/225/160 8/6/165 7/242/165 105/238/161
