# Blender v2.79 (sub 0) OBJ File: 'benches.blend'
# www.blender.org
mtllib bench_small.mtl
o Bench_Small_Cube.004
v -0.206574 1.135493 3.869498
v 0.159429 1.135493 3.876510
v -0.158665 1.097285 -3.820674
v 0.201231 1.097285 -3.814164
v -0.270316 1.466271 3.277562
v -0.224712 1.461529 -3.132740
v 0.187095 1.461529 -3.145157
v 0.174715 1.466271 3.264616
v -0.166070 0.980282 -3.143800
v -0.199169 0.997515 3.266760
v 0.165893 0.997515 3.273276
v 0.194768 0.980282 -3.136793
v 0.194518 1.283177 -3.817264
v -0.191850 1.283177 -3.827028
v 0.166871 1.307570 3.869513
v -0.250965 1.307570 3.888982
v 0.171130 1.320600 3.268134
v 0.190233 1.316219 -3.141736
v -0.201043 1.257706 -3.137205
v -0.241751 1.286937 3.273226
v -0.658407 0.000000 3.480033
v -0.696150 0.000000 3.209639
v 0.626803 0.000000 3.479260
v 0.728337 0.000000 3.251734
v -0.528137 3.663526 3.518253
v -0.543674 3.663526 3.171926
v 0.449654 3.663526 3.528295
v 0.544703 3.663526 3.276506
v -0.163321 0.000000 3.479761
v 0.134422 0.000000 3.479531
v 0.158596 0.000000 3.236345
v -0.138081 0.000000 3.225027
v -0.542190 1.203220 3.197040
v -0.517558 1.207143 3.492864
v 0.556121 1.251341 3.260115
v 0.471825 1.243675 3.495994
v -0.140916 1.220695 3.220012
v 0.154879 1.233687 3.237018
v -0.171645 1.219824 3.493940
v 0.125959 1.230962 3.494895
v 0.637869 0.000000 -3.341578
v 0.675612 0.000000 -3.127427
v -0.647341 0.000000 -3.340966
v -0.748875 0.000000 -3.160767
v 0.507599 3.663526 -3.371848
v 0.523136 3.663526 -3.097559
v -0.470192 3.663526 -3.379801
v -0.565241 3.663526 -3.180386
v 0.142783 0.000000 -3.341363
v -0.154960 0.000000 -3.341180
v -0.179134 0.000000 -3.148578
v 0.117543 0.000000 -3.139614
v 0.521652 1.203220 -3.117450
v 0.497020 1.207143 -3.351740
v -0.576659 1.251341 -3.167404
v -0.492363 1.243675 -3.354219
v 0.120378 1.220695 -3.135643
v -0.175417 1.233687 -3.149112
v 0.151107 1.219824 -3.352592
v -0.146497 1.230962 -3.353348
v 1.128779 3.883030 -4.131724
v 1.128779 3.566072 -4.131724
v 1.128779 3.883030 4.362681
v 1.128779 3.566072 4.362681
v -1.149317 3.883030 -4.197556
v -1.149317 3.566072 -4.197556
v -1.149317 3.883030 4.339125
v -1.149317 3.566072 4.339125
v -0.080079 0.859821 -0.208137
v 0.093663 0.868733 -0.223713
v -0.079582 0.844299 0.322263
v 0.066615 0.869628 0.364166
v -0.104638 3.633842 -0.216623
v 0.117896 3.633842 -0.224901
v -0.111090 3.633842 0.304331
v 0.050697 3.633842 0.354971
v -0.137990 1.410682 0.314171
v 0.015564 1.415466 0.360022
v -0.134746 1.388227 -0.211958
v 0.061135 1.385628 -0.224248
v 0.004690 3.883030 4.362681
v -0.046794 3.883030 4.362681
v -0.021052 3.835657 4.330228
v -0.046794 3.566072 -4.197556
v 0.004690 3.566072 -4.240428
v -0.021052 3.613445 -4.165102
v 0.004690 3.883030 -4.240428
v -0.046794 3.883030 -4.197556
v -0.021052 3.835657 -4.165102
v -0.046794 3.566072 4.362681
v 0.004690 3.566072 4.362681
v -0.021052 3.613445 4.330228
v 0.503627 3.566072 -4.197556
v 0.541862 3.566072 -4.197556
v 0.522744 3.613445 -4.165102
v 0.503627 3.883030 -4.197556
v 0.541862 3.883030 -4.197556
v 0.522744 3.835657 -4.165102
v 0.541862 3.566072 4.362681
v 0.503627 3.566072 4.319832
v 0.522744 3.613445 4.330228
v 0.503627 3.883030 4.319832
v 0.541862 3.883030 4.362681
v 0.522744 3.835657 4.330228
v -0.587826 3.566072 -4.216754
v -0.626061 3.566072 -4.235667
v -0.606944 3.613445 -4.165102
v -0.626061 3.566072 4.362681
v -0.587826 3.566072 4.407469
v -0.606944 3.613445 4.330228
v -0.587826 3.883030 4.407469
v -0.626061 3.883030 4.362681
v -0.606944 3.835657 4.330228
v -0.626061 3.883030 -4.235667
v -0.587826 3.883030 -4.216754
v -0.606944 3.835657 -4.165102
v -0.080079 0.579827 -1.919615
v 0.093663 0.588051 -1.932943
v -0.079582 0.587444 -1.476256
v 0.066615 0.614575 -1.442197
v -0.104638 3.620145 -2.037577
v 0.117896 3.619784 -2.044487
v -0.111090 3.642857 -1.602670
v 0.050697 3.645064 -1.560394
v -0.137990 1.422240 -1.513465
v 0.015564 1.429017 -1.475362
v -0.134746 1.376868 -1.951875
v 0.061135 1.373736 -1.962039
v -0.080079 0.606568 1.693269
v 0.093663 0.616309 1.682874
v -0.079582 0.562431 2.057964
v 0.066615 0.585461 2.087765
v -0.104638 3.646169 1.800763
v 0.117896 3.646616 1.795063
v -0.111090 3.618040 2.159530
v 0.050697 3.615306 2.194406
v -0.137990 1.397592 2.083520
v 0.015564 1.399893 2.115275
v -0.134746 1.403578 1.720352
v 0.061135 1.401646 1.711792
vt 1.317503 0.961984
vt 1.082888 0.961984
vt 1.082887 0.038016
vt 1.317503 0.038016
vt 1.745405 0.961984
vt 1.540473 0.961984
vt 1.540473 0.038016
vt 1.745404 0.038016
vt 1.105035 0.961984
vt 1.003772 0.961984
vt 1.003775 0.038016
vt 1.105034 0.038016
vt -0.097342 0.038016
vt 0.003922 0.038016
vt 0.003919 0.961984
vt -0.097340 0.961984
vt 0.003919 0.999940
vt 0.231315 0.961984
vt 0.231314 0.999940
vt 0.247933 0.038016
vt 0.247933 0.000060
vt 0.483054 0.000060
vt 0.483054 0.038016
vt 0.738870 0.000060
vt 0.981628 0.000060
vt 0.981628 0.038016
vt 0.738870 0.038016
vt 0.494241 0.000060
vt 0.494241 0.038016
vt 0.505427 0.000060
vt 0.505427 0.038016
vt 1.530723 0.961984
vt 1.530722 0.038016
vt 1.520972 0.961984
vt 1.520972 0.038016
vt 0.483051 0.961984
vt 0.494238 0.961984
vt 0.505425 0.961984
vt 0.483051 0.999940
vt 0.494238 0.999940
vt 0.505425 0.999940
vt 0.981625 0.961984
vt 0.738868 0.961984
vt 0.247930 0.999940
vt 0.247931 0.961984
vt 0.231317 0.000060
vt 0.231317 0.038016
vt 0.003922 0.000060
vt 0.722252 0.961984
vt 0.722252 0.999940
vt 0.722254 0.038016
vt 0.722254 0.000060
vt 0.981625 0.999940
vt 0.726564 0.999940
vt 1.958085 0.961983
vt 1.759887 0.961983
vt 1.759887 0.038016
vt 1.958085 0.038016
vt 1.331985 0.038016
vt 1.331986 0.961984
vt 1.324745 0.961984
vt 1.324744 0.038016
vt 0.730560 0.961984
vt 0.730559 0.999940
vt 0.730562 0.038016
vt 0.730562 0.000060
vt 0.239623 0.961984
vt 0.239622 0.999940
vt 0.239625 0.000060
vt 0.239625 0.038016
vt 1.752646 0.961983
vt 1.752646 0.038016
vt 0.394821 0.084944
vt 0.394821 0.207487
vt 0.361991 0.207590
vt 0.361991 0.083821
vt 0.361991 0.226522
vt 0.394821 0.227654
vt 0.464809 1.430425
vt 0.439308 1.430426
vt 0.439308 1.303584
vt 0.464809 1.303621
vt 0.464809 0.736891
vt 0.439307 0.736928
vt 0.439307 0.702072
vt 0.464809 0.702072
vt 0.351533 0.205988
vt 0.441870 0.205988
vt 0.441870 0.240844
vt 0.351630 0.240734
vt 0.394821 0.776133
vt 0.394821 0.795766
vt 0.361991 0.793472
vt 0.361991 0.775051
vt 0.394821 0.917562
vt 0.361991 0.916494
vt 0.870753 1.387876
vt 0.812913 1.387876
vt 0.812913 1.261072
vt 0.870798 1.260283
vt 0.289877 0.240658
vt 0.352048 0.807611
vt 0.289877 0.807687
vt 0.871006 0.695133
vt 0.812913 0.694341
vt 0.812913 0.567536
vt 0.871059 0.567536
vt 0.380705 1.430426
vt 0.439308 1.458531
vt 0.380155 1.458531
vt 0.441871 0.807501
vt 0.441871 0.866950
vt 0.352139 0.866950
vt 0.439307 0.673967
vt 0.380309 0.702072
vt 0.379842 0.673967
vt 0.411948 0.134724
vt 0.474311 0.134724
vt 0.474312 0.343141
vt 0.411948 0.344963
vt 0.512600 0.343142
vt 0.512600 0.134724
vt 0.591878 0.134724
vt 0.591830 0.342178
vt 0.582335 0.113619
vt 0.586189 0.134724
vt 0.492914 0.134724
vt 0.492914 0.113619
vt 0.748069 0.771843
vt 0.492915 0.771843
vt 0.492915 0.750738
vt 0.748069 0.750738
vt 1.003015 0.331274
vt 1.077325 0.332493
vt 1.003015 0.740471
vt 1.141267 0.333523
vt 1.215576 0.334695
vt 1.215576 0.740471
vt 0.748068 0.113619
vt 0.748068 0.134724
vt 0.654793 0.134724
vt 0.658647 0.113619
vt 1.077509 0.124456
vt 1.003015 0.124456
vt 0.810432 0.341542
vt 0.748068 0.340502
vt 0.810432 0.134724
vt 1.215576 0.124456
vt 1.141082 0.124456
vt 0.512601 0.750738
vt 0.810432 0.750738
vt 0.474312 0.750738
vt 0.411948 0.750738
vt 0.650236 0.341467
vt 0.650187 0.134724
vt 0.729465 0.134724
vt 0.729466 0.340502
vt 0.544383 0.311868
vt 0.653657 0.312415
vt 0.658030 0.351883
vt 0.541955 0.351307
vt 0.649798 0.477434
vt 0.541955 0.474519
vt 0.650893 0.184868
vt 0.547808 0.187368
vt 0.161881 0.134724
vt 0.224244 0.134724
vt 0.224244 0.343141
vt 0.161881 0.344963
vt 0.262533 0.343142
vt 0.262532 0.134724
vt 0.341810 0.134724
vt 0.341762 0.342178
vt 0.332267 0.113619
vt 0.336121 0.134724
vt 0.242846 0.134724
vt 0.242846 0.113619
vt 0.498001 0.771843
vt 0.242847 0.771843
vt 0.242847 0.750738
vt 0.498001 0.750738
vt 0.729466 0.750738
vt 0.498000 0.113619
vt 0.498000 0.134724
vt 0.404725 0.134724
vt 0.408579 0.113619
vt 0.827441 0.124456
vt 0.827257 0.332493
vt 0.752948 0.331274
vt 0.752948 0.124456
vt 0.560364 0.341542
vt 0.498000 0.340502
vt 0.560364 0.134724
vt 0.965509 0.124456
vt 0.965509 0.334695
vt 0.891200 0.333523
vt 0.891015 0.124456
vt 0.262533 0.750738
vt 0.560364 0.750738
vt 0.224245 0.750738
vt 0.161881 0.750738
vt 0.400169 0.341467
vt 0.400120 0.134724
vt 0.479398 0.134724
vt 0.479398 0.340502
vt 0.294316 0.311868
vt 0.403589 0.312415
vt 0.407962 0.351883
vt 0.291888 0.351307
vt 0.399730 0.477434
vt 0.291887 0.474519
vt 0.400826 0.184868
vt 0.297741 0.187368
vt 0.752948 0.740471
vt 0.965508 0.740471
vt 0.479399 0.750738
vt 0.909975 0.695665
vt 0.909975 1.259748
vt 0.176154 0.169650
vt 0.176154 0.192972
vt 0.052734 0.192972
vt 0.052734 0.169650
vt 0.052735 0.897017
vt 0.052735 0.873695
vt 0.176154 0.873695
vt 0.176154 0.897017
vt 0.207861 0.873695
vt 0.176154 0.499266
vt 0.207861 0.499485
vt 0.052735 0.499795
vt 0.021028 0.873695
vt 0.021028 0.500150
vt 0.669790 0.154091
vt 0.669790 0.461270
vt 0.549110 0.460604
vt 0.549110 0.154091
vt 0.207861 0.192972
vt 0.021028 0.192972
vt 0.669790 0.834816
vt 0.549110 0.834816
vt 0.424185 0.169650
vt 0.424185 0.192972
vt 0.300766 0.192972
vt 0.300766 0.169650
vt 0.300766 0.897017
vt 0.300766 0.873695
vt 0.424186 0.873695
vt 0.424186 0.897017
vt 0.455892 0.873695
vt 0.424186 0.499266
vt 0.455892 0.499485
vt 0.300766 0.499795
vt 0.269059 0.873695
vt 0.269059 0.500150
vt 0.917821 0.154091
vt 0.917821 0.461270
vt 0.797141 0.460604
vt 0.797141 0.154091
vt 0.455892 0.192972
vt 0.269059 0.192972
vt 0.917821 0.834816
vt 0.797141 0.834816
vt 0.176154 0.521542
vt 0.176154 0.544864
vt 0.052734 0.544864
vt 0.052734 0.521542
vt 0.052735 1.248909
vt 0.052735 1.225587
vt 0.176154 1.225587
vt 0.176154 1.248909
vt 0.207861 1.225587
vt 0.176154 0.851158
vt 0.207861 0.851377
vt 0.052735 0.851687
vt 0.021028 1.225587
vt 0.021028 0.852042
vt 0.669790 0.505983
vt 0.669790 0.813162
vt 0.549110 0.812496
vt 0.549110 0.505983
vt 0.207861 0.544864
vt 0.021028 0.544864
vt 0.669790 1.186707
vt 0.549110 1.186707
vn 0.0000 -1.0000 0.0000
vn 1.0000 0.0000 0.0000
vn -1.0000 0.0000 0.0000
vn -0.0726 -0.0000 -0.9974
vn 0.0825 0.0000 0.9966
vn 0.0000 0.0000 1.0000
vn 0.7835 0.0000 0.6214
vn -0.7835 0.0000 0.6214
vn 0.8787 -0.4774 0.0000
vn -0.8787 -0.4774 0.0000
vn 0.8787 0.4774 0.0000
vn -0.8787 0.4774 0.0000
vn 0.7835 0.0000 -0.6214
vn -0.9463 0.0000 -0.3234
vn 0.0000 1.0000 0.0000
vn 0.0355 0.0000 -0.9994
vn -0.0450 0.0000 0.9990
vn 0.0856 0.0000 -0.9963
vn 0.0856 0.0000 0.9963
vn 0.1115 0.0000 -0.9938
vn 0.9273 -0.3742 0.0000
vn -0.9273 -0.3742 0.0000
vn 0.8616 0.0000 -0.5076
vn -0.8616 0.0000 -0.5076
vn 0.9273 0.3742 0.0000
vn -0.9273 0.3742 0.0000
vn -0.4778 -0.0000 0.8785
vn -0.8616 -0.0000 0.5076
vn 0.9652 0.0000 -0.2615
vn -0.9378 -0.0000 -0.3471
vn 0.8616 0.0000 0.5076
vn -0.9707 0.0000 0.2403
vn -0.0407 0.9991 -0.0067
vn 0.0211 -0.0009 0.9998
vn 0.0032 -0.9854 -0.1702
vn -0.1212 -0.9775 -0.1728
vn 0.1207 -0.9793 -0.1622
vn 0.1307 -0.9659 0.2234
vn -0.1489 -0.9651 0.2154
vn -0.0041 -0.9748 0.2230
vn 0.9996 -0.0253 0.0115
vn 0.9999 -0.0128 0.0081
vn 0.9999 -0.0091 0.0059
vn -0.0212 0.0014 -0.9998
vn -0.0750 0.9972 -0.0063
vn -0.9890 -0.1455 -0.0272
vn -0.9898 -0.1418 -0.0104
vn -0.9896 -0.1433 -0.0112
vn 1.0000 -0.0015 0.0025
vn 1.0000 0.0063 0.0051
vn -0.9881 -0.1536 -0.0063
vn -0.9869 -0.1613 -0.0057
vn -0.9825 -0.1858 0.0108
vn 0.0218 -0.0231 -0.9995
vn 0.9999 0.0096 0.0068
vn 0.9997 0.0217 0.0093
vn 0.0159 -0.0346 0.9993
vn 0.9211 0.1171 0.3713
vn 0.9342 0.0411 0.3545
vn 0.0482 0.0067 -0.9988
vn 0.0395 0.0064 -0.9992
vn 0.0614 0.0040 -0.9981
vn -0.0017 -0.0107 0.9999
vn -0.0042 -0.0111 0.9999
vn -0.0056 -0.0111 0.9999
vn -0.0042 -0.0127 0.9999
vn -0.0017 -0.0132 0.9999
vn -0.0056 -0.0126 0.9999
vn -0.0008 -0.0111 0.9999
vn -0.9965 0.0351 0.0764
vn -0.9868 0.1207 0.1079
vn -0.0008 -0.0130 0.9999
vn 0.0724 0.0028 -0.9974
vn -0.9980 -0.0025 0.0624
vn 0.9385 0.0030 0.3452
vn 0.0618 -0.0071 -0.9981
vn 0.0401 -0.0098 -0.9991
vn 0.0490 -0.0100 -0.9988
vn 0.0407 -0.9992 -0.0022
vn 0.9944 0.0042 0.1053
vn -0.9944 -0.0042 -0.1054
vn -0.8855 0.1125 -0.4507
vn -0.9011 0.0396 -0.4317
vn -0.9011 0.0397 -0.4317
vn -0.0382 0.0053 0.9993
vn -0.0313 0.0051 0.9995
vn -0.0486 0.0032 0.9988
vn 0.0726 -0.0058 -0.9973
vn 0.0006 -0.0088 -1.0000
vn 0.0033 -0.0088 -1.0000
vn 0.0014 -0.0085 -1.0000
vn 0.9947 0.0350 -0.0963
vn 0.9834 0.1203 -0.1357
vn 0.0006 -0.0103 -0.9999
vn 0.0014 -0.0104 -0.9999
vn 0.0030 -0.0102 -0.9999
vn -0.0574 0.0022 0.9984
vn 0.9969 -0.0024 -0.0788
vn -0.9070 0.0029 -0.4212
vn -0.0491 -0.0056 0.9988
vn -0.0318 -0.0077 0.9995
vn -0.0387 -0.0079 0.9992
vn -0.0407 -0.9992 0.0028
vn -0.9912 0.0041 -0.1325
vn 0.9912 -0.0042 0.1326
vn 0.0044 -0.0088 -1.0000
vn 0.0044 -0.0100 -0.9999
vn -0.0575 -0.0046 0.9983
vn -0.9908 -0.1349 -0.0063
vn 0.0049 0.9999 0.0100
vn -0.0000 1.0000 -0.0007
vn -0.0007 0.9999 -0.0105
vn 0.1073 -0.9942 -0.0105
vn -0.0491 -0.0002 -0.9988
vn -0.0618 -0.0053 -0.9981
vn -0.0616 -0.0051 -0.9981
vn -0.2860 -0.0049 0.9582
vn -0.2927 0.0073 0.9562
vn -0.2861 -0.0047 0.9582
vn 0.9961 0.0118 0.0869
vn 0.9951 0.0785 0.0596
vn 0.9961 0.0126 0.0869
vn 0.9951 -0.0203 0.0969
vn -0.9947 -0.1028 -0.0019
vn -0.9996 -0.0258 -0.0074
vn -0.9996 -0.0265 -0.0074
vn -0.0750 -0.0104 -0.9971
vn -0.2794 -0.0169 0.9600
vn -0.9999 0.0127 -0.0095
vn 0.1072 -0.9935 0.0394
vn 0.0000 0.9986 -0.0522
vn -0.0411 -0.0366 -0.9985
vn -0.0516 -0.0393 -0.9979
vn -0.2424 0.0337 0.9696
vn -0.2479 0.0415 0.9679
vn -0.2423 0.0336 0.9696
vn 0.9947 0.0020 0.1028
vn 0.9961 0.0547 0.0694
vn 0.9948 0.0032 0.1018
vn 0.9930 -0.0161 0.1167
vn -0.9976 -0.0691 0.0010
vn -0.9999 -0.0090 -0.0080
vn -0.9999 -0.0103 -0.0078
vn -0.0628 -0.0421 -0.9971
vn -0.2367 0.0257 0.9712
vn -0.9999 0.0123 -0.0121
vn 0.1070 -0.9899 -0.0928
vn 0.0000 0.9969 0.0782
vn -0.0339 0.0371 -0.9987
vn -0.0425 0.0349 -0.9985
vn -0.0427 0.0348 -0.9985
vn -0.2020 -0.0380 0.9786
vn -0.2067 -0.0313 0.9779
vn -0.2020 -0.0379 0.9786
vn 0.9924 -0.0053 0.1226
vn 0.9946 0.0487 0.0913
vn 0.9924 -0.0061 0.1227
vn 0.9901 -0.0254 0.1380
vn -0.9976 -0.0688 -0.0085
vn -0.9999 -0.0094 -0.0116
vn -0.9999 -0.0084 -0.0117
vn -0.0519 0.0325 -0.9981
vn -0.1973 -0.0446 0.9793
vn -0.9998 0.0132 -0.0128
vn 0.0034 -0.9898 -0.1422
vn 0.0001 -1.0000 -0.0046
vn -0.0053 -0.9927 0.1203
vn -0.0055 -0.9999 0.0147
usemtl None
s off
f 94/1/1 62/2/1 64/3/1 99/4/1
f 105/5/1 84/6/1 90/7/1 109/8/1
f 62/9/2 61/10/2 63/11/2 64/12/2
f 68/13/3 67/14/3 65/15/3 66/16/3
f 66/17/4 65/15/4 114/18/4 106/19/4
f 111/20/5 109/21/5 90/22/5 82/23/5
f 99/24/6 64/25/6 63/26/6 103/27/6
f 82/23/7 90/22/7 92/28/7 83/29/7
f 83/29/8 92/28/8 91/30/8 81/31/8
f 90/7/9 84/6/9 86/32/9 92/33/9
f 92/33/10 86/32/10 85/34/10 91/35/10
f 88/36/11 82/23/11 83/29/11 89/37/11
f 89/37/12 83/29/12 81/31/12 87/38/12
f 84/39/13 88/36/13 89/37/13 86/40/13
f 86/40/14 89/37/14 87/38/14 85/41/14
f 103/27/15 63/26/15 61/42/15 97/43/15
f 105/44/16 115/45/16 88/36/16 84/39/16
f 115/45/15 111/20/15 82/23/15 88/36/15
f 108/46/17 112/47/17 67/14/17 68/48/17
f 85/41/18 87/38/18 96/49/18 93/50/18
f 87/38/15 81/31/15 102/51/15 96/49/15
f 81/31/19 91/30/19 100/52/19 102/51/19
f 97/43/20 61/42/20 62/53/20 94/54/20
f 114/18/15 65/15/15 67/14/15 112/47/15
f 66/55/1 106/56/1 108/57/1 68/58/1
f 100/59/21 93/60/21 95/61/21 101/62/21
f 101/62/22 95/61/22 94/1/22 99/4/22
f 93/50/23 96/49/23 98/63/23 95/64/23
f 95/64/24 98/63/24 97/43/24 94/54/24
f 96/49/25 102/51/25 104/65/25 98/63/25
f 98/63/26 104/65/26 103/27/26 97/43/26
f 102/51/27 100/52/27 101/66/27 104/65/27
f 104/65/28 101/66/28 99/24/28 103/27/28
f 106/19/29 114/18/29 116/67/29 107/68/29
f 107/68/30 116/67/30 115/45/30 105/44/30
f 112/47/31 108/46/31 110/69/31 113/70/31
f 113/70/32 110/69/32 109/21/32 111/20/32
f 108/57/21 106/56/21 107/71/21 110/72/21
f 110/72/22 107/71/22 105/5/22 109/8/22
f 114/18/25 112/47/25 113/70/25 116/67/25
f 116/67/26 113/70/26 111/20/26 115/45/26
f 91/35/1 85/34/1 93/60/1 100/59/1
s 1
f 15/73/33 17/74/33 20/75/33 16/76/33
f 5/77/34 20/75/34 17/74/34 8/78/34
f 3/79/35 4/80/35 12/81/36 9/82/37
f 10/83/38 11/84/39 2/85/40 1/86/40
f 15/87/41 2/88/41 11/89/42 17/90/43
f 7/91/44 18/92/44 19/93/44 6/94/44
f 19/93/45 18/92/45 13/95/45 14/96/45
f 14/97/46 3/98/46 9/99/47 19/100/48
f 8/101/49 17/90/43 18/102/50 7/103/49
f 20/104/51 10/105/52 1/106/53 16/107/53
f 13/108/54 4/80/54 3/109/54 14/110/54
f 18/102/50 12/111/55 4/112/56 13/113/56
f 1/114/57 2/85/57 15/115/57 16/116/57
f 23/117/58 24/118/58 35/119/59 36/120/59
f 35/121/60 24/122/61 31/123/61 38/124/62
f 30/125/1 31/126/1 24/127/1 23/128/1
f 25/129/15 27/130/15 28/131/15 26/132/15
f 34/133/63 39/134/64 25/135/65
f 40/136/66 36/137/67 27/138/68
f 21/139/1 22/140/1 32/141/1 29/142/1
f 29/143/69 39/134/64 34/133/63 21/144/69
f 34/145/70 33/146/70 22/140/71 21/147/71
f 23/148/72 36/137/67 40/136/66 30/149/72
f 28/150/73 35/121/60 38/124/62
f 25/151/74 26/132/74 33/146/70 34/145/70
f 35/119/59 28/152/75 27/153/75 36/120/59
f 37/154/76 32/155/77 22/156/77 33/157/78
f 38/158/79 40/159/79 39/160/79 37/161/79
f 29/162/80 32/163/80 37/161/80 39/160/80
f 30/164/81 40/159/81 38/158/81 31/165/81
f 43/166/82 44/167/82 55/168/83 56/169/84
f 55/170/85 44/171/86 51/172/86 58/173/87
f 50/174/1 51/175/1 44/176/1 43/177/1
f 45/178/15 47/179/15 48/180/15 46/181/15
f 26/182/88 28/150/73 38/124/62 37/154/76
f 37/154/76 33/157/78 26/182/88
f 41/183/1 42/184/1 52/185/1 49/186/1
f 49/187/89 59/188/90 54/189/91 41/190/89
f 54/191/92 53/192/92 42/184/93 41/193/93
f 43/194/94 56/195/95 60/196/96 50/197/94
f 48/198/97 55/170/85 58/173/87
f 45/199/98 46/181/98 53/192/92 54/191/92
f 55/168/83 48/200/99 47/201/99 56/169/84
f 57/202/100 52/203/101 42/204/101 53/205/102
f 58/206/103 60/207/103 59/208/103 57/209/103
f 49/210/104 52/211/104 57/209/104 59/208/104
f 50/212/105 60/207/105 58/206/105 51/213/105
f 39/134/64 40/136/66 27/138/68 25/135/65
f 54/189/91 59/188/90 45/214/106
f 60/196/96 56/195/95 47/215/107
f 59/188/90 60/196/96 47/215/107 45/214/106
f 57/202/100 53/205/102 46/216/108
f 46/216/108 48/198/97 58/173/87 57/202/100
f 17/90/43 11/89/42 12/111/55 18/102/50
f 9/99/47 10/105/52 20/104/51 19/100/48
f 19/100/48 20/104/51 5/217/109 6/218/109
f 6/94/110 5/77/111 8/78/112 7/91/111
f 69/219/113 70/220/113 72/221/113 71/222/113
f 75/223/15 76/224/15 74/225/15 73/226/15
f 73/227/114 74/225/114 80/228/115 79/229/116
f 78/230/117 76/224/118 75/231/118 77/232/119
f 78/230/120 72/221/121 70/220/121 80/228/122
f 76/224/123 78/230/120 80/228/122 74/225/123
f 71/233/124 77/234/125 79/235/126 69/236/124
f 80/228/115 70/220/127 69/237/127 79/229/116
f 71/238/128 72/221/128 78/230/117 77/232/119
f 77/234/125 75/239/129 73/240/129 79/235/126
f 117/241/130 118/242/130 120/243/130 119/244/130
f 123/245/131 124/246/131 122/247/131 121/248/131
f 121/249/132 122/247/132 128/250/133 127/251/133
f 126/252/134 124/246/135 123/253/135 125/254/136
f 126/252/137 120/243/138 118/242/138 128/250/139
f 124/246/140 126/252/137 128/250/139 122/247/140
f 119/255/141 125/256/142 127/257/143 117/258/141
f 128/250/133 118/242/144 117/259/144 127/251/133
f 119/260/145 120/243/145 126/252/134 125/254/136
f 125/256/142 123/261/146 121/262/146 127/257/143
f 129/263/147 130/264/147 132/265/147 131/266/147
f 135/267/148 136/268/148 134/269/148 133/270/148
f 133/271/149 134/269/149 140/272/150 139/273/151
f 138/274/152 136/268/153 135/275/153 137/276/154
f 138/274/155 132/265/156 130/264/156 140/272/157
f 136/268/158 138/274/155 140/272/157 134/269/158
f 131/277/159 137/278/160 139/279/161 129/280/159
f 140/272/150 130/264/162 129/281/162 139/273/151
f 131/282/163 132/265/163 138/274/152 137/276/154
f 137/278/160 135/283/164 133/284/164 139/279/161
f 11/84/165 10/83/166 9/82/167 12/81/168
