# Blender v2.79 (sub 0) OBJ File: 'benches.blend'
# www.blender.org
mtllib stool_round.mtl
o Stool_Round_Cylinder
v -1.137130 3.030687 -0.167761
v -1.123117 3.030687 0.125185
v -1.043715 3.030687 -0.455567
v -0.888599 3.030687 -0.715741
v -0.664753 3.030687 -0.923536
v -0.401556 3.030687 -1.065176
v -0.098344 3.030687 -1.133131
v 0.181329 3.030687 -1.135634
v 0.472540 3.030687 -1.025688
v 0.713608 3.030687 -0.850397
v 0.932684 3.030687 -0.659533
v 1.065603 3.030687 -0.399899
v 1.143217 3.030687 -0.097712
v 1.127702 3.030687 0.176890
v 1.061090 3.030687 0.473577
v 0.862908 3.030687 0.700489
v 0.641418 3.030687 0.931752
v 0.406641 3.030687 1.088470
v 0.122447 3.030687 1.135939
v -0.179232 3.030687 1.127989
v -0.478437 3.030687 1.024084
v -0.727157 3.030687 0.866740
v -0.920753 3.030687 0.675281
v -1.061613 3.030687 0.394971
v -1.117612 2.823882 0.091327
v -1.145295 2.823882 -0.167217
v -1.042679 2.823882 -0.446678
v -0.879274 2.823882 -0.720463
v -0.637863 2.823882 -0.928499
v -0.405098 2.823882 -1.060037
v -0.122630 2.823882 -1.122238
v 0.194969 2.823882 -1.125613
v 0.451169 2.823882 -1.020477
v 0.710616 2.823882 -0.882468
v 0.926511 2.823882 -0.646861
v 1.091749 2.823882 -0.423019
v 1.130772 2.823882 -0.115088
v 1.124701 2.823882 0.190559
v 1.042352 2.823882 0.461117
v 0.877571 2.823882 0.705658
v 0.657728 2.823882 0.938651
v 0.403181 2.823882 1.066707
v 0.131899 2.823882 1.136649
v -0.196213 2.823882 1.110172
v -0.451282 2.823882 1.029978
v -0.716636 2.823882 0.853471
v -0.938396 2.823882 0.684600
v -1.063662 2.823882 0.414561
v 0.488353 2.843426 -0.175238
v 0.334094 2.843426 -0.086177
v 0.334094 2.843426 0.091946
v 0.488353 2.843426 0.181007
v 0.642612 2.843426 0.091946
v 0.642612 2.843426 -0.086177
v 0.775025 0.065281 -0.177517
v 0.775025 0.000000 -0.107124
v 0.679756 0.000000 -0.052120
v 0.618793 0.065281 -0.087316
v 0.679756 0.000000 0.057888
v 0.618793 0.065281 0.093085
v 0.775025 0.000000 0.112893
v 0.775025 0.065281 0.183286
v 0.870295 0.000000 0.057888
v 0.931258 0.065281 0.093085
v 0.870295 0.000000 -0.052120
v 0.931258 0.065281 -0.087316
v -0.397646 2.843426 -0.330524
v -0.243387 2.843426 -0.241463
v -0.089128 2.843426 -0.330524
v -0.089128 2.843426 -0.508647
v -0.243387 2.843426 -0.597708
v -0.397645 2.843426 -0.508647
v -0.542955 0.065282 -0.577651
v -0.481993 0.000000 -0.612847
v -0.386723 0.000000 -0.557843
v -0.386723 0.065282 -0.487450
v -0.291453 0.000000 -0.612847
v -0.230491 0.065282 -0.577651
v -0.291453 0.000000 -0.722855
v -0.230491 0.065282 -0.758052
v -0.386723 0.000000 -0.777859
v -0.386723 0.065282 -0.848253
v -0.481993 0.000000 -0.722855
v -0.542955 0.065282 -0.758052
v -0.089128 2.843426 0.514416
v -0.089128 2.843426 0.336293
v -0.243387 2.843426 0.247232
v -0.397645 2.843426 0.336293
v -0.397645 2.843426 0.514416
v -0.243387 2.843426 0.603477
v -0.230491 0.065282 0.763821
v -0.291453 0.000000 0.728624
v -0.291453 0.000000 0.618616
v -0.230491 0.065282 0.583420
v -0.386723 0.000000 0.563612
v -0.386723 0.065282 0.493219
v -0.481993 0.000000 0.618616
v -0.542955 0.065282 0.583419
v -0.481993 0.000000 0.728624
v -0.542955 0.065282 0.763821
v -0.386723 0.000000 0.783628
v -0.386723 0.065282 0.854022
vt 0.001639 0.327982
vt 0.069741 0.316159
vt 0.075882 0.370849
vt 0.022385 0.378185
vt 0.117455 0.421967
vt 0.055877 0.435022
vt 0.174586 0.465388
vt 0.134880 0.484846
vt 0.252466 0.501296
vt 0.227028 0.529426
vt 0.343723 0.524898
vt 0.323183 0.551693
vt 0.446691 0.537847
vt 0.431455 0.564922
vt 0.544916 0.533910
vt 0.558817 0.565457
vt 0.646690 0.517724
vt 0.665520 0.546262
vt 0.735845 0.492607
vt 0.761263 0.516233
vt 0.807643 0.456599
vt 0.848312 0.473152
vt 0.862696 0.409382
vt 0.914723 0.426983
vt 0.900591 0.352631
vt 0.963056 0.368811
vt 0.970102 0.347826
vt 0.884558 0.301841
vt 0.937620 0.289756
vt 0.844133 0.249744
vt 0.894192 0.235463
vt 0.781267 0.209788
vt 0.833608 0.187711
vt 0.705646 0.174259
vt 0.746041 0.149477
vt 0.618567 0.149021
vt 0.642169 0.122070
vt 0.517760 0.139053
vt 0.529065 0.107150
vt 0.413610 0.141761
vt 0.395866 0.114186
vt 0.306577 0.158720
vt 0.287445 0.124917
vt 0.226298 0.185941
vt 0.188238 0.161461
vt 0.156982 0.219361
vt 0.104747 0.200420
vt 0.100093 0.269807
vt 0.046452 0.253725
vt -0.000213 0.309213
vt 0.030862 0.751914
vt 0.071269 0.695607
vt 0.135169 0.642313
vt 0.229786 0.602088
vt 0.321924 0.576806
vt 0.661763 0.585578
vt 0.757528 0.612263
vt 0.840229 0.656921
vt 0.903877 0.703428
vt 0.921979 0.764310
vt 0.918901 0.823165
vt 0.884269 0.878256
vt 0.819801 0.925450
vt 0.738750 0.967686
vt 0.635414 0.994440
vt 0.525226 1.007985
vt 0.396602 1.003356
vt 0.296697 0.986547
vt 0.196595 0.954146
vt 0.110821 0.918272
vt 0.058809 0.863733
vt 0.038571 0.803862
vt 0.826650 0.245588
vt 0.853708 0.246979
vt 0.858007 0.598312
vt 0.823377 0.597304
vt 0.771861 0.226415
vt 0.800251 0.240337
vt 0.788752 0.595627
vt 0.754060 0.593333
vt 0.911636 0.239551
vt 0.945123 0.223232
vt 0.959069 0.597523
vt 0.927609 0.598273
vt 0.881812 0.245417
vt 0.892710 0.598634
vt 0.906077 0.221601
vt 0.929789 0.207513
vt 0.784199 0.214847
vt 0.804884 0.226015
vt 0.828678 0.229634
vt 0.854049 0.229991
vt 0.880140 0.227762
vt 0.913660 0.194403
vt 0.861787 0.206726
vt 0.869370 0.179528
vt 0.895307 0.173367
vt 0.088757 0.245588
vt 0.115814 0.246979
vt 0.120114 0.598312
vt 0.085483 0.597304
vt 0.033967 0.226415
vt 0.062357 0.240337
vt 0.050858 0.595627
vt 0.016167 0.593333
vt 0.173743 0.239551
vt 0.207229 0.223232
vt 0.221175 0.597523
vt 0.189715 0.598273
vt 0.143918 0.245417
vt 0.154817 0.598634
vt 0.168183 0.221601
vt 0.191896 0.207513
vt 0.046305 0.214847
vt 0.066991 0.226015
vt 0.090784 0.229634
vt 0.116155 0.229991
vt 0.142247 0.227762
vt 0.175767 0.194403
vt 0.123894 0.206726
vt 0.131477 0.179528
vt 0.157413 0.173367
vt 0.572418 0.502921
vt 0.599475 0.504311
vt 0.603775 0.855644
vt 0.569145 0.854636
vt 0.517629 0.483747
vt 0.546019 0.497669
vt 0.534520 0.852960
vt 0.499828 0.850666
vt 0.657404 0.496883
vt 0.690890 0.480565
vt 0.704837 0.854855
vt 0.673377 0.855606
vt 0.627580 0.502750
vt 0.638478 0.855966
vt 0.651845 0.478933
vt 0.675557 0.464846
vt 0.529967 0.472180
vt 0.550652 0.483347
vt 0.574445 0.486966
vt 0.599816 0.487323
vt 0.625908 0.485095
vt 0.659428 0.451736
vt 0.607555 0.464058
vt 0.615138 0.436861
vt 0.641075 0.430699
vn -0.9907 -0.0076 0.1360
vn -0.9906 0.0049 -0.1366
vn -0.9906 0.0049 -0.1367
vn -0.9060 -0.0093 -0.4232
vn -0.9059 -0.0093 -0.4233
vn -0.7708 -0.0342 -0.6361
vn -0.7709 -0.0342 -0.6361
vn -0.5822 -0.0348 -0.8123
vn -0.3492 -0.0256 -0.9367
vn -0.3493 -0.0256 -0.9367
vn -0.1142 -0.0369 -0.9928
vn 0.1796 -0.0466 -0.9826
vn 0.4502 -0.0086 -0.8929
vn 0.6202 0.0210 -0.7842
vn 0.6201 0.0210 -0.7842
vn 0.7782 0.0358 -0.6270
vn 0.9336 0.0534 -0.3542
vn 0.9337 0.0534 -0.3541
vn 0.9968 0.0082 -0.0796
vn 0.9882 -0.0441 0.1469
vn 0.8963 -0.0349 0.4420
vn 0.8964 -0.0349 0.4418
vn 0.7580 0.0297 0.6516
vn 0.7580 0.0296 0.6516
vn 0.6267 0.0326 0.7786
vn 0.3591 -0.0315 0.9328
vn 0.0697 -0.0437 0.9966
vn 0.0698 -0.0437 0.9966
vn -0.1814 -0.0381 0.9827
vn -0.4357 -0.0505 0.8987
vn -0.5981 -0.0322 0.8008
vn -0.8000 0.0413 0.5986
vn -0.9482 0.0297 0.3164
vn 0.0000 1.0000 -0.0000
vn 0.0000 -1.0000 0.0000
vn 0.0000 -0.0193 0.9998
vn 0.8640 0.0682 0.4988
vn 0.8625 0.0898 0.4980
vn -0.0000 0.0008 1.0000
vn -0.8611 -0.1064 -0.4972
vn -0.8611 -0.1064 0.4972
vn -0.8627 -0.0882 0.4980
vn -0.8627 -0.0882 -0.4980
vn -0.0000 -0.0193 -0.9998
vn -0.0000 0.0008 -1.0000
vn 0.8640 0.0682 -0.4988
vn 0.8625 0.0898 -0.4980
vn 0.0000 -0.9485 -0.3169
vn -0.2744 -0.9485 -0.1585
vn -0.2744 -0.9485 0.1584
vn 0.0000 -0.9485 0.3169
vn 0.2744 -0.9485 0.1584
vn 0.2744 -0.9485 -0.1585
vn 0.8659 -0.0193 -0.4999
vn -0.0000 0.0682 -0.9977
vn -0.0000 0.0898 -0.9960
vn 0.8660 0.0008 -0.5000
vn 0.0000 -0.1064 0.9943
vn 0.8611 -0.1064 0.4972
vn 0.8626 -0.0882 0.4981
vn 0.0000 -0.0882 0.9961
vn -0.8659 -0.0193 0.4999
vn -0.8660 0.0008 0.5000
vn -0.8640 0.0682 -0.4989
vn -0.8625 0.0898 -0.4980
vn 0.2744 -0.9485 -0.1584
vn -0.0001 -0.9485 -0.3169
vn -0.2744 -0.9485 -0.1584
vn -0.8659 -0.0193 -0.4999
vn -0.8640 0.0682 0.4989
vn -0.8625 0.0898 0.4980
vn -0.8660 0.0008 -0.5000
vn 0.8611 -0.1064 -0.4972
vn -0.0000 -0.1064 -0.9943
vn 0.0000 -0.0882 -0.9961
vn 0.8626 -0.0882 -0.4981
vn 0.8659 -0.0193 0.4999
vn 0.8660 0.0008 0.5000
vn -0.0000 0.0682 0.9977
vn -0.0000 0.0898 0.9960
usemtl None
s 1
f 25/1/1 2/2/1 1/3/2 26/4/3
f 26/4/3 1/3/2 3/5/4 27/6/5
f 27/6/5 3/5/4 4/7/6 28/8/7
f 28/8/7 4/7/6 5/9/8 29/10/8
f 29/10/8 5/9/8 6/11/9 30/12/10
f 30/12/10 6/11/9 7/13/11 31/14/11
f 31/14/11 7/13/11 8/15/12 32/16/12
f 32/16/12 8/15/12 9/17/13 33/18/13
f 33/18/13 9/17/13 10/19/14 34/20/15
f 34/20/15 10/19/14 11/21/16 35/22/16
f 35/22/16 11/21/16 12/23/17 36/24/18
f 36/24/18 12/23/17 13/25/19 37/26/19
f 37/27/19 13/25/19 14/28/20 38/29/20
f 38/29/20 14/28/20 15/30/21 39/31/22
f 39/31/22 15/30/21 16/32/23 40/33/24
f 40/33/24 16/32/23 17/34/25 41/35/25
f 41/35/25 17/34/25 18/36/26 42/37/26
f 42/37/26 18/36/26 19/38/27 43/39/28
f 43/39/28 19/38/27 20/40/29 44/41/29
f 44/41/29 20/40/29 21/42/30 45/43/30
f 45/43/30 21/42/30 22/44/31 46/45/31
f 46/45/31 22/44/31 23/46/32 47/47/32
f 47/47/32 23/46/32 24/48/33 48/49/33
f 48/49/33 24/48/33 2/2/1 25/50/1
f 2/2/34 24/48/34 23/46/34 22/44/34 21/42/34 20/40/34 19/38/34 18/36/34 17/34/34 16/32/34 15/30/34 14/28/34 13/25/34 12/23/34 11/21/34 10/19/34 9/17/34 8/15/34 7/13/34 6/11/34 5/9/34 4/7/34 3/5/34 1/3/34
f 26/51/35 27/52/35 28/53/35 29/54/35 30/55/35 31/14/35 32/16/35 33/56/35 34/57/35 35/58/35 36/59/35 37/60/35 38/61/35 39/62/35 40/63/35 41/64/35 42/65/35 43/66/35 44/67/35 45/68/35 46/69/35 47/70/35 48/71/35 25/72/35
f 62/73/36 64/74/37 53/75/38 52/76/39
f 58/77/40 60/78/41 51/79/42 50/80/43
f 55/81/44 58/82/40 50/83/43 49/84/45
f 64/74/37 66/85/46 54/86/47 53/75/38
f 60/78/41 62/73/36 52/76/39 51/79/42
f 66/85/46 55/81/44 49/84/45 54/86/47
f 58/82/40 55/81/44 56/87/48 57/88/49
f 60/78/41 58/77/40 57/89/49 59/90/50
f 62/73/36 60/78/41 59/90/50 61/91/51
f 64/74/37 62/73/36 61/91/51 63/92/52
f 66/85/46 64/74/37 63/92/52 65/93/53
f 55/81/44 66/85/46 65/93/53 56/87/48
f 57/94/49 56/87/48 65/93/53 63/95/52 61/96/51 59/97/50
f 80/98/54 82/99/55 71/100/56 70/101/57
f 76/102/58 78/103/59 69/104/60 68/105/61
f 73/106/62 76/107/58 68/108/61 67/109/63
f 82/99/55 84/110/64 72/111/65 71/100/56
f 78/103/59 80/98/54 70/101/57 69/104/60
f 84/110/64 73/106/62 67/109/63 72/111/65
f 76/107/58 73/106/62 74/112/50 75/113/51
f 78/103/59 76/102/58 75/114/51 77/115/52
f 80/98/54 78/103/59 77/115/52 79/116/66
f 82/99/55 80/98/54 79/116/66 81/117/67
f 84/110/64 82/99/55 81/117/67 83/118/68
f 73/106/62 84/110/64 83/118/68 74/112/50
f 75/119/51 74/112/50 83/118/68 81/120/67 79/121/66 77/122/52
f 98/123/69 100/124/70 89/125/71 88/126/72
f 94/127/73 96/128/74 87/129/75 86/130/76
f 91/131/77 94/132/73 86/133/76 85/134/78
f 100/124/70 102/135/79 90/136/80 89/125/71
f 96/128/74 98/123/69 88/126/72 87/129/75
f 102/135/79 91/131/77 85/134/78 90/136/80
f 94/132/73 91/131/77 92/137/52 93/138/66
f 96/128/74 94/127/73 93/139/66 95/140/67
f 98/123/69 96/128/74 95/140/67 97/141/68
f 100/124/70 98/123/69 97/141/68 99/142/50
f 102/135/79 100/124/70 99/142/50 101/143/51
f 91/131/77 102/135/79 101/143/51 92/137/52
f 93/144/66 92/137/52 101/143/51 99/145/50 97/146/68 95/147/67
