# Blender v2.79 (sub 0) OBJ File: 'benches.blend'
# www.blender.org
mtllib stool_square.mtl
o Stool_Square_Cube.003
v -0.020249 2.679982 1.335776
v 0.017270 3.000643 1.329968
v -1.297851 2.679982 1.345892
v -1.398785 2.935489 1.329384
v 0.000191 2.679982 -1.156534
v 0.020130 3.059012 -1.147449
v -1.254656 2.679982 -1.195866
v -1.376637 2.897146 -1.185606
v 1.273865 2.679982 1.289679
v 1.264509 2.962141 1.291695
v 0.119067 2.679982 1.312591
v 0.033640 2.974661 1.303518
v 1.366813 2.679982 -1.175604
v 1.304045 3.003942 -1.173843
v 0.166887 2.679982 -1.178490
v 0.017025 2.992571 -1.175263
v -0.205804 0.478163 1.282688
v 0.160200 0.488356 1.284586
v -0.158109 0.388039 -1.059504
v 0.201787 0.450807 -1.057743
v -0.270316 1.632003 0.949852
v -0.224712 1.596230 -0.784533
v 0.187095 1.735417 -0.787893
v 0.174715 1.724008 0.946350
v -0.166070 0.402148 -0.787526
v -0.199169 0.464582 0.946930
v 0.165893 0.482900 0.948693
v 0.194768 0.456791 -0.785630
v 0.195074 1.210622 -1.058582
v -0.191294 1.103082 -1.061224
v 0.167641 1.221017 1.282693
v -0.250194 1.174018 1.287960
v 0.171130 1.219760 0.947302
v 0.190233 1.212412 -0.786967
v -0.201043 1.114270 -0.785741
v -0.241751 1.163299 0.948679
v -0.842658 0.000000 1.085989
v -0.891095 0.000000 0.826349
v 0.806715 0.000000 1.085246
v 0.937019 0.000000 0.866770
v -0.675477 2.738925 1.122688
v -0.695415 2.738925 0.790137
v 0.579371 2.738925 1.132330
v 0.701352 2.738925 0.890557
v -0.207290 0.000000 1.085728
v 0.174819 0.000000 1.085505
v 0.205842 0.000000 0.851993
v -0.174898 0.000000 0.841125
v -0.693511 1.203220 0.814252
v -0.661899 1.207143 1.098308
v 0.716006 1.251341 0.874817
v 0.607824 1.243675 1.101314
v -0.178537 1.220695 0.836311
v 0.201071 1.233687 0.852640
v -0.217973 1.219824 1.099342
v 0.163958 1.230962 1.100259
v 0.822121 0.000000 -0.905469
v 0.870557 0.000000 -0.699837
v -0.827253 0.000000 -0.904882
v -0.957557 0.000000 -0.731850
v 0.654939 2.738925 -0.934535
v 0.674877 2.738925 -0.671157
v -0.599909 2.738925 -0.942172
v -0.721890 2.738925 -0.750688
v 0.186752 0.000000 -0.905262
v -0.195357 0.000000 -0.905087
v -0.226380 0.000000 -0.720147
v 0.154360 0.000000 -0.711539
v 0.672973 1.203220 -0.690256
v 0.641361 1.207143 -0.915226
v -0.736544 1.251341 -0.738223
v -0.628362 1.243675 -0.917608
v 0.157999 1.220695 -0.707726
v -0.221609 1.233687 -0.720659
v 0.197435 1.219824 -0.916045
v -0.184496 1.230962 -0.916770
vt 0.688373 0.405899
vt 0.688373 0.411866
vt 0.538841 0.411866
vt 0.538841 0.405899
vt 0.538842 0.592001
vt 0.538842 0.586034
vt 0.688374 0.586034
vt 0.688374 0.592001
vt 0.191136 0.811534
vt 0.191136 0.817236
vt 0.048248 0.817236
vt 0.048248 0.811534
vt 0.684556 0.437376
vt 0.684555 0.603805
vt 0.544839 0.603805
vt 0.544839 0.437376
vt 0.048248 0.989367
vt 0.048248 0.983665
vt 0.191136 0.983665
vt 0.191136 0.989367
vt 0.011540 0.817236
vt 0.011540 0.983665
vt 0.402035 0.260399
vt 0.402035 0.303675
vt 0.354777 0.303711
vt 0.354777 0.260003
vt 0.354777 0.310398
vt 0.402035 0.310797
vt 0.477844 0.682371
vt 0.441136 0.682371
vt 0.441136 0.637578
vt 0.477844 0.637591
vt 0.477844 0.437451
vt 0.441136 0.437464
vt 0.441136 0.425155
vt 0.477844 0.425155
vt 0.934555 0.628920
vt 0.878163 0.629109
vt 0.878461 0.429527
vt 0.934556 0.429715
vt 0.339966 0.300604
vt 0.470002 0.300604
vt 0.470002 0.312913
vt 0.340105 0.312874
vt 0.402035 0.504491
vt 0.354777 0.504109
vt 0.251214 0.312847
vt 0.340707 0.513065
vt 0.251214 0.513092
vt 0.402035 0.511425
vt 0.354777 0.510615
vt 0.402035 0.554437
vt 0.354777 0.554060
vt 0.878097 0.674168
vt 0.794839 0.674168
vt 0.794839 0.629387
vt 0.470003 0.513026
vt 0.794839 0.429248
vt 0.794839 0.384467
vt 0.878538 0.384467
vt 0.356780 0.682371
vt 0.441136 0.692297
vt 0.355989 0.692297
vt 0.470003 0.534021
vt 0.340837 0.534021
vt 0.441136 0.415229
vt 0.356211 0.425155
vt 0.355537 0.415229
vt 0.268685 0.256989
vt 0.303710 0.256989
vt 0.303710 0.374041
vt 0.268685 0.375063
vt 0.325214 0.374041
vt 0.325213 0.256989
vt 0.369738 0.256989
vt 0.369711 0.373500
vt 0.364378 0.245136
vt 0.366543 0.256989
vt 0.314157 0.256989
vt 0.314157 0.245136
vt 0.457458 0.614809
vt 0.314158 0.614809
vt 0.314158 0.602956
vt 0.457458 0.602956
vt 0.600642 0.367376
vt 0.642376 0.368060
vt 0.600642 0.597190
vt 0.678288 0.368639
vt 0.720021 0.369297
vt 0.720021 0.597190
vt 0.457458 0.245136
vt 0.457458 0.256989
vt 0.405072 0.256989
vt 0.407237 0.245136
vt 0.642480 0.251222
vt 0.600642 0.251222
vt 0.574514 0.373142
vt 0.539489 0.372558
vt 0.539489 0.256989
vt 0.574514 0.256989
vt 0.720021 0.251222
vt 0.678184 0.251222
vt 0.325214 0.602956
vt 0.574514 0.602956
vt 0.539490 0.602956
vt 0.303710 0.602956
vt 0.268685 0.602956
vt 0.402513 0.373100
vt 0.402486 0.256989
vt 0.447010 0.256989
vt 0.447010 0.372558
vt 0.343064 0.356477
vt 0.404434 0.356784
vt 0.406890 0.378950
vt 0.341700 0.378627
vt 0.402267 0.449462
vt 0.341700 0.447825
vt 0.402882 0.285150
vt 0.344987 0.286555
vt 0.178738 0.256989
vt 0.213762 0.256989
vt 0.213762 0.374041
vt 0.178738 0.375063
vt 0.317297 0.374041
vt 0.317297 0.256989
vt 0.361822 0.256989
vt 0.361794 0.373500
vt 0.274431 0.245136
vt 0.276595 0.256989
vt 0.224210 0.256989
vt 0.224210 0.245136
vt 0.367511 0.614809
vt 0.224210 0.614809
vt 0.224210 0.602956
vt 0.367511 0.602956
vt 0.447011 0.602956
vt 0.367510 0.245136
vt 0.367510 0.256989
vt 0.315125 0.256989
vt 0.317289 0.245136
vt 0.552532 0.251222
vt 0.552429 0.368060
vt 0.510695 0.367376
vt 0.510695 0.251222
vt 0.402535 0.373142
vt 0.367510 0.372558
vt 0.402535 0.256989
vt 0.630074 0.251222
vt 0.630074 0.369297
vt 0.588340 0.368639
vt 0.588236 0.251222
vt 0.317298 0.602956
vt 0.402535 0.602956
vt 0.213763 0.602956
vt 0.178738 0.602956
vt 0.394597 0.373100
vt 0.394569 0.256989
vt 0.439094 0.256989
vt 0.439094 0.372558
vt 0.253116 0.356477
vt 0.314487 0.356784
vt 0.316943 0.378950
vt 0.251753 0.378627
vt 0.312319 0.449462
vt 0.251753 0.447825
vt 0.312935 0.285150
vt 0.255040 0.286555
vt 0.510695 0.597190
vt 0.630074 0.597190
vt 0.439095 0.602956
vt 0.227844 0.817236
vt 0.227844 0.983665
vt 0.943579 0.776984
vt 0.783784 0.776984
vt 0.783784 0.586637
vt 0.943580 0.586637
vt 0.726789 0.586034
vt 0.726789 0.411866
vt 0.500426 0.586034
vt 0.500426 0.411866
vn 0.0026 0.0390 0.9992
vn 0.0269 0.0370 -0.9990
vn 0.0146 0.0146 0.9998
vn 0.0000 -1.0000 0.0000
vn 0.0017 0.0084 -1.0000
vn -0.9324 -0.3613 -0.0072
vn -0.1237 0.9921 -0.0198
vn 0.0057 -0.0001 1.0000
vn 0.1604 -0.9862 0.0408
vn 0.1067 -0.9938 0.0321
vn 0.1048 -0.9940 0.0319
vn 0.0938 -0.9952 0.0266
vn 0.0956 -0.9951 0.0265
vn 0.0388 -0.9988 0.0290
vn -0.9982 -0.0548 -0.0235
vn -0.9983 -0.0525 -0.0243
vn -0.9981 -0.0573 -0.0210
vn 0.9999 -0.0086 0.0138
vn 0.9999 -0.0045 0.0138
vn 0.9999 -0.0032 0.0122
vn -0.2606 0.9654 -0.0111
vn 1.0000 -0.0004 0.0091
vn 0.9999 0.0022 0.0149
vn -0.0057 0.0001 -1.0000
vn -0.2555 0.9663 -0.0297
vn -0.9984 -0.0477 -0.0301
vn -0.9984 -0.0511 -0.0249
vn 0.9998 0.0035 0.0178
vn -0.9981 -0.0584 -0.0198
vn -0.9979 -0.0621 -0.0201
vn 0.0063 -0.0016 -1.0000
vn 0.9997 0.0075 0.0217
vn 0.0045 -0.0022 1.0000
vn 0.8714 0.1421 0.4695
vn 0.8865 0.0750 0.4566
vn 0.8868 0.0733 0.4563
vn 0.0508 0.0099 -0.9987
vn 0.0296 0.0062 -0.9995
vn 0.0590 0.0026 -0.9983
vn 0.0002 1.0000 -0.0002
vn 0.0000 1.0000 0.0000
vn -0.0012 -0.0131 0.9999
vn -0.0032 -0.0151 0.9999
vn -0.0055 -0.0179 0.9998
vn -0.0032 -0.0171 0.9998
vn -0.0012 -0.0165 0.9999
vn -0.0055 -0.0188 0.9998
vn -0.0006 -0.0106 0.9999
vn -0.9909 0.0727 0.1132
vn -0.9907 0.0750 0.1137
vn -0.9778 0.1535 0.1428
vn -0.0006 -0.0125 0.9999
vn 0.0608 0.0004 -0.9982
vn -0.9965 -0.0050 0.0833
vn 0.8974 0.0061 0.4412
vn 0.0591 -0.0068 -0.9982
vn 0.0300 -0.0094 -0.9995
vn 0.0525 -0.0136 -0.9985
vn 0.0317 -0.9995 -0.0023
vn 0.9901 0.0053 0.1401
vn -0.9901 -0.0054 -0.1402
vn -0.8194 0.1336 -0.5574
vn -0.8363 0.0705 -0.5438
vn -0.8366 0.0690 -0.5434
vn -0.0403 0.0078 0.9992
vn -0.0234 0.0049 0.9997
vn -0.0468 0.0021 0.9989
vn -0.0001 1.0000 0.0001
vn 0.0613 -0.0055 -0.9981
vn 0.0005 -0.0084 -1.0000
vn 0.0025 -0.0120 -0.9999
vn 0.0009 -0.0104 -0.9999
vn 0.9873 0.0722 -0.1418
vn 0.9869 0.0750 -0.1431
vn 0.9719 0.1525 -0.1793
vn 0.0005 -0.0099 -1.0000
vn 0.0009 -0.0131 -0.9999
vn 0.0025 -0.0135 -0.9999
vn -0.0482 0.0003 0.9988
vn 0.9945 -0.0050 -0.1050
vn -0.8496 0.0057 -0.5274
vn -0.0468 -0.0054 0.9989
vn -0.0238 -0.0074 0.9997
vn -0.0417 -0.0108 0.9991
vn -0.0317 -0.9995 0.0029
vn -0.9844 0.0053 -0.1759
vn 0.9844 -0.0054 0.1761
vn 0.0044 -0.0142 -0.9999
vn 0.0044 -0.0149 -0.9999
vn -0.0483 -0.0041 0.9988
vn -0.0805 0.9967 0.0036
vn 0.9926 0.1179 0.0277
vn 0.9966 -0.0819 0.0037
vn -0.9044 -0.4266 -0.0085
vn 0.0005 0.9999 0.0121
usemtl None
s 1
f 1/1/1 2/2/1 4/3/1 3/4/1
f 7/5/2 8/6/2 6/7/2 5/8/2
f 9/9/3 10/10/3 12/11/3 11/12/3
f 11/13/4 15/14/4 13/15/4 9/16/4
f 15/17/5 16/18/5 14/19/5 13/20/5
f 11/21/6 12/11/6 16/18/6 15/22/6
f 31/23/7 33/24/7 36/25/7 32/26/7
f 21/27/8 36/25/8 33/24/8 24/28/8
f 19/29/9 20/30/9 28/31/10 25/32/11
f 26/33/12 27/34/13 18/35/14 17/36/14
f 22/37/15 35/38/16 36/39/17 21/40/15
f 31/41/18 18/42/18 27/43/19 33/44/20
f 27/34/13 26/33/12 25/32/11 28/31/10
f 23/45/21 22/46/21 21/27/21 24/28/21
f 24/47/22 33/44/20 34/48/23 23/49/22
f 23/45/24 34/50/24 35/51/24 22/46/24
f 35/51/25 34/50/25 29/52/25 30/53/25
f 30/54/26 19/55/26 25/56/27 35/38/16
f 33/44/20 27/43/19 28/57/28 34/48/23
f 35/38/16 25/56/27 26/58/29 36/39/17
f 36/39/17 26/58/29 17/59/30 32/60/30
f 29/61/31 20/30/31 19/62/31 30/63/31
f 34/48/23 28/57/28 20/64/32 29/65/32
f 17/66/33 18/35/33 31/67/33 32/68/33
f 39/69/34 40/70/34 51/71/35 52/72/36
f 51/73/37 40/74/38 47/75/38 54/76/39
f 46/77/4 47/78/4 40/79/4 39/80/4
f 41/81/40 43/82/41 44/83/41 42/84/41
f 50/85/42 55/86/43 41/87/44
f 56/88/45 52/89/46 43/90/47
f 37/91/4 38/92/4 48/93/4 45/94/4
f 45/95/48 55/86/43 50/85/42 37/96/48
f 50/97/49 49/98/50 38/99/51 37/100/51
f 39/101/52 52/89/46 56/88/45 46/102/52
f 44/103/53 51/73/37 54/76/39
f 41/104/54 42/105/54 49/98/50 50/97/49
f 51/71/35 44/106/55 43/107/55 52/72/36
f 53/108/56 48/109/57 38/110/57 49/111/58
f 54/112/59 56/113/59 55/114/59 53/115/59
f 45/116/60 48/117/60 53/115/60 55/114/60
f 46/118/61 56/113/61 54/112/61 47/119/61
f 59/120/62 60/121/62 71/122/63 72/123/64
f 71/124/65 60/125/66 67/126/66 74/127/67
f 66/128/4 67/129/4 60/130/4 59/131/4
f 61/132/68 63/133/41 64/134/41 62/135/41
f 42/136/69 44/103/53 54/76/39 53/108/56
f 53/108/56 49/111/58 42/136/69
f 57/137/4 58/138/4 68/139/4 65/140/4
f 65/141/70 75/142/71 70/143/72 57/144/70
f 70/145/73 69/146/74 58/138/75 57/147/75
f 59/148/76 72/149/77 76/150/78 66/151/76
f 64/152/79 71/124/65 74/127/67
f 61/153/80 62/135/80 69/146/74 70/145/73
f 71/122/63 64/154/81 63/155/81 72/123/64
f 73/156/82 68/157/83 58/158/83 69/159/84
f 74/160/85 76/161/85 75/162/85 73/163/85
f 65/164/86 68/165/86 73/163/86 75/162/86
f 66/166/87 76/161/87 74/160/87 67/167/87
f 55/86/43 56/88/45 43/90/47 41/87/44
f 70/143/72 75/142/71 61/168/88
f 76/150/78 72/149/77 63/169/89
f 75/142/71 76/150/78 63/169/89 61/168/88
f 73/156/82 69/159/84 62/170/90
f 62/170/90 64/152/79 74/127/67 73/156/82
f 8/6/91 4/3/91 2/2/91 6/7/91
f 14/19/92 10/10/92 9/171/92 13/172/92
f 7/173/4 5/174/4 1/175/4 3/176/4
f 5/177/93 6/7/93 2/2/93 1/178/93
f 8/6/94 7/179/94 3/180/94 4/3/94
f 12/11/95 10/10/95 14/19/95 16/18/95
