# Blender v2.79 (sub 0) OBJ File: 'LODs_biskupin_tower.blend'
# www.blender.org
mtllib LOD0_biskupin_tower_sharpened_log.mtl
o LOD0_sharpened_log_beams_and_sticks_Circle.158
v 0.081917 1.091263 0.017189
v 0.082440 -0.640223 0.016281
v -0.064218 -0.641066 0.007808
v -0.022264 -0.641018 -0.058202
v 0.048802 1.089284 -0.050831
v -0.032913 -0.644850 0.074732
v 0.048893 -0.643997 -0.053865
v -0.065763 1.083909 0.009891
v -0.024450 1.086439 -0.053646
v -0.032190 1.067632 0.073940
v 0.042238 1.072142 0.078422
v 0.042589 -0.641028 0.078868
v -0.044776 1.799681 0.018318
v -0.067794 1.819738 -0.023589
v -0.040489 1.822063 -0.065490
v 0.008960 1.825391 -0.063990
v 0.030841 1.826217 -0.019000
v 0.004409 1.802832 0.021407
v -0.045323 -1.782215 0.018494
v -0.065317 -1.778816 -0.027247
v -0.037156 -1.779801 -0.072444
v 0.009500 -1.784237 -0.068915
v 0.031957 -1.781018 -0.021090
v 0.005295 -1.779982 0.021121
v -0.058127 1.704978 0.038687
v -0.092655 1.735064 -0.024173
v -0.051697 1.738551 -0.087024
v 0.022477 1.743544 -0.084775
v 0.055298 1.744782 -0.017290
v 0.015651 1.709705 0.043321
v -0.059575 -1.719985 0.040271
v -0.089566 -1.714886 -0.028339
v -0.047324 -1.716364 -0.096136
v 0.022660 -1.723018 -0.090842
v 0.056344 -1.718190 -0.019105
v 0.016352 -1.716635 0.044212
v 0.003317 -0.650523 0.087471
v 0.073583 -0.649303 -0.022912
v -0.052028 -0.645791 -0.030452
v -0.058094 -0.637276 0.046296
v 0.072948 -0.632287 0.053585
v 0.013948 1.079338 -0.064768
v 0.003775 1.069699 0.087142
v 0.073621 1.099013 -0.020593
v -0.054864 1.093619 -0.025936
v -0.057940 1.070762 0.045846
v 0.072015 1.078238 0.053274
v 0.014801 -0.637003 -0.068366
v 0.061987 0.328834 -0.034618
v 0.055620 0.325068 0.096084
v 0.095358 0.331632 0.034201
v -0.051931 0.327088 0.026402
v -0.010280 0.328519 -0.038096
v -0.019402 0.320838 0.091764
v 0.018865 1.883454 -0.040371
v 0.019110 -1.828677 -0.044358
v -0.020782 1.848376 0.020241
v -0.055852 1.827699 -0.003305
v -0.055309 1.878461 -0.042620
v -0.015113 1.836452 -0.065783
v 0.017992 1.832470 0.000932
v -0.055415 -1.790027 -0.004062
v -0.020883 -1.827122 0.018959
v -0.050874 -1.822023 -0.049652
v -0.013548 -1.791518 -0.071112
v 0.019521 -1.788344 0.000104
v -0.018074 1.989087 -0.022421
v -0.016819 -1.906675 -0.025061
v 0.016730 0.320741 0.104819
v 0.086750 0.330945 -0.004131
v -0.040407 0.329416 -0.010429
v -0.044910 0.323555 0.063450
v 0.085689 0.329979 0.070799
v 0.027501 0.327343 -0.048769
v -0.084078 1.711156 0.010864
v -0.023490 1.707666 0.062902
v -0.092544 1.767836 -0.062819
v -0.012730 1.725157 -0.098564
v 0.055805 1.777821 -0.058320
v 0.045133 1.719494 0.018378
v -0.084386 -1.704919 0.011765
v -0.024947 -1.747570 0.062979
v -0.084930 -1.737371 -0.074243
v -0.011025 -1.707525 -0.105759
v 0.055038 -1.750679 -0.063655
v 0.046999 -1.701557 0.019000
vt 0.724629 1.822602
vt 0.765703 1.822602
vt 0.765703 2.188184
vt 0.724629 2.188184
vt 0.683614 2.188184
vt 0.683614 1.822602
vt 0.683614 1.396091
vt 0.724629 1.396091
vt 0.765703 1.396091
vt 0.724629 0.847718
vt 0.765703 0.847718
vt 0.683614 0.847718
vt 0.683614 0.238416
vt 0.724629 0.238416
vt 0.765703 0.238416
vt 0.967954 0.847718
vt 1.007306 0.847719
vt 1.007306 1.396091
vt 0.967954 1.396091
vt 0.928272 1.396091
vt 0.928272 0.847719
vt 0.928272 0.238416
vt 0.967954 0.238416
vt 1.007306 0.238416
vt 0.887934 0.847718
vt 0.887934 1.396091
vt 0.847252 1.396091
vt 0.847252 0.847718
vt 0.847252 0.238416
vt 0.887934 0.238416
vt 0.806543 1.822602
vt 0.806543 1.396091
vt 0.847252 1.822602
vt 0.847252 2.188184
vt 0.806543 2.188184
vt 0.562985 0.847718
vt 0.602716 0.847718
vt 0.602716 1.396091
vt 0.562985 1.396091
vt 0.523507 1.396091
vt 0.523507 0.847718
vt 0.523507 0.238416
vt 0.562986 0.238416
vt 0.602716 0.238416
vt 0.806543 0.847718
vt 0.806543 0.238416
vt 0.967954 1.822602
vt 1.007306 1.822602
vt 1.007306 2.188184
vt 0.967954 2.188184
vt 0.928272 2.188184
vt 0.928272 1.822602
vt 0.887934 1.822602
vt 0.887934 2.188184
vt 0.562985 1.822602
vt 0.602716 1.822602
vt 0.602716 2.188184
vt 0.562985 2.188184
vt 0.523507 2.188184
vt 0.523507 1.822602
vt 0.642950 1.822602
vt 0.642950 1.396091
vt 0.642950 2.188184
vt 0.642950 0.847718
vt 0.642950 0.238416
vt 1.783704 1.300006
vt 1.745711 1.267091
vt 1.859793 1.234179
vt 1.859733 1.300007
vt 1.859689 1.349379
vt 1.745659 1.332920
vt 1.631629 1.300002
vt 1.935744 1.300006
vt 1.973771 1.267091
vt 2.087749 1.300002
vt 1.973719 1.332920
vt 2.011764 1.234171
vt 1.973762 1.201255
vt 2.059241 1.176562
vt 2.087749 1.234167
vt 1.935744 1.168336
vt 1.859741 1.168338
vt 1.859689 1.102497
vt 1.973719 1.135415
vt 1.783704 1.168336
vt 1.745703 1.201254
vt 1.660137 1.176561
vt 1.745659 1.135414
vt 1.707684 1.234171
vt 1.631630 1.234167
vt 1.935747 1.036626
vt 1.859736 1.036635
vt 1.859848 0.970957
vt 1.973798 1.003760
vt 2.087749 1.036563
vt 1.973696 1.069461
vt 1.859655 1.085900
vt 1.783707 1.036600
vt 1.745739 1.003720
vt 1.745637 1.069421
vt 1.631629 1.036484
vt 1.707733 0.970752
vt 1.745775 0.937863
vt 1.631675 0.970649
vt 1.660222 0.913048
vt 1.783798 0.904930
vt 1.859837 0.904987
vt 1.745773 0.871916
vt 1.859826 0.839018
vt 1.935838 0.904956
vt 1.973834 0.937902
vt 1.973832 0.871955
vt 2.059326 0.913117
vt 2.011812 0.970804
vt 2.087794 0.970728
vn 0.9973 0.0320 0.0658
vn 0.9051 0.0071 -0.4251
vn 0.8962 0.0059 -0.4436
vn 0.9990 0.0369 0.0265
vn 0.8677 0.0627 0.4931
vn 0.8350 0.0454 0.5483
vn 0.8426 0.0043 0.5385
vn 0.9997 0.0028 0.0243
vn 0.9020 0.0012 -0.4318
vn 0.9990 -0.0193 0.0409
vn 0.9042 -0.0037 -0.4272
vn 0.8456 -0.0281 0.5331
vn 0.8489 -0.0377 0.5272
vn 0.9997 -0.0219 0.0111
vn 0.8941 -0.0024 -0.4479
vn -0.9984 0.0205 -0.0524
vn -0.9036 0.0063 0.4283
vn -0.8946 0.0000 0.4469
vn -0.9984 -0.0024 -0.0565
vn -0.8454 -0.0034 -0.5341
vn -0.8449 0.0327 -0.5340
vn -0.8408 0.0428 -0.5397
vn -0.9968 0.0287 -0.0741
vn -0.9070 0.0085 0.4210
vn -0.4671 0.0339 -0.8836
vn -0.4889 -0.0017 -0.8724
vn 0.0611 -0.0000 -0.9981
vn 0.0683 0.0255 -0.9973
vn 0.0840 0.0326 -0.9959
vn -0.4786 0.0445 -0.8769
vn 0.5781 -0.0158 -0.8158
vn 0.6009 0.0003 -0.7994
vn 0.0517 -0.0332 -0.9981
vn 0.0493 -0.0499 -0.9975
vn 0.6007 -0.0215 -0.7992
vn -0.5837 -0.0075 0.8120
vn -0.0581 -0.0218 0.9981
vn -0.0598 0.0020 0.9982
vn -0.5549 0.0015 0.8319
vn -0.5720 -0.0092 0.8202
vn -0.0755 -0.0251 0.9968
vn 0.5885 0.0121 -0.8084
vn 0.6131 0.0147 -0.7899
vn -0.9993 -0.0311 -0.0204
vn -0.8887 -0.0069 0.4585
vn -0.9160 -0.0157 0.4008
vn -0.9964 -0.0500 -0.0684
vn -0.8321 -0.0698 -0.5503
vn -0.8508 -0.0505 -0.5231
vn -0.4778 -0.0475 -0.8772
vn -0.5032 -0.0690 -0.8614
vn -0.5822 0.0124 0.8129
vn -0.0662 0.0327 0.9973
vn -0.0667 0.0437 0.9968
vn -0.6191 0.0142 0.7852
vn 0.4694 0.0460 0.8818
vn 0.4442 0.0033 0.8959
vn 0.5059 0.0647 0.8602
vn 0.4688 -0.0301 0.8828
vn 0.4540 -0.0368 0.8902
vn -0.6279 0.2484 0.7376
vn -0.6248 0.2474 0.7406
vn -0.8021 0.2637 0.5357
vn -0.7918 0.2610 0.5522
vn -0.7669 0.2548 0.5890
vn -0.6255 0.2487 0.7396
vn -0.5678 0.2488 0.7846
vn -0.9131 0.2671 0.3080
vn -0.9119 0.2656 0.3130
vn -0.9345 0.2728 0.2287
vn -0.8990 0.2641 0.3493
vn -0.2628 0.2751 -0.9248
vn -0.2661 0.2740 -0.9242
vn 0.0149 0.2876 -0.9576
vn 0.0203 0.2849 -0.9583
vn 0.0073 0.2798 -0.9600
vn -0.2354 0.2746 -0.9323
vn -0.3349 0.2772 -0.9006
vn 0.3135 0.2834 -0.9063
vn 0.3125 0.2820 -0.9071
vn 0.3969 0.2869 -0.8718
vn 0.2716 0.2816 -0.9203
vn 0.9002 0.2789 0.3345
vn 0.8989 0.2771 0.3393
vn 0.7489 0.2784 0.6014
vn 0.7299 0.2746 0.6260
vn 0.6896 0.2664 0.6734
vn 0.8806 0.2759 0.3852
vn 0.9283 0.2839 0.2400
vn 0.5029 0.2565 0.8254
vn 0.4963 0.2552 0.8298
vn 0.4219 0.2556 0.8699
vn 0.4941 0.2568 0.8306
vn -0.7448 -0.3671 0.5572
vn -0.8617 -0.3615 0.3561
vn -0.8617 -0.3644 0.3532
vn -0.7432 -0.3662 0.5600
vn -0.6981 -0.3736 0.6107
vn -0.7611 -0.3649 0.5363
vn -0.8657 -0.3567 0.3511
vn -0.9260 -0.3502 0.1409
vn -0.9272 -0.3494 0.1354
vn -0.9232 -0.3500 0.1590
vn -0.9326 -0.3524 0.0784
vn -0.2281 -0.3739 -0.8990
vn 0.0365 -0.3839 -0.9226
vn 0.0421 -0.3873 -0.9210
vn -0.2340 -0.3728 -0.8979
vn -0.3006 -0.3756 -0.8767
vn -0.2063 -0.3737 -0.9043
vn 0.0244 -0.3787 -0.9252
vn 0.3067 -0.3801 -0.8726
vn 0.3097 -0.3789 -0.8721
vn 0.2739 -0.3788 -0.8840
vn 0.3797 -0.3832 -0.8420
vn 0.8863 -0.3548 0.2978
vn 0.7862 -0.3600 0.5022
vn 0.7855 -0.3630 0.5012
vn 0.8876 -0.3538 0.2950
vn 0.9037 -0.3582 0.2347
vn 0.8768 -0.3535 0.3260
vn 0.7849 -0.3558 0.5073
vn 0.6448 -0.3598 0.6744
vn 0.6417 -0.3591 0.6778
vn 0.6624 -0.3582 0.6580
vn 0.5976 -0.3646 0.7141
usemtl beams_and_sticks
s 1
f 1/1/1 44/2/2 79/3/3 29/4/4
f 1/1/1 29/4/4 80/5/5 47/6/6
f 1/1/1 47/6/6 73/7/7 51/8/8
f 1/1/1 51/8/8 70/9/9 44/2/2
f 2/10/10 38/11/11 70/9/9 51/8/8
f 2/10/10 51/8/8 73/7/7 41/12/12
f 2/10/10 41/12/12 86/13/13 35/14/14
f 2/10/10 35/14/14 85/15/15 38/11/11
f 3/16/16 40/17/17 72/18/18 52/19/19
f 3/16/16 52/19/19 71/20/20 39/21/21
f 3/16/16 39/21/21 83/22/22 32/23/23
f 3/16/16 32/23/23 81/24/24 40/17/17
f 4/25/25 39/21/21 71/20/20 53/26/26
f 4/25/25 53/26/26 74/27/27 48/28/28
f 4/25/25 48/28/28 84/29/29 33/30/30
f 4/25/25 33/30/30 83/22/22 39/21/21
f 5/31/31 49/32/32 74/27/27 42/33/33
f 5/31/31 42/33/33 78/34/34 28/35/35
f 5/31/31 28/35/35 79/3/3 44/2/2
f 5/31/31 44/2/2 70/9/9 49/32/32
f 6/36/36 37/37/37 69/38/38 54/39/39
f 6/36/36 54/39/39 72/40/18 40/41/17
f 6/36/36 40/41/17 81/42/24 31/43/40
f 6/36/36 31/43/40 82/44/41 37/37/37
f 7/45/42 34/46/43 84/29/29 48/28/28
f 7/45/42 48/28/28 74/27/27 49/32/32
f 7/45/42 49/32/32 70/9/9 38/11/11
f 7/45/42 38/11/11 85/15/15 34/46/43
f 8/47/44 46/48/45 75/49/46 26/50/47
f 8/47/44 26/50/47 77/51/48 45/52/49
f 8/47/44 45/52/49 71/20/20 52/19/19
f 8/47/44 52/19/19 72/18/18 46/48/45
f 9/53/50 45/52/49 77/51/48 27/54/51
f 9/53/50 27/54/51 78/34/34 42/33/33
f 9/53/50 42/33/33 74/27/27 53/26/26
f 9/53/50 53/26/26 71/20/20 45/52/49
f 10/55/52 43/56/53 76/57/54 25/58/55
f 10/55/52 25/58/55 75/59/46 46/60/45
f 10/55/52 46/60/45 72/40/18 54/39/39
f 10/55/52 54/39/39 69/38/38 43/56/53
f 11/61/56 50/62/57 73/7/7 47/6/6
f 11/61/56 47/6/6 80/5/5 30/63/58
f 11/61/56 30/63/58 76/57/54 43/56/53
f 11/61/56 43/56/53 69/38/38 50/62/57
f 12/64/59 36/65/60 86/13/13 41/12/12
f 12/64/59 41/12/12 73/7/7 50/62/57
f 12/64/59 50/62/57 69/38/38 37/37/37
f 12/64/59 37/37/37 82/44/41 36/65/60
f 13/66/61 57/67/62 67/68/63 58/69/64
f 13/66/61 58/69/64 75/70/65 25/71/66
f 13/66/61 25/71/66 76/72/67 57/67/62
f 14/73/68 58/69/64 67/68/63 59/74/69
f 14/73/68 59/74/69 77/75/70 26/76/71
f 14/73/68 26/76/71 75/70/65 58/69/64
f 15/77/72 59/74/73 67/68/74 60/78/75
f 15/77/72 60/78/75 78/79/76 27/80/77
f 15/77/72 27/80/77 77/75/78 59/74/73
f 16/81/79 60/78/75 67/68/74 55/82/80
f 16/81/79 55/82/80 79/83/81 28/84/82
f 16/81/79 28/84/82 78/79/76 60/78/75
f 17/85/83 55/82/84 67/68/85 61/86/86
f 17/85/83 61/86/86 80/87/87 29/88/88
f 17/85/83 29/88/88 79/83/89 55/82/84
f 18/89/90 61/86/86 67/68/85 57/67/91
f 18/89/90 57/67/91 76/72/92 30/90/93
f 18/89/90 30/90/93 80/87/87 61/86/86
f 19/91/94 62/92/95 68/93/96 63/94/97
f 19/91/94 63/94/97 82/95/98 31/96/99
f 19/91/94 31/96/99 81/97/100 62/92/95
f 20/98/101 64/99/102 68/93/96 62/92/95
f 20/98/101 62/92/95 81/97/100 32/100/103
f 20/98/101 32/100/103 83/101/104 64/99/102
f 21/102/105 65/103/106 68/93/107 64/99/108
f 21/102/105 64/99/108 83/101/109 33/104/110
f 21/102/105 33/104/110 84/105/111 65/103/106
f 22/106/112 56/107/113 68/93/107 65/103/106
f 22/106/112 65/103/106 84/105/111 34/108/114
f 22/106/112 34/108/114 85/109/115 56/107/113
f 23/110/116 66/111/117 68/93/118 56/107/119
f 23/110/116 56/107/119 85/109/120 35/112/121
f 23/110/116 35/112/121 86/113/122 66/111/117
f 24/114/123 63/94/124 68/93/118 66/111/117
f 24/114/123 66/111/117 86/113/122 36/115/125
f 24/114/123 36/115/125 82/95/126 63/94/124
