# Blender v2.79 (sub 0) OBJ File: 'LODs_biskupin_tower.blend'
# www.blender.org
mtllib LOD1_biskupin_tower_sharpened_log.mtl
o LOD1_sharpened_log_beams_and_sticks_Circle.003
v -0.018074 1.989087 -0.022421
v -0.016819 -1.906675 -0.025061
v 0.028540 0.431356 0.133304
v 0.107962 0.437685 0.009591
v -0.036698 0.436293 0.002828
v -0.041044 0.429215 0.085082
v 0.109111 0.437803 0.093743
v 0.042291 0.432362 -0.043366
v -0.092765 1.702291 0.014472
v -0.023490 1.707666 0.062902
v -0.092544 1.767836 -0.062819
v -0.010850 1.709266 -0.111229
v 0.055805 1.777821 -0.058320
v 0.054792 1.711744 0.023741
v -0.094202 -1.692401 0.017564
v -0.024947 -1.747570 0.062979
v -0.084930 -1.737371 -0.074243
v -0.009718 -1.695358 -0.118030
v 0.055038 -1.750679 -0.063655
v 0.057651 -1.685701 0.025446
vt 0.765821 2.188184
vt 0.683437 2.188184
vt 0.683437 1.457021
vt 0.765821 1.457021
vt 0.683437 0.238416
vt 0.765821 0.238416
vt 1.007306 1.457021
vt 0.928601 1.457021
vt 0.928601 0.238416
vt 1.007306 0.238416
vt 0.847266 1.457021
vt 0.847266 0.238416
vt 0.847266 2.188184
vt 0.602463 1.457021
vt 0.523507 1.457021
vt 0.523507 0.238416
vt 0.602464 0.238416
vt 1.007306 2.188184
vt 0.928601 2.188184
vt 0.602463 2.188184
vt 0.523507 2.188184
vt 1.859793 1.234179
vt 1.859689 1.365837
vt 1.631629 1.300002
vt 2.087749 1.300002
vt 2.087749 1.168332
vt 1.859689 1.102497
vt 1.631630 1.168332
vt 1.859848 0.970957
vt 2.087749 1.036563
vt 1.859644 1.102359
vt 1.631629 1.036484
vt 1.631721 0.904814
vt 1.859826 0.839018
vt 2.087839 0.904893
vn 0.7878 -0.0001 -0.6160
vn 0.8325 0.0644 0.5503
vn 0.8405 0.0000 0.5418
vn 0.8227 -0.0015 -0.5684
vn 0.8435 -0.0377 0.5358
vn 0.8501 -0.0026 -0.5266
vn -0.8998 0.0011 0.4364
vn -0.8413 0.0012 -0.5406
vn -0.8433 0.0387 -0.5361
vn -0.9053 0.0082 0.4246
vn 0.2842 -0.0014 -0.9588
vn 0.2273 0.0280 -0.9734
vn 0.3474 -0.0347 -0.9371
vn -0.0568 0.0002 0.9984
vn -0.0530 -0.0307 0.9981
vn -0.8897 -0.0112 0.4564
vn -0.8353 -0.0626 -0.5461
vn -0.0631 0.0527 0.9966
vn -0.7808 0.2755 0.5607
vn -0.5678 0.2488 0.7846
vn -0.9345 0.2728 0.2287
vn 0.0085 0.3027 -0.9530
vn -0.3349 0.2772 -0.9006
vn 0.3969 0.2869 -0.8718
vn 0.7134 0.2933 0.6364
vn 0.7134 0.2934 0.6364
vn 0.9283 0.2839 0.2400
vn 0.4219 0.2556 0.8699
vn -0.8580 -0.3789 0.3469
vn -0.6981 -0.3736 0.6107
vn -0.8579 -0.3789 0.3470
vn -0.9326 -0.3524 0.0784
vn 0.0308 -0.4034 -0.9145
vn -0.3006 -0.3756 -0.8767
vn 0.3797 -0.3832 -0.8420
vn 0.7788 -0.3770 0.5012
vn 0.9037 -0.3582 0.2347
vn 0.7789 -0.3770 0.5012
vn 0.5976 -0.3646 0.7141
usemtl beams_and_sticks
s 1
f 13/1/1 14/2/2 7/3/3 4/4/4
f 4/4/4 7/3/3 20/5/5 19/6/6
f 6/7/7 5/8/8 17/9/9 15/10/10
f 5/8/8 8/11/11 18/12/12 17/9/9
f 8/11/11 12/13/13 13/1/1 4/4/4
f 3/14/14 6/15/7 15/16/10 16/17/15
f 18/12/12 8/11/11 4/4/4 19/6/6
f 9/18/16 11/19/17 5/8/8 6/7/7
f 11/19/17 12/13/13 8/11/11 5/8/8
f 10/20/18 9/21/16 6/15/7 3/14/14
f 7/3/3 14/2/2 10/20/18 3/14/14
f 20/5/5 7/3/3 3/14/14 16/17/15
f 1/22/19 9/23/19 10/24/20
f 1/22/19 11/25/21 9/23/19
f 1/22/22 12/26/22 11/25/23
f 1/22/22 13/27/24 12/26/22
f 1/22/25 14/28/26 13/27/27
f 1/22/25 10/24/28 14/28/26
f 2/29/29 16/30/30 15/31/31
f 2/29/29 15/31/31 17/32/32
f 2/29/33 17/32/34 18/33/33
f 2/29/33 18/33/33 19/34/35
f 2/29/36 19/34/37 20/35/38
f 2/29/36 20/35/38 16/30/39
