# Blender v2.79 (sub 0) OBJ File: 'LODs_biskupin_tower.blend'
# www.blender.org
mtllib LOD0_biskupin_tower_rope_loop.mtl
o LOD0_rope_loop_cords_and_ropes_Circle.163
v 0.091296 -0.000000 0.091296
v -0.091296 -0.000000 0.091296
v 0.033417 -0.000000 -0.124713
v -0.091296 -0.000000 -0.091296
v 0.124713 -0.000000 0.033416
v -0.033417 -0.000000 0.124713
v -0.124713 -0.000000 -0.033417
v 0.124713 -0.000000 -0.033417
v 0.033417 -0.000000 0.124713
v -0.124713 -0.000000 0.033416
v 0.091296 -0.000000 -0.091296
v -0.033417 -0.000000 -0.124713
v 0.065761 -0.000000 0.065761
v -0.065761 -0.000000 0.065761
v 0.024070 -0.000000 -0.089832
v -0.065761 -0.000000 -0.065761
v 0.089831 -0.000000 0.024070
v -0.024070 -0.000000 0.089831
v -0.089831 -0.000000 -0.024071
v 0.089831 -0.000000 -0.024070
v 0.024070 -0.000000 0.089831
v -0.089831 -0.000000 0.024070
v 0.065761 -0.000000 -0.065761
v -0.024070 -0.000000 -0.089832
v -0.028743 -0.019015 0.107272
v 0.107272 0.019015 0.028743
v -0.078529 0.019015 -0.078529
v 0.028743 -0.019015 0.107272
v 0.107272 0.019015 -0.028744
v -0.107272 0.019015 -0.028744
v 0.078529 -0.019015 0.078528
v 0.078529 0.019015 -0.078529
v -0.028743 -0.019015 -0.107272
v -0.107272 0.019015 0.028743
v 0.107272 -0.019015 0.028743
v 0.028744 0.019015 -0.107272
v -0.078529 -0.019015 -0.078529
v -0.078529 0.019015 0.078528
v 0.107272 -0.019015 -0.028744
v -0.107272 -0.019015 -0.028744
v -0.028743 0.019015 0.107272
v 0.078529 -0.019015 -0.078529
v -0.107272 -0.019015 0.028743
v 0.028743 0.019015 0.107272
v 0.028744 -0.019015 -0.107272
v -0.078529 -0.019015 0.078528
v 0.078529 0.019015 0.078528
v -0.028743 0.019015 -0.107272
v -0.032248 -0.013926 -0.120353
v -0.088104 -0.013926 -0.088104
v -0.120353 -0.013926 -0.032249
v -0.120353 -0.013926 0.032248
v -0.088104 -0.013926 0.088104
v -0.032248 -0.013926 0.120352
v 0.032248 -0.013926 0.120352
v 0.088104 -0.013926 0.088104
v 0.120353 -0.013926 0.032248
v 0.120353 -0.013926 -0.032249
v 0.088104 -0.013926 -0.088104
v 0.032248 -0.013926 -0.120353
v -0.032248 0.013926 -0.120353
v -0.088104 0.013926 -0.088104
v -0.120353 0.013926 -0.032249
v -0.120353 0.013926 0.032248
v -0.088104 0.013926 0.088104
v -0.032248 0.013926 0.120352
v 0.032248 0.013926 0.120352
v 0.088104 0.013926 0.088104
v 0.120353 0.013926 0.032248
v 0.120353 0.013926 -0.032249
v 0.088104 0.013926 -0.088104
v 0.032248 0.013926 -0.120353
v 0.064595 -0.000000 0.111881
v 0.111881 -0.000000 0.064595
v -0.111882 -0.000000 0.064595
v -0.064595 -0.000000 0.111881
v 0.064595 -0.000000 -0.111882
v 0.000000 -0.000000 -0.129190
v -0.064595 -0.000000 -0.111882
v -0.111882 -0.000000 -0.064595
v 0.129190 -0.000000 -0.000000
v 0.000000 -0.000000 0.129190
v -0.129190 -0.000000 -0.000000
v 0.111882 -0.000000 -0.064595
v -0.025239 -0.014596 -0.094192
v -0.068953 -0.014596 -0.068953
v -0.094191 -0.014596 -0.025239
v -0.094191 -0.014596 0.025238
v -0.068953 -0.014596 0.068953
v -0.025239 -0.014596 0.094191
v 0.025239 -0.014596 0.094191
v 0.068953 -0.014596 0.068953
v 0.094191 -0.014596 0.025238
v 0.094191 -0.014596 -0.025239
v 0.068953 -0.014596 -0.068953
v 0.025239 -0.014596 -0.094192
v -0.025239 0.014596 -0.094192
v -0.068953 0.014596 -0.068953
v -0.094191 0.014596 -0.025239
v -0.094191 0.014596 0.025238
v -0.068953 0.014596 0.068953
v -0.025239 0.014596 0.094191
v 0.025239 0.014596 0.094191
v 0.068953 0.014596 0.068953
v 0.094191 0.014596 0.025238
v 0.094191 0.014596 -0.025239
v 0.068953 0.014596 -0.068953
v 0.025239 0.014596 -0.094192
v 0.046528 -0.000000 0.080589
v 0.080589 -0.000000 0.046528
v -0.080589 -0.000000 0.046528
v -0.046528 -0.000000 0.080589
v 0.046528 -0.000000 -0.080589
v 0.000000 -0.000000 -0.093056
v -0.046528 -0.000000 -0.080589
v -0.080589 -0.000000 -0.046528
v 0.093056 -0.000000 -0.000000
v 0.000000 -0.000000 0.093056
v -0.093056 -0.000000 -0.000000
v 0.080589 -0.000000 -0.046528
v 0.000000 -0.019015 0.111123
v -0.055561 -0.019015 0.096235
v 0.096235 0.019015 0.055561
v 0.111123 0.019015 -0.000000
v -0.055561 0.019015 -0.096236
v -0.096235 0.019015 -0.055562
v 0.055561 -0.019015 0.096235
v 0.096235 0.019015 -0.055562
v -0.111123 0.019015 -0.000000
v 0.096235 -0.019015 0.055561
v 0.055562 0.019015 -0.096236
v -0.055561 -0.019015 -0.096236
v 0.000000 -0.019015 -0.111123
v -0.096235 0.019015 0.055561
v 0.111123 -0.019015 -0.000000
v 0.000000 0.019015 -0.111123
v -0.096235 -0.019015 -0.055562
v -0.055561 0.019015 0.096235
v 0.096235 -0.019015 -0.055562
v -0.111123 -0.019015 -0.000000
v 0.000000 0.019015 0.111123
v 0.055562 -0.019015 -0.096236
v -0.096235 -0.019015 0.055561
v 0.055561 0.019015 0.096235
v 0.000000 -0.013926 -0.124673
v -0.062336 -0.013926 -0.107970
v -0.107970 -0.013926 -0.062337
v -0.124673 -0.013926 -0.000000
v -0.107970 -0.013926 0.062336
v -0.062336 -0.013926 0.107970
v 0.000000 -0.013926 0.124673
v 0.062336 -0.013926 0.107970
v 0.107970 -0.013926 0.062336
v 0.124673 -0.013926 -0.000000
v 0.107970 -0.013926 -0.062337
v 0.062337 -0.013926 -0.107970
v 0.000000 0.013926 -0.124673
v -0.062336 0.013926 -0.107970
v -0.107970 0.013926 -0.062337
v -0.124673 0.013926 -0.000000
v -0.107970 0.013926 0.062336
v -0.062336 0.013926 0.107970
v 0.000000 0.013926 0.124673
v 0.062336 0.013926 0.107970
v 0.107970 0.013926 0.062336
v 0.124673 0.013926 -0.000000
v 0.107970 0.013926 -0.062337
v 0.062337 0.013926 -0.107970
v -0.048786 -0.014596 -0.084501
v 0.000000 -0.014596 -0.097573
v -0.084501 -0.014596 -0.048787
v -0.097573 -0.014596 -0.000000
v -0.084501 -0.014596 0.048786
v -0.048786 -0.014596 0.084500
v 0.000000 -0.014596 0.097573
v 0.048786 -0.014596 0.084500
v 0.084500 -0.014596 0.048786
v 0.097573 -0.014596 -0.000000
v 0.084501 -0.014596 -0.048787
v 0.048786 -0.014596 -0.084501
v -0.048786 0.014596 -0.084501
v 0.000000 0.014596 -0.097573
v -0.084501 0.014596 -0.048787
v -0.097573 0.014596 -0.000000
v -0.084501 0.014596 0.048786
v -0.048786 0.014596 0.084500
v 0.000000 0.014596 0.097573
v 0.048786 0.014596 0.084500
v 0.084500 0.014596 0.048786
v 0.097573 0.014596 -0.000000
v 0.084501 0.014596 -0.048787
v 0.048786 0.014596 -0.084501
vt 0.535266 0.049266
vt 0.535266 0.133873
vt 0.555683 0.133873
vt 0.555683 0.049266
vt 0.555683 -0.036620
vt 0.535266 -0.036620
vt 0.515118 -0.036620
vt 0.515118 0.049266
vt 0.515118 0.133873
vt 0.535266 0.537942
vt 0.535266 0.615047
vt 0.555683 0.615047
vt 0.555683 0.537942
vt 0.555683 0.459611
vt 0.535266 0.459611
vt 0.515118 0.459611
vt 0.515118 0.537942
vt 0.515118 0.615047
vt 0.535266 -0.660635
vt 0.535266 -0.572681
vt 0.555683 -0.572681
vt 0.555683 -0.660635
vt 0.555683 -0.747582
vt 0.535266 -0.747582
vt 0.515118 -0.747582
vt 0.515118 -0.660635
vt 0.515118 -0.572681
vt 0.535266 0.980450
vt 0.535266 1.047977
vt 0.555683 1.047977
vt 0.555683 0.980450
vt 0.555683 0.910543
vt 0.535266 0.910543
vt 0.515118 0.910543
vt 0.515118 0.980450
vt 0.515118 1.047977
vt 0.535266 -0.123785
vt 0.555683 -0.123785
vt 0.555683 -0.212157
vt 0.535266 -0.212157
vt 0.515118 -0.212157
vt 0.515118 -0.123785
vt 0.535266 0.380053
vt 0.555683 0.380053
vt 0.555683 0.299252
vt 0.535266 0.299252
vt 0.515118 0.299252
vt 0.515118 0.380053
vt 0.535266 0.838823
vt 0.555683 0.838823
vt 0.555683 0.765536
vt 0.535266 0.765536
vt 0.515118 0.765536
vt 0.515118 0.838823
vt 0.535266 -0.301663
vt 0.555683 -0.301663
vt 0.555683 -0.391962
vt 0.535266 -0.391962
vt 0.515118 -0.391962
vt 0.515118 -0.301663
vt 0.535266 0.217197
vt 0.555683 0.217197
vt 0.515118 0.217197
vt 0.535266 0.690928
vt 0.555683 0.690928
vt 0.515118 0.690928
vt 0.535266 -0.482712
vt 0.555683 -0.482712
vt 0.515118 -0.482712
vt 0.535266 1.112559
vt 0.535266 1.175668
vt 0.555683 1.175668
vt 0.555683 1.112559
vt 0.515118 1.112559
vt 0.515118 1.175668
vt 0.455410 0.049266
vt 0.435411 0.049266
vt 0.435411 0.133873
vt 0.455410 0.133873
vt 0.475813 0.133873
vt 0.475813 0.049266
vt 0.475813 -0.036620
vt 0.455410 -0.036620
vt 0.435411 -0.036620
vt 0.455410 0.537942
vt 0.435411 0.537942
vt 0.435411 0.615047
vt 0.455410 0.615047
vt 0.475813 0.615047
vt 0.475813 0.537942
vt 0.475813 0.459611
vt 0.455410 0.459611
vt 0.435411 0.459611
vt 0.455410 -0.660635
vt 0.435411 -0.660635
vt 0.435411 -0.572681
vt 0.455410 -0.572681
vt 0.475813 -0.572681
vt 0.475813 -0.660635
vt 0.475813 -0.747582
vt 0.455410 -0.747582
vt 0.435411 -0.747582
vt 0.455410 0.980450
vt 0.435411 0.980450
vt 0.435411 1.047977
vt 0.455410 1.047977
vt 0.475813 1.047977
vt 0.475813 0.980450
vt 0.475813 0.910543
vt 0.455410 0.910543
vt 0.435411 0.910543
vt 0.455410 -0.123785
vt 0.435411 -0.123785
vt 0.475813 -0.123785
vt 0.475813 -0.212157
vt 0.455410 -0.212157
vt 0.435411 -0.212157
vt 0.455410 0.380053
vt 0.435411 0.380053
vt 0.475813 0.380053
vt 0.475813 0.299252
vt 0.455410 0.299252
vt 0.435411 0.299252
vt 0.455410 0.838824
vt 0.435411 0.838823
vt 0.475813 0.838823
vt 0.475813 0.765536
vt 0.455410 0.765536
vt 0.435411 0.765536
vt 0.455410 -0.301663
vt 0.435411 -0.301663
vt 0.475813 -0.301663
vt 0.475813 -0.391962
vt 0.455410 -0.391962
vt 0.435411 -0.391962
vt 0.455410 0.217197
vt 0.435411 0.217197
vt 0.475813 0.217197
vt 0.455410 0.690928
vt 0.435411 0.690928
vt 0.475813 0.690928
vt 0.455410 -0.482712
vt 0.435411 -0.482712
vt 0.475813 -0.482712
vt 0.455410 1.112559
vt 0.435411 1.112559
vt 0.435411 1.175668
vt 0.455410 1.175668
vt 0.475813 1.175668
vt 0.475813 1.112559
vt 0.416926 0.380053
vt 0.399200 0.380053
vt 0.399200 0.459611
vt 0.416926 0.459611
vt 0.416926 0.299252
vt 0.399200 0.299252
vt 0.495508 -0.123785
vt 0.495508 -0.212157
vt 0.495508 -0.036620
vt 0.495508 0.980450
vt 0.495508 0.910543
vt 0.495508 1.047977
vt 0.416926 0.217197
vt 0.399200 0.217197
vt 0.416926 0.133873
vt 0.399200 0.133873
vt 0.495508 -0.301663
vt 0.495508 -0.391962
vt 0.495508 0.838823
vt 0.495508 0.765536
vt 0.416926 0.049266
vt 0.399200 0.049266
vt 0.416926 -0.036620
vt 0.399200 -0.036620
vt 0.495508 -0.482712
vt 0.495508 -0.572681
vt 0.416926 1.112559
vt 0.399200 1.112559
vt 0.399200 1.175668
vt 0.416926 1.175668
vt 0.416926 1.047977
vt 0.399200 1.047977
vt 0.495508 0.690928
vt 0.495508 0.615047
vt 0.416926 -0.123785
vt 0.399200 -0.123785
vt 0.416926 -0.212157
vt 0.399200 -0.212157
vt 0.495508 -0.660635
vt 0.495508 -0.747582
vt 0.416926 0.980450
vt 0.399200 0.980450
vt 0.416926 0.910543
vt 0.399200 0.910543
vt 0.495508 0.537942
vt 0.495508 0.459611
vt 0.416926 -0.301663
vt 0.399200 -0.301663
vt 0.416926 -0.391962
vt 0.399200 -0.391962
vt 0.416926 0.838824
vt 0.399200 0.838823
vt 0.416926 0.765536
vt 0.399200 0.765536
vt 0.495508 0.380053
vt 0.495508 0.299252
vt 0.416926 -0.482712
vt 0.399200 -0.482712
vt 0.416926 -0.572681
vt 0.399200 -0.572681
vt 0.416926 0.690928
vt 0.399200 0.690928
vt 0.416926 0.615047
vt 0.399200 0.615047
vt 0.495508 0.217197
vt 0.495508 0.133873
vt 0.416926 -0.660635
vt 0.399200 -0.660635
vt 0.416926 -0.747582
vt 0.399200 -0.747582
vt 0.416926 0.537942
vt 0.399200 0.537942
vt 0.495508 0.049266
vt 0.495508 1.112559
vt 0.495508 1.175668
vn 0.7071 0.0000 0.7071
vn 0.5000 0.0000 0.8660
vn 0.3699 -0.6729 0.6406
vn 0.5228 -0.6734 0.5228
vn 0.6406 -0.6729 0.3699
vn 0.8660 0.0000 0.5000
vn 0.6406 0.6729 0.3699
vn 0.5228 0.6734 0.5228
vn 0.3699 0.6729 0.6406
vn -0.7071 -0.0000 0.7071
vn -0.8660 0.0000 0.5000
vn -0.6406 -0.6729 0.3699
vn -0.5228 -0.6734 0.5228
vn -0.3699 -0.6729 0.6406
vn -0.5000 0.0000 0.8660
vn -0.3699 0.6729 0.6406
vn -0.5228 0.6734 0.5228
vn -0.6406 0.6729 0.3699
vn 0.2588 -0.0000 -0.9659
vn 0.5000 0.0000 -0.8660
vn 0.3699 -0.6729 -0.6406
vn 0.1913 -0.6734 -0.7141
vn -0.0000 -0.6729 -0.7397
vn -0.0000 0.0000 -1.0000
vn -0.0000 0.6729 -0.7397
vn 0.1913 0.6734 -0.7141
vn 0.3699 0.6729 -0.6406
vn -0.7071 -0.0000 -0.7071
vn -0.5000 0.0000 -0.8660
vn -0.3699 -0.6729 -0.6406
vn -0.5228 -0.6734 -0.5228
vn -0.6406 -0.6729 -0.3699
vn -0.8660 -0.0000 -0.5000
vn -0.6406 0.6729 -0.3699
vn -0.5228 0.6734 -0.5228
vn -0.3699 0.6729 -0.6406
vn 0.9659 0.0000 0.2588
vn 0.7141 -0.6734 0.1913
vn 0.7397 -0.6729 0.0000
vn 1.0000 0.0000 0.0000
vn 0.7397 0.6729 0.0000
vn 0.7141 0.6734 0.1913
vn -0.2588 0.0000 0.9659
vn -0.1913 -0.6734 0.7141
vn -0.0000 -0.6729 0.7397
vn -0.0000 0.0000 1.0000
vn -0.0000 0.6729 0.7397
vn -0.1913 0.6734 0.7141
vn -0.9659 -0.0000 -0.2588
vn -0.7141 -0.6734 -0.1913
vn -0.7397 -0.6729 -0.0000
vn -1.0000 0.0000 -0.0000
vn -0.7397 0.6729 -0.0000
vn -0.7141 0.6734 -0.1913
vn 0.9659 0.0000 -0.2588
vn 0.7141 -0.6734 -0.1913
vn 0.6406 -0.6729 -0.3699
vn 0.8660 0.0000 -0.5000
vn 0.6406 0.6729 -0.3699
vn 0.7141 0.6734 -0.1913
vn 0.2588 0.0000 0.9659
vn 0.1913 -0.6734 0.7141
vn 0.1913 0.6734 0.7141
vn -0.9659 0.0000 0.2588
vn -0.7141 -0.6734 0.1913
vn -0.7141 0.6734 0.1913
vn 0.7071 0.0000 -0.7071
vn 0.5228 -0.6734 -0.5228
vn 0.5228 0.6734 -0.5228
vn -0.2588 0.0000 -0.9659
vn -0.1913 -0.6734 -0.7141
vn -0.1913 0.6734 -0.7141
vn -0.4901 -0.7209 -0.4901
vn -0.3461 -0.7217 -0.5994
vn -0.3461 0.7217 -0.5994
vn -0.4901 0.7209 -0.4901
vn -0.5994 0.7217 -0.3461
vn -0.5994 -0.7217 -0.3461
vn 0.4901 -0.7209 -0.4901
vn 0.5994 -0.7217 -0.3461
vn 0.5994 0.7217 -0.3461
vn 0.4901 0.7209 -0.4901
vn 0.3461 0.7217 -0.5994
vn 0.3461 -0.7217 -0.5994
vn -0.1794 -0.7209 0.6694
vn -0.3461 -0.7217 0.5994
vn -0.3461 0.7217 0.5994
vn -0.1794 0.7209 0.6694
vn -0.0000 0.7217 0.6922
vn 0.0000 -0.7217 0.6922
vn 0.4901 -0.7209 0.4901
vn 0.3461 -0.7217 0.5994
vn 0.3461 0.7217 0.5994
vn 0.4901 0.7209 0.4901
vn 0.5994 0.7217 0.3461
vn 0.5994 -0.7217 0.3461
vn -0.6694 -0.7209 -0.1794
vn -0.6694 0.7209 -0.1794
vn -0.6922 0.7217 -0.0000
vn -0.6922 -0.7217 -0.0000
vn 0.1794 -0.7209 -0.6694
vn 0.1794 0.7209 -0.6694
vn 0.0000 0.7217 -0.6922
vn 0.0000 -0.7217 -0.6922
vn 0.6694 -0.7209 0.1794
vn 0.6694 0.7209 0.1794
vn 0.6922 0.7217 -0.0000
vn 0.6922 -0.7217 -0.0000
vn -0.6694 -0.7209 0.1794
vn -0.6694 0.7209 0.1794
vn -0.5994 0.7217 0.3461
vn -0.5994 -0.7217 0.3461
vn -0.1794 -0.7209 -0.6694
vn -0.1794 0.7209 -0.6694
vn 0.6694 -0.7209 -0.1794
vn 0.6694 0.7209 -0.1794
vn -0.4901 -0.7209 0.4901
vn -0.4901 0.7209 0.4901
vn 0.1794 -0.7209 0.6694
vn 0.1794 0.7209 0.6694
vn -0.0127 -0.9988 0.0474
vn -0.0250 -0.9987 0.0433
vn -0.0000 -0.9987 0.0500
vn 0.0474 0.9988 0.0127
vn 0.0500 0.9987 0.0000
vn 0.0433 0.9987 0.0250
vn -0.0347 0.9988 -0.0347
vn -0.0433 0.9987 -0.0250
vn -0.0250 0.9987 -0.0433
vn 0.0127 -0.9988 0.0474
vn 0.0250 -0.9987 0.0433
vn 0.0474 0.9988 -0.0127
vn 0.0433 0.9987 -0.0250
vn -0.0474 0.9988 -0.0127
vn -0.0500 0.9987 -0.0000
vn 0.0347 -0.9988 0.0347
vn 0.0433 -0.9987 0.0250
vn 0.0347 0.9988 -0.0347
vn 0.0250 0.9987 -0.0433
vn -0.0127 -0.9988 -0.0474
vn -0.0000 -0.9987 -0.0500
vn -0.0250 -0.9987 -0.0433
vn -0.0474 0.9988 0.0127
vn -0.0433 0.9987 0.0250
vn 0.0474 -0.9988 0.0127
vn 0.0500 -0.9987 0.0000
vn 0.0127 0.9988 -0.0474
vn -0.0000 0.9987 -0.0500
vn -0.0347 -0.9988 -0.0347
vn -0.0433 -0.9987 -0.0250
vn -0.0347 0.9988 0.0347
vn -0.0250 0.9987 0.0433
vn 0.0474 -0.9988 -0.0127
vn 0.0433 -0.9987 -0.0250
vn -0.0474 -0.9988 -0.0127
vn -0.0500 -0.9987 -0.0000
vn -0.0127 0.9988 0.0474
vn -0.0000 0.9987 0.0500
vn 0.0347 -0.9988 -0.0347
vn 0.0250 -0.9987 -0.0433
vn -0.0474 -0.9988 0.0127
vn -0.0433 -0.9987 0.0250
vn 0.0127 0.9988 0.0474
vn 0.0250 0.9987 0.0433
vn 0.0127 -0.9988 -0.0474
vn -0.0347 -0.9988 0.0347
vn 0.0347 0.9988 0.0347
vn -0.0127 0.9988 -0.0474
usemtl rope
s 1
f 1/1/1 73/2/2 152/3/3 56/4/4
f 1/1/1 56/4/4 153/5/5 74/6/6
f 1/1/1 74/6/6 165/7/7 68/8/8
f 1/1/1 68/8/8 164/9/9 73/2/2
f 2/10/10 75/11/11 149/12/12 53/13/13
f 2/10/10 53/13/13 150/14/14 76/15/15
f 2/10/10 76/15/15 162/16/16 65/17/17
f 2/10/10 65/17/17 161/18/18 75/11/11
f 3/19/19 77/20/20 156/21/21 60/22/22
f 3/19/19 60/22/22 145/23/23 78/24/24
f 3/19/19 78/24/24 157/25/25 72/26/26
f 3/19/19 72/26/26 168/27/27 77/20/20
f 4/28/28 79/29/29 146/30/30 50/31/31
f 4/28/28 50/31/31 147/32/32 80/33/33
f 4/28/28 80/33/33 159/34/34 62/35/35
f 4/28/28 62/35/35 158/36/36 79/29/29
f 5/37/37 74/6/6 153/5/5 57/38/38
f 5/37/37 57/38/38 154/39/39 81/40/40
f 5/37/37 81/40/40 166/41/41 69/42/42
f 5/37/37 69/42/42 165/7/7 74/6/6
f 6/43/43 76/15/15 150/14/14 54/44/44
f 6/43/43 54/44/44 151/45/45 82/46/46
f 6/43/43 82/46/46 163/47/47 66/48/48
f 6/43/43 66/48/48 162/16/16 76/15/15
f 7/49/49 80/33/33 147/32/32 51/50/50
f 7/49/49 51/50/50 148/51/51 83/52/52
f 7/49/49 83/52/52 160/53/53 63/54/54
f 7/49/49 63/54/54 159/34/34 80/33/33
f 8/55/55 81/40/40 154/39/39 58/56/56
f 8/55/55 58/56/56 155/57/57 84/58/58
f 8/55/55 84/58/58 167/59/59 70/60/60
f 8/55/55 70/60/60 166/41/41 81/40/40
f 9/61/61 82/46/46 151/45/45 55/62/62
f 9/61/61 55/62/62 152/3/3 73/2/2
f 9/61/61 73/2/2 164/9/9 67/63/63
f 9/61/61 67/63/63 163/47/47 82/46/46
f 10/64/64 83/52/52 148/51/51 52/65/65
f 10/64/64 52/65/65 149/12/12 75/11/11
f 10/64/64 75/11/11 161/18/18 64/66/66
f 10/64/64 64/66/66 160/53/53 83/52/52
f 11/67/67 84/58/58 155/57/57 59/68/68
f 11/67/67 59/68/68 156/21/21 77/20/20
f 11/67/67 77/20/20 168/27/27 71/69/69
f 11/67/67 71/69/69 167/59/59 84/58/58
f 12/70/70 78/71/24 145/72/23 49/73/71
f 12/70/70 49/73/71 146/30/30 79/29/29
f 12/70/70 79/29/29 158/36/36 61/74/72
f 12/70/70 61/74/72 157/75/25 78/71/24
f 13/76/28 92/77/73 176/78/74 109/79/29
f 13/76/28 109/79/29 188/80/75 104/81/76
f 13/76/28 104/81/76 189/82/77 110/83/33
f 13/76/28 110/83/33 177/84/78 92/77/73
f 14/85/67 89/86/79 173/87/80 111/88/58
f 14/85/67 111/88/58 185/89/81 101/90/82
f 14/85/67 101/90/82 186/91/83 112/92/20
f 14/85/67 112/92/20 174/93/84 89/86/79
f 15/94/43 96/95/85 180/96/86 113/97/15
f 15/94/43 113/97/15 192/98/87 108/99/88
f 15/94/43 108/99/88 182/100/89 114/101/46
f 15/94/43 114/101/46 170/102/90 96/95/85
f 16/103/1 86/104/91 169/105/92 115/106/2
f 16/103/1 115/106/2 181/107/93 98/108/94
f 16/103/1 98/108/94 183/109/95 116/110/6
f 16/103/1 116/110/6 171/111/96 86/104/91
f 17/112/49 93/113/97 177/84/78 110/83/33
f 17/112/49 110/83/33 189/82/77 105/114/98
f 17/112/49 105/114/98 190/115/99 117/116/52
f 17/112/49 117/116/52 178/117/100 93/113/97
f 18/118/19 90/119/101 174/93/84 112/92/20
f 18/118/19 112/92/20 186/91/83 102/120/102
f 18/118/19 102/120/102 187/121/103 118/122/24
f 18/118/19 118/122/24 175/123/104 90/119/101
f 19/124/37 87/125/105 171/111/96 116/110/6
f 19/124/37 116/110/6 183/109/95 99/126/106
f 19/124/37 99/126/106 184/127/107 119/128/40
f 19/124/37 119/128/40 172/129/108 87/125/105
f 20/130/64 94/131/109 178/117/100 117/116/52
f 20/130/64 117/116/52 190/115/99 106/132/110
f 20/130/64 106/132/110 191/133/111 120/134/11
f 20/130/64 120/134/11 179/135/112 94/131/109
f 21/136/70 91/137/113 175/123/104 118/122/24
f 21/136/70 118/122/24 187/121/103 103/138/114
f 21/136/70 103/138/114 188/80/75 109/79/29
f 21/136/70 109/79/29 176/78/74 91/137/113
f 22/139/55 88/140/115 172/129/108 119/128/40
f 22/139/55 119/128/40 184/127/107 100/141/116
f 22/139/55 100/141/116 185/89/81 111/88/58
f 22/139/55 111/88/58 173/87/80 88/140/115
f 23/142/10 95/143/117 179/135/112 120/134/11
f 23/142/10 120/134/11 191/133/111 107/144/118
f 23/142/10 107/144/118 192/98/87 113/97/15
f 23/142/10 113/97/15 180/96/86 95/143/117
f 24/145/61 85/146/119 170/147/90 114/148/46
f 24/145/61 114/148/46 182/149/89 97/150/120
f 24/145/61 97/150/120 181/107/93 115/106/2
f 24/145/61 115/106/2 169/105/92 85/146/119
f 25/151/121 54/152/44 150/153/14 122/154/122
f 25/151/121 122/154/122 174/93/84 90/119/101
f 25/151/121 90/119/101 175/123/104 121/155/123
f 25/151/121 121/155/123 151/156/45 54/152/44
f 26/157/124 69/42/42 166/41/41 124/158/125
f 26/157/124 124/158/125 190/115/99 105/114/98
f 26/157/124 105/114/98 189/82/77 123/159/126
f 26/157/124 123/159/126 165/7/7 69/42/42
f 27/160/127 62/35/35 159/34/34 126/161/128
f 27/160/127 126/161/128 183/109/95 98/108/94
f 27/160/127 98/108/94 181/107/93 125/162/129
f 27/160/127 125/162/129 158/36/36 62/35/35
f 28/163/130 55/164/62 151/156/45 121/155/123
f 28/163/130 121/155/123 175/123/104 91/137/113
f 28/163/130 91/137/113 176/78/74 127/165/131
f 28/163/130 127/165/131 152/166/3 55/164/62
f 29/167/132 70/60/60 167/59/59 128/168/133
f 29/167/132 128/168/133 191/133/111 106/132/110
f 29/167/132 106/132/110 190/115/99 124/158/125
f 29/167/132 124/158/125 166/41/41 70/60/60
f 30/169/134 63/54/54 160/53/53 129/170/135
f 30/169/134 129/170/135 184/127/107 99/126/106
f 30/169/134 99/126/106 183/109/95 126/161/128
f 30/169/134 126/161/128 159/34/34 63/54/54
f 31/171/136 56/172/4 152/166/3 127/165/131
f 31/171/136 127/165/131 176/78/74 92/77/73
f 31/171/136 92/77/73 177/84/78 130/173/137
f 31/171/136 130/173/137 153/174/5 56/172/4
f 32/175/138 71/69/69 168/27/27 131/176/139
f 32/175/138 131/176/139 192/98/87 107/144/118
f 32/175/138 107/144/118 191/133/111 128/168/133
f 32/175/138 128/168/133 167/59/59 71/69/69
f 33/177/140 49/178/71 145/179/23 133/180/141
f 33/177/140 133/180/141 170/147/90 85/146/119
f 33/177/140 85/146/119 169/105/92 132/181/142
f 33/177/140 132/181/142 146/182/30 49/178/71
f 34/183/143 64/66/66 161/18/18 134/184/144
f 34/183/143 134/184/144 185/89/81 100/141/116
f 34/183/143 100/141/116 184/127/107 129/170/135
f 34/183/143 129/170/135 160/53/53 64/66/66
f 35/185/145 57/186/38 153/174/5 130/173/137
f 35/185/145 130/173/137 177/84/78 93/113/97
f 35/185/145 93/113/97 178/117/100 135/187/146
f 35/185/145 135/187/146 154/188/39 57/186/38
f 36/189/147 72/26/26 157/25/25 136/190/148
f 36/189/147 136/190/148 182/100/89 108/99/88
f 36/189/147 108/99/88 192/98/87 131/176/139
f 36/189/147 131/176/139 168/27/27 72/26/26
f 37/191/149 50/192/31 146/182/30 132/181/142
f 37/191/149 132/181/142 169/105/92 86/104/91
f 37/191/149 86/104/91 171/111/96 137/193/150
f 37/191/149 137/193/150 147/194/32 50/192/31
f 38/195/151 65/17/17 162/16/16 138/196/152
f 38/195/151 138/196/152 186/91/83 101/90/82
f 38/195/151 101/90/82 185/89/81 134/184/144
f 38/195/151 134/184/144 161/18/18 65/17/17
f 39/197/153 58/198/56 154/188/39 135/187/146
f 39/197/153 135/187/146 178/117/100 94/131/109
f 39/197/153 94/131/109 179/135/112 139/199/154
f 39/197/153 139/199/154 155/200/57 58/198/56
f 40/201/155 51/202/50 147/194/32 137/193/150
f 40/201/155 137/193/150 171/111/96 87/125/105
f 40/201/155 87/125/105 172/129/108 140/203/156
f 40/201/155 140/203/156 148/204/51 51/202/50
f 41/205/157 66/48/48 163/47/47 141/206/158
f 41/205/157 141/206/158 187/121/103 102/120/102
f 41/205/157 102/120/102 186/91/83 138/196/152
f 41/205/157 138/196/152 162/16/16 66/48/48
f 42/207/159 59/208/68 155/200/57 139/199/154
f 42/207/159 139/199/154 179/135/112 95/143/117
f 42/207/159 95/143/117 180/96/86 142/209/160
f 42/207/159 142/209/160 156/210/21 59/208/68
f 43/211/161 52/212/65 148/204/51 140/203/156
f 43/211/161 140/203/156 172/129/108 88/140/115
f 43/211/161 88/140/115 173/87/80 143/213/162
f 43/211/161 143/213/162 149/214/12 52/212/65
f 44/215/163 67/63/63 164/9/9 144/216/164
f 44/215/163 144/216/164 188/80/75 103/138/114
f 44/215/163 103/138/114 187/121/103 141/206/158
f 44/215/163 141/206/158 163/47/47 67/63/63
f 45/217/165 60/218/22 156/210/21 142/209/160
f 45/217/165 142/209/160 180/96/86 96/95/85
f 45/217/165 96/95/85 170/102/90 133/219/141
f 45/217/165 133/219/141 145/220/23 60/218/22
f 46/221/166 53/222/13 149/214/12 143/213/162
f 46/221/166 143/213/162 173/87/80 89/86/79
f 46/221/166 89/86/79 174/93/84 122/154/122
f 46/221/166 122/154/122 150/153/14 53/222/13
f 47/223/167 68/8/8 165/7/7 123/159/126
f 47/223/167 123/159/126 189/82/77 104/81/76
f 47/223/167 104/81/76 188/80/75 144/216/164
f 47/223/167 144/216/164 164/9/9 68/8/8
f 48/224/168 61/74/72 158/36/36 125/162/129
f 48/224/168 125/162/129 181/107/93 97/150/120
f 48/224/168 97/150/120 182/149/89 136/225/148
f 48/224/168 136/225/148 157/75/25 61/74/72
