# Blender v2.79 (sub 0) OBJ File: 'LODs_biskupin_tower.blend'
# www.blender.org
mtllib LOD0_biskupin_tower_sharpened_board.mtl
o LOD0_board_boards_and_planks_Cube.070
v 0.139038 1.809353 -0.028258
v 0.131942 1.806978 0.034081
v 0.122640 -1.804608 -0.035833
v 0.124231 -1.789264 0.032438
v -0.124594 1.765235 -0.013786
v -0.145908 1.803643 0.023035
v -0.139376 -1.793572 -0.037568
v -0.107973 -1.797766 0.025890
vt 0.860134 2.417494
vt 0.825825 2.417551
vt 0.825828 0.253008
vt 0.860134 0.252951
vt 0.426800 1.880310
vt 0.443955 1.880310
vt 0.443955 2.177227
vt 0.426800 2.177227
vt 0.609159 0.265676
vt 0.643469 0.265618
vt 0.643466 2.417857
vt 0.609159 2.417915
vt 0.774063 1.880310
vt 0.774063 1.908217
vt 0.591705 1.908217
vt 0.591705 1.880310
vt 0.426800 0.253678
vt 0.426800 2.418221
vn 0.9991 -0.0034 0.0425
vn -0.0066 -0.9963 0.0860
vn -0.9949 -0.0035 0.1013
vn -0.0837 0.9286 -0.3614
vn -0.0245 0.0045 -0.9997
vn -0.0345 0.0000 0.9994
usemtl planks
s 1
f 1/1/1 2/2/1 4/3/1 3/4/1
f 3/5/2 4/6/2 8/7/2 7/8/2
f 7/9/3 8/10/3 6/11/3 5/12/3
f 5/13/4 6/14/4 2/15/4 1/16/4
f 3/17/5 7/9/5 5/12/5 1/18/5
f 8/10/6 4/3/6 2/2/6 6/11/6
