# Blender v2.79 (sub 0) OBJ File: 'LODs_biskupin_tower.blend'
# www.blender.org
mtllib LOD0_biskupin_tower_log.mtl
o LOD0_log_beams_and_sticks_Circle.156
v -0.005313 0.185196 -0.147517
v -0.140303 -1.642928 -0.095579
v 0.121609 1.840798 0.055247
v -0.004626 1.846207 -0.141526
v 0.001641 1.934426 0.056186
v 0.144149 1.038927 -0.093351
v -0.143212 -1.646788 0.074995
v -0.122318 -0.916139 0.116023
v 0.143684 -1.646488 0.080295
v 0.143483 -1.644831 -0.091735
v -0.001559 -1.647621 0.162897
v -0.135358 0.104731 -0.091740
v 0.134055 0.265191 0.063873
v -0.003094 0.265967 0.145369
v -0.002590 0.098151 0.143058
v 0.136621 0.269830 -0.088349
v -0.140061 -1.232987 -0.086325
v -0.000667 0.097377 -0.167773
v 0.130522 0.101841 0.069254
v -0.132492 0.263283 0.069056
v -0.131654 0.104603 0.067355
v -0.002364 0.270705 -0.163866
v 0.136150 0.100939 -0.082482
v -0.006546 -1.233621 -0.159235
v 0.132288 -1.234822 -0.080911
v 0.132305 -1.382583 -0.086364
v -0.132883 -1.387401 0.070957
v -0.002415 -1.231016 0.142082
v -0.003172 -1.386903 0.146145
v -0.001207 -1.383797 -0.167356
v -0.132745 -1.231976 0.062583
v 0.129102 -1.233227 0.071499
v -0.131313 -1.386158 -0.086431
v 0.131910 -1.384445 0.069749
v 0.002688 1.040058 0.158837
v 0.146979 1.038604 0.070672
v -0.143310 1.037138 -0.094855
v -0.140312 1.034251 0.075317
v -0.003140 1.043268 -0.175357
v -0.112342 1.838376 0.058552
v 0.121125 0.182039 0.058851
v -0.123214 0.185003 0.062091
v -0.125957 0.186587 -0.080414
v -0.004435 0.178274 0.127514
v 0.122990 0.187376 -0.073674
v 0.121636 -1.310223 -0.077929
v -0.120836 -1.311282 0.058666
v -0.002991 -1.307141 0.126412
v -0.125488 -1.315158 -0.079522
v 0.120210 -1.308720 0.060649
v -0.006218 -1.312521 -0.150354
v -0.134327 0.263383 -0.087957
v -0.116527 1.843516 -0.076593
v 0.001149 -1.642104 -0.179708
v -0.126918 -1.893002 -0.088079
v -0.123993 -1.893742 0.063716
v 0.001887 -1.894032 0.144368
v 0.125543 -1.897244 0.070116
v 0.124111 -1.897320 -0.082561
v -0.002471 -1.893369 -0.160103
v 0.122525 -0.422404 0.121215
v 0.121069 -0.916821 0.118297
v 0.139900 -0.227331 -0.119690
v 0.136113 -0.731427 -0.113363
v -0.140385 -0.230326 -0.123630
v 0.133654 -0.914298 -0.112860
v -0.000466 -1.002031 0.160353
v -0.006041 -0.998427 -0.172426
v -0.000566 -0.374819 -0.063530
v -0.000783 -0.830929 0.073966
v -0.001616 -0.777908 0.074933
v 0.162652 -0.499235 -0.050479
v -0.005926 -0.775472 -0.052659
v -0.004453 -0.734551 0.035772
v 0.151650 -0.099714 0.059916
v -0.002290 -0.313671 -0.060586
v -0.157779 -1.034314 0.052642
v -0.167995 -1.033305 -0.055093
v 0.000795 -0.422338 -0.018879
v -0.005504 -0.829257 -0.053661
v -0.121547 -0.419748 0.118924
v -0.001160 -0.318204 0.083796
v 0.001519 -0.379274 0.081064
v 0.116044 1.840818 -0.075233
v 0.058685 1.934308 -0.046327
v -0.060921 1.935696 -0.047026
v -0.058769 1.933052 0.022476
v 0.005124 1.841047 0.124099
v -0.003373 1.937080 -0.080419
v 0.061547 1.934298 0.020776
v 0.155423 -0.501678 0.063074
v 0.120126 -0.227405 0.123813
v -0.000541 -0.462878 0.159075
v -0.145199 -0.913386 -0.113227
v -0.003142 -0.465747 -0.178076
v 0.152316 -0.656049 0.061163
v 0.001805 -0.143986 -0.182733
v -0.000030 -0.138071 0.159759
v 0.158885 -0.655594 -0.048167
v -0.151723 -0.098748 0.055753
v -0.121315 -0.228870 0.119742
v -0.002175 -0.273413 0.039402
v -0.003252 -0.870930 0.032894
v -0.004844 -0.870320 -0.017190
v 0.150770 -1.037279 0.056861
v 0.155810 -1.036929 -0.052126
v -0.002106 -0.271151 -0.018196
v -0.159130 -0.099292 -0.059701
v 0.001679 -0.424524 0.038931
v -0.005633 -0.733177 -0.014275
v 0.162498 -0.099904 -0.056240
v -0.158137 -0.655329 0.061509
v -0.155113 -0.499673 0.062757
v -0.124893 -0.733605 0.116084
v -0.001277 -0.689751 0.159289
v -0.004333 -0.686849 -0.175522
v 0.138679 -0.419696 -0.119684
v 0.122000 -0.734055 0.118138
v -0.164290 -0.499882 -0.050172
v -0.142387 -0.420870 -0.121922
v -0.146372 -0.730895 -0.114819
v -0.166951 -0.654362 -0.047879
v -0.000343 -1.913711 -0.008769
v -0.001156 0.298473 -0.180593
v 0.005721 0.067300 -0.187651
v 0.143994 0.295791 0.069713
v 0.142910 0.074194 0.078839
v -0.144015 0.289518 -0.099364
v -0.143442 0.073536 -0.099202
v -0.001477 0.298392 0.161451
v -0.001023 0.073294 0.160374
v -0.143159 0.290058 0.074942
v -0.138704 0.075709 0.073696
v 0.145171 0.296412 -0.098026
v 0.154391 0.070373 -0.096288
v 0.139633 -1.203724 -0.087262
v 0.146281 -1.410637 -0.091429
v -0.000423 -1.200879 0.161134
v -0.004768 -1.420676 0.162497
v -0.154315 -1.196103 -0.092799
v -0.137458 -1.411871 -0.093669
v -0.143795 -1.197620 0.072946
v -0.145789 -1.418572 0.076803
v 0.136279 -1.203707 0.080272
v 0.145325 -1.414195 0.080925
v -0.007589 -1.199379 -0.172144
v 0.004518 -1.410417 -0.180329
v -0.089888 -0.166333 -0.169327
v 0.078318 -0.981230 0.151080
v -0.080812 -0.161780 0.147482
v 0.092474 -0.164060 -0.165603
v -0.077888 0.185471 -0.133672
v 0.067065 0.177412 0.108289
v -0.074239 0.181760 0.113218
v 0.069176 0.185814 -0.126125
v -0.007056 0.127454 -0.147894
v -0.003571 0.242938 -0.147139
v 0.118134 0.129487 0.059669
v 0.144262 0.187060 -0.006552
v 0.124116 0.234591 0.058034
v -0.127275 0.135927 -0.084279
v -0.143179 0.186959 -0.008306
v -0.124638 0.237247 -0.076549
v -0.004158 0.123007 0.125743
v -0.004712 0.233542 0.129286
v -0.124603 0.133497 0.061013
v -0.121825 0.236508 0.063170
v 0.117908 0.131505 -0.068676
v 0.128071 0.243247 -0.078672
v 0.069010 -1.310206 -0.130908
v -0.140695 -1.313768 -0.008219
v 0.068035 -1.306982 0.111506
v 0.141942 -1.310439 -0.008411
v 0.118330 -1.354528 -0.081298
v 0.124943 -1.265919 -0.074560
v -0.072678 -1.308730 0.107940
v -0.001575 -1.353130 0.129794
v -0.004407 -1.261152 0.123029
v -0.079300 -1.314920 -0.133986
v -0.125168 -1.360445 -0.079193
v -0.125808 -1.269871 -0.079851
v -0.119977 -1.356231 0.065112
v -0.121694 -1.266333 0.052220
v 0.118496 -1.354694 0.058573
v 0.121925 -1.262746 0.062725
v -0.006932 -1.357177 -0.154383
v -0.005504 -1.267864 -0.146325
v -0.082029 0.267031 -0.144818
v -0.084453 0.098977 -0.151826
v 0.158797 0.266389 -0.012464
v 0.075667 0.265347 0.122529
v 0.076135 0.099827 0.123989
v 0.153038 0.102707 -0.004963
v -0.079918 0.265722 0.128757
v -0.080303 0.099010 0.124751
v -0.153175 0.261540 -0.010820
v -0.151664 0.108615 -0.010890
v 0.079057 0.272330 -0.145058
v 0.083650 0.098507 -0.143389
v -0.089694 -1.233706 -0.141373
v -0.077933 -1.384745 -0.147746
v 0.074982 -1.231033 0.126552
v 0.151140 -1.235266 -0.004012
v 0.154763 -1.382798 -0.007460
v 0.075386 -1.386240 0.127029
v -0.079515 -1.231791 0.120091
v -0.080387 -1.387076 0.127366
v -0.155221 -1.232174 -0.012277
v -0.152559 -1.387292 -0.006001
v 0.077931 -1.233678 -0.139288
v 0.076370 -1.383136 -0.146487
v 0.031273 1.952135 0.036809
v -0.063791 1.839497 0.109632
v 0.086952 1.041174 0.133438
v -0.081253 1.037127 0.141314
v 0.060115 1.942442 -0.013059
v 0.170227 1.036479 -0.011059
v 0.081957 1.042380 -0.155138
v -0.032559 1.945563 -0.064102
v 0.073092 1.842853 -0.140700
v -0.086458 1.041539 -0.154949
v -0.059342 1.950075 -0.013754
v -0.164371 1.033548 -0.012343
v -0.145178 -1.893933 -0.014313
v -0.143148 -1.873985 -0.097490
v -0.076815 -1.892348 -0.141902
v -0.110689 -1.912019 -0.078668
v -0.072069 -1.893439 0.123959
v -0.140635 -1.875005 0.073188
v -0.107350 -1.912479 0.054244
v 0.075287 -1.895356 0.126052
v 0.001650 -1.874567 0.163297
v 0.002124 -1.913497 0.125440
v 0.144528 -1.898347 -0.005425
v 0.142043 -1.878780 0.079665
v 0.109044 -1.915707 0.060568
v 0.072407 -1.895286 -0.140912
v 0.140685 -1.879025 -0.092041
v 0.107537 -1.915616 -0.073080
v -0.002220 -1.873792 -0.179087
v -0.002722 -1.912946 -0.141119
v 0.084124 -1.643986 -0.158268
v -0.081607 -1.641110 -0.158122
v -0.164364 -1.645505 -0.011425
v -0.085920 -1.647315 0.140747
v 0.083699 -1.647436 0.142420
v 0.167308 -1.645409 -0.004188
v 0.160390 -0.273621 0.040993
v -0.147368 -0.831249 0.074173
v 0.179243 -0.420821 -0.020221
v -0.177654 -0.423855 -0.017536
v 0.171988 -0.870133 -0.016991
v -0.171764 -0.871009 0.032338
v -0.151984 -0.778634 0.075567
v 0.145803 -0.830609 0.073760
v 0.139359 -0.318756 0.083322
v -0.141679 -0.317651 0.084270
v 0.148752 -0.777183 0.074298
v 0.148195 -0.381095 0.079853
v -0.145157 -0.377454 0.082275
v -0.174965 -0.735103 0.037212
v 0.172274 -0.425257 0.038154
v 0.171708 -0.733540 -0.015599
v -0.179969 -0.774997 -0.052229
v 0.168117 -0.775947 -0.053090
v -0.170284 -0.315143 -0.061787
v -0.172423 -0.376096 -0.063017
v 0.171292 -0.373542 -0.064043
v 0.165703 -0.312199 -0.059385
v -0.005917 -0.802058 -0.060144
v 0.002242 -0.405665 0.062984
v 0.138674 -1.002255 -0.094462
v -0.176892 -1.036587 -0.002752
v 0.000166 -0.348928 0.089294
v -0.166624 -0.093705 -0.001721
v -0.000530 -0.804148 0.081205
v -0.003203 -0.754085 0.058628
v -0.001838 -0.344411 -0.069734
v 0.000615 -0.401819 -0.045427
v -0.005756 -0.751758 -0.035828
v 0.166246 -0.829115 -0.054139
v 0.129227 -1.003323 0.099562
v 0.129008 -0.134224 0.105349
v 0.132950 -0.478465 0.102891
v -0.131071 -0.136457 0.100361
v -0.132356 -1.002245 0.096947
v 0.147512 -0.134444 -0.100722
v -0.079330 -0.980057 0.148030
v 0.143128 1.781442 -0.088675
v 0.006853 1.781724 0.156222
v -0.142605 1.784758 -0.090346
v -0.137464 1.778443 0.075692
v 0.149965 1.781418 0.071631
v -0.005125 1.788064 -0.170122
v 0.084221 1.842813 0.120261
v -0.029154 1.942256 0.039551
v 0.138912 1.839795 -0.009880
v -0.071459 1.847212 -0.125706
v 0.026980 1.952150 -0.063845
v -0.150710 1.837471 -0.010833
v 0.088162 1.893878 -0.061286
v -0.089586 1.895941 -0.062325
v -0.086387 1.892012 0.040964
v 0.003389 1.894053 0.091060
v -0.004063 1.897997 -0.111952
v 0.092415 1.893863 0.038437
v 0.077805 -0.701415 0.150345
v -0.145097 -0.137501 -0.104800
v -0.121790 -0.813943 0.119268
v 0.120569 -0.814742 0.121634
v -0.000691 -0.824537 0.159697
v -0.094382 -0.976640 -0.158048
v 0.086918 -0.454286 -0.162103
v 0.082433 -0.977922 -0.157112
v -0.145545 -0.810834 -0.117284
v -0.092558 -0.454476 -0.165413
v 0.134787 -0.811281 -0.116201
v -0.004840 -0.820057 -0.173341
v 0.137632 -0.336452 -0.122793
v -0.140859 -0.338028 -0.126051
v -0.001390 -0.330069 -0.179110
v 0.080470 -0.159396 0.153045
v -0.079490 -0.451678 0.147286
v 0.000339 -0.324956 0.159280
v 0.119724 -0.337412 0.125653
v -0.119219 -0.336472 0.122921
v -0.164741 -0.273206 0.037811
v -0.177255 -0.829398 -0.053184
v -0.150846 -1.000295 -0.095034
v 0.170606 -0.270181 -0.016193
v 0.165260 -0.870851 0.033450
v -0.181675 -0.870507 -0.017388
v -0.001861 -0.854455 0.056701
v -0.002070 -0.291549 0.066517
v -0.002266 -0.287588 -0.041577
v -0.005032 -0.853275 -0.037810
v -0.174818 -0.272120 -0.020200
v -0.002009 -0.265910 0.008986
v 0.166147 -1.041032 0.002273
v -0.004423 -0.877252 0.006834
v -0.168916 -0.423790 0.039708
v -0.182975 -0.732815 -0.012951
v 0.166060 -0.733999 0.034332
v 0.171479 -0.504462 0.009405
v -0.171921 -0.504131 0.010234
v 0.000855 -0.431524 0.010959
v -0.005288 -0.725513 0.010194
v 0.169123 -0.097173 0.001418
v 0.146025 -0.474734 -0.099275
v 0.167917 -0.651928 0.008800
v 0.142517 -0.678332 -0.094100
v 0.130777 -0.679558 0.100438
v -0.132208 -0.475286 0.101090
v -0.174503 -0.650654 0.010074
v -0.135664 -0.679331 0.099240
v 0.078923 -0.453177 0.151360
v -0.080444 -0.700127 0.147143
v -0.001477 -0.576317 0.159094
v 0.085000 -0.698022 -0.159039
v -0.094064 -0.697832 -0.161290
v -0.003955 -0.576261 -0.177569
v 0.153415 -0.577531 -0.065029
v 0.146220 -0.578481 0.075057
v -0.148968 -0.576528 0.073969
v -0.158274 -0.576516 -0.065916
v -0.148890 -0.475829 -0.100282
v -0.152050 -0.677445 -0.095220
v -0.091509 0.067294 -0.166730
v -0.085680 0.293780 -0.159213
v -0.087274 0.071509 0.136399
v -0.084690 0.294435 0.144180
v 0.165916 0.071300 -0.008015
v 0.169231 0.292772 -0.013735
v -0.156899 0.078762 -0.010562
v -0.166422 0.287630 -0.016246
v 0.082683 0.299615 0.134160
v 0.086791 0.075908 0.142295
v 0.084235 0.300412 -0.161024
v 0.102828 0.069634 -0.163620
v -0.099788 -1.197501 -0.152468
v -0.076866 -1.409560 -0.157797
v -0.084846 -1.199773 0.138033
v -0.089601 -1.420501 0.140999
v 0.156889 -1.204834 -0.003096
v 0.171033 -1.410417 -0.003024
v -0.169531 -1.195902 -0.011530
v -0.164639 -1.415494 -0.008588
v 0.082333 -1.418704 0.142178
v 0.082332 -1.201877 0.141973
v 0.085848 -1.411693 -0.158970
v 0.084733 -1.201524 -0.150764
v -0.001866 2.002538 -0.015397
v -0.077397 0.130659 -0.136922
v -0.078378 0.240283 -0.130422
v -0.073333 0.126511 0.113103
v -0.075146 0.237010 0.113333
v 0.140160 0.134113 -0.001912
v 0.148364 0.240006 -0.011192
v -0.146429 0.138469 -0.011217
v -0.139929 0.235450 -0.005394
v 0.068650 0.231078 0.110897
v 0.065479 0.123746 0.105682
v 0.073879 0.244247 -0.129092
v 0.064472 0.127380 -0.123158
v -0.079600 -1.269910 -0.130278
v -0.079000 -1.359930 -0.137694
v -0.074184 -1.263809 0.102149
v -0.071172 -1.353650 0.113732
v 0.145391 -1.265699 -0.004927
v 0.138493 -1.355180 -0.011896
v -0.140912 -1.268446 -0.013024
v -0.140478 -1.359089 -0.003414
v 0.068439 -1.353776 0.111880
v 0.067631 -1.260189 0.111131
v 0.066892 -1.354579 -0.134004
v 0.071128 -1.265833 -0.127813
v 0.104030 1.783894 0.151506
v 0.090357 1.783943 -0.169106
v -0.087236 1.789298 -0.150685
v -0.077815 1.779819 0.138447
v 0.171223 1.780186 -0.008383
v -0.184603 1.777331 -0.009554
v -0.086347 -1.872661 -0.158447
v -0.067284 -1.912035 -0.125357
v -0.126267 -1.912350 -0.014363
v -0.164089 -1.875516 -0.014262
v -0.061899 -1.912748 0.107422
v -0.082239 -1.874129 0.140496
v 0.065508 -1.914545 0.109441
v 0.085066 -1.876168 0.142662
v 0.125473 -1.916294 -0.005499
v 0.163583 -1.880401 -0.005351
v 0.062413 -1.914293 -0.124259
v 0.082401 -1.876279 -0.157566
v -0.169633 -0.289095 -0.043414
v 0.165102 -0.286081 -0.039739
v 0.145746 -0.292020 0.067421
v -0.149886 -0.291078 0.065613
v -0.180778 -0.801884 -0.059861
v 0.168944 -0.802232 -0.060428
v 0.151932 -0.854231 0.056725
v -0.155654 -0.854680 0.056677
v 0.159762 -0.407852 0.062375
v -0.155278 -0.403477 0.063593
v -0.175515 -0.853589 -0.037319
v 0.165452 -0.852960 -0.038301
v 0.155818 -0.753235 0.057619
v -0.162224 -0.754934 0.059637
v 0.145275 -0.803691 0.080851
v -0.146335 -0.804605 0.081559
v 0.140438 -0.349793 0.087774
v -0.140106 -0.348063 0.090813
v -0.179232 -0.751165 -0.035015
v 0.167720 -0.752352 -0.036641
v -0.173017 -0.403219 -0.044285
v 0.174247 -0.400420 -0.046568
v -0.172602 -0.345674 -0.070071
v 0.168927 -0.343149 -0.069398
v 0.061079 1.899603 0.083775
v -0.048120 1.895025 0.077704
v 0.103057 1.895262 -0.011423
v -0.053846 1.900757 -0.097815
v 0.052931 1.899632 -0.107283
v -0.110922 1.895692 -0.012203
v -0.079242 -0.821261 0.148230
v 0.077901 -0.822716 0.151541
v -0.092752 -0.817615 -0.160010
v -0.090120 -0.332216 -0.167305
v 0.082802 -0.818000 -0.158372
v 0.087229 -0.331508 -0.163571
v 0.079521 -0.328107 0.152999
v -0.078886 -0.327797 0.148064
v 0.172331 -0.265646 0.010851
v 0.175406 -0.877231 0.007642
v -0.184252 -0.877272 0.006026
v -0.176349 -0.266173 0.007121
v 0.180509 -0.430512 0.009764
v -0.178799 -0.432535 0.012154
v -0.183964 -0.725582 0.011834
v 0.173387 -0.725444 0.008553
v 0.166073 -0.578303 0.009074
v -0.169127 -0.576559 0.009233
v 0.094791 -0.577591 0.143953
v -0.097979 -0.575920 0.140287
v 0.106182 -0.576454 -0.153055
v -0.113713 -0.576239 -0.156326
vt 0.112520 1.349782
vt 0.021505 1.351277
vt 0.020956 1.320407
vt 0.110347 1.319228
vt 0.197032 1.320242
vt 0.201140 1.348799
vt 0.205248 1.377355
vt 0.114694 1.380335
vt 0.022054 1.382148
vt 0.210261 0.488837
vt 0.291855 0.488837
vt 0.325928 0.559446
vt 0.244953 0.577765
vt 0.155769 0.577765
vt 0.130063 0.488837
vt 0.104357 0.399909
vt 0.175568 0.399909
vt 0.252771 0.419272
vt 0.288532 0.868591
vt 0.250097 0.899376
vt 0.219158 0.882485
vt 0.247375 0.861938
vt 0.260194 0.835967
vt 0.313374 0.830542
vt 0.366553 0.825116
vt 0.333431 0.875849
vt 0.282185 0.916895
vt 0.049617 0.894647
vt 0.014019 0.862347
vt 0.058961 0.857354
vt 0.081462 0.880032
vt 0.121454 0.898687
vt 0.105263 0.924621
vt 0.089072 0.950555
vt 0.014877 0.910590
vt -0.032587 0.867524
vt 0.200906 0.825969
vt 0.207015 0.841393
vt 0.153836 0.846818
vt 0.171067 0.821002
vt 0.184571 0.800825
vt 0.227383 0.814241
vt -0.049535 1.749820
vt 0.043111 1.751005
vt 0.056563 2.086126
vt -0.038921 2.085605
vt -0.132787 2.085655
vt -0.141406 1.748533
vt -0.150026 1.411411
vt -0.060150 1.414035
vt 0.029659 1.415884
vt -0.568007 0.488837
vt -0.541427 0.399909
vt -0.455628 0.399909
vt -0.481884 0.488837
vt -0.508140 0.577765
vt -0.594587 0.577765
vt -0.672232 0.559446
vt -0.656264 0.488837
vt -0.632294 0.419272
vt -0.580720 0.823527
vt -0.581961 0.871899
vt -0.628093 0.874938
vt -0.633915 0.861281
vt -0.650619 0.848939
vt -0.596734 0.782158
vt -0.518547 0.692853
vt -0.518153 0.795443
vt -0.523845 0.869651
vt -0.248724 0.488837
vt -0.239308 0.399909
vt -0.174273 0.399909
vt -0.175813 0.488837
vt -0.177353 0.577765
vt -0.258140 0.577765
vt -0.338613 0.577765
vt -0.322341 0.488837
vt -0.306070 0.399909
vt -0.100245 0.488837
vt -0.023570 0.488837
vt -0.007838 0.577765
vt -0.092643 0.577765
vt -0.107847 0.399909
vt -0.039303 0.399909
vt -0.400028 0.488837
vt -0.422380 0.577765
vt -0.377676 0.399909
vt 0.283122 1.309162
vt 0.363926 1.316370
vt 0.361419 1.330793
vt 0.279514 1.323979
vt 0.198944 1.303418
vt 0.200855 1.286594
vt 0.286730 1.294345
vt 0.372843 1.287124
vt -0.239243 1.396154
vt -0.238592 1.412466
vt -0.325251 1.414449
vt -0.326415 1.396333
vt -0.327580 1.378217
vt -0.239895 1.379841
vt -0.152095 1.382241
vt -0.151060 1.396826
vt -0.411455 1.397250
vt -0.409405 1.414609
vt -0.494916 1.412186
vt -0.495463 1.396833
vt -0.496009 1.381480
vt -0.413504 1.379890
vt -0.417017 1.305884
vt -0.328537 1.305388
vt -0.328422 1.322503
vt -0.413573 1.321898
vt -0.497471 1.323812
vt -0.503551 1.309253
vt -0.509632 1.294695
vt -0.420461 1.289870
vt -0.328652 1.288273
vt -0.062989 1.398466
vt 0.025856 1.399016
vt -0.065827 1.382897
vt 0.266596 0.668631
vt 0.346585 0.666592
vt 0.362378 0.694262
vt 0.275386 0.682747
vt 0.188145 0.686146
vt 0.183078 0.670330
vt 0.178011 0.654515
vt 0.257806 0.654515
vt 0.337019 0.651854
vt 0.108016 1.300604
vt 0.015986 1.300924
vt 0.011017 1.281441
vt 0.105685 1.281979
vt -0.242109 1.307099
vt -0.156756 1.307877
vt -0.158923 1.325371
vt -0.244360 1.324391
vt -0.239858 1.289806
vt -0.154588 1.290383
vt -0.579541 1.393013
vt -0.585647 1.406419
vt -0.677182 1.481594
vt -0.663656 1.387492
vt -0.653150 1.374004
vt -0.573436 1.379608
vt -0.584141 1.316162
vt -0.577771 1.329478
vt -0.656650 1.338849
vt -0.661758 1.324840
vt -0.668836 1.295882
vt -0.590511 1.302845
vt 0.116359 1.396420
vt 0.204704 1.391966
vt 0.204160 1.406576
vt 0.118024 1.412506
vt -0.071497 1.304584
vt -0.069642 1.323249
vt -0.073352 1.285918
vt 0.092501 0.671351
vt 0.095356 0.688187
vt 0.002364 0.689209
vt 0.000631 0.671862
vt -0.001102 0.654515
vt 0.089647 0.654515
vt -0.086768 0.672032
vt -0.085483 0.689550
vt -0.171084 0.690545
vt -0.172088 0.672530
vt -0.173093 0.654515
vt -0.088053 0.654515
vt -0.090090 0.593419
vt -0.005873 0.593419
vt -0.003908 0.609074
vt -0.087537 0.609074
vt -0.170919 0.609074
vt -0.174136 0.593419
vt -0.589186 0.593419
vt -0.507440 0.593419
vt -0.506740 0.609074
vt -0.583785 0.609074
vt -0.662888 0.610840
vt -0.669904 0.593419
vt -0.430862 0.675093
vt -0.343900 0.675285
vt -0.343867 0.696054
vt -0.430315 0.695671
vt -0.517556 0.673684
vt -0.516565 0.654515
vt -0.431409 0.654515
vt -0.343933 0.654515
vt -0.423635 0.593419
vt -0.339512 0.593419
vt -0.340410 0.609074
vt -0.424889 0.609074
vt 0.077316 0.593419
vt 0.081396 0.609074
vt 0.073236 0.577765
vt 0.161439 0.593419
vt 0.167109 0.609074
vt -0.602934 0.671292
vt -0.610434 0.688070
vt -0.699670 0.697584
vt -0.687653 0.668410
vt -0.673690 0.652309
vt -0.595433 0.654515
vt -0.257721 0.674022
vt -0.257334 0.693529
vt -0.258107 0.654515
vt 0.248459 0.593419
vt 0.336929 0.593419
vt 0.336143 0.610840
vt 0.251965 0.609074
vt -0.256811 0.593419
vt -0.255482 0.609074
vt -0.407164 1.750569
vt -0.319034 1.750833
vt -0.312818 2.087216
vt -0.404923 2.086529
vt -0.499519 2.085221
vt -0.497218 1.748704
vt -0.230844 1.749512
vt -0.223096 2.086559
vt 0.311631 1.741808
vt 0.287281 1.400772
vt 0.375329 1.477025
vt 0.397066 1.736415
vt 0.425238 2.077800
vt 0.335981 2.082845
vt 0.245289 2.086390
vt 0.224724 1.746483
vt -0.591181 1.745219
vt -0.596714 2.084020
vt -0.695208 2.082871
vt -0.687098 1.740925
vt 0.134874 1.749721
vt 0.151724 2.086936
vt 0.124588 0.777698
vt 0.199140 0.779038
vt 0.133525 0.798818
vt 0.079986 0.806355
vt 0.043061 0.786123
vt 0.006136 0.765891
vt 0.114838 0.754658
vt 0.214241 0.756445
vt -0.242128 1.352116
vt -0.328001 1.350360
vt -0.155509 1.353806
vt -0.575603 1.354543
vt -0.652298 1.356513
vt -0.496740 1.352646
vt 0.283192 1.348542
vt 0.361961 1.348648
vt 0.364119 1.366678
vt 0.286871 1.373105
vt -0.413539 1.350894
vt -0.067735 1.353073
vt -0.087795 0.631795
vt -0.172006 0.631795
vt -0.002505 0.631795
vt -0.589609 0.631795
vt -0.664793 0.631795
vt -0.511653 0.631795
vt -0.428149 0.631795
vt -0.342172 0.631795
vt 0.254886 0.631795
vt 0.172560 0.631795
vt 0.334856 0.631795
vt -0.256794 0.631795
vt 0.085522 0.631795
vt 0.287076 1.386939
vt 0.366461 1.381625
vt 0.018516 0.825398
vt 0.059864 0.831943
vt -0.026591 0.818258
vt 0.052659 0.488837
vt 0.032082 0.399909
vt 0.161779 0.388432
vt 0.226735 0.388432
vt 0.095601 0.388432
vt 0.086844 0.376955
vt 0.147990 0.376955
vt 0.207223 0.376955
vt -0.527044 0.388432
vt -0.446606 0.388432
vt -0.610613 0.388432
vt -0.590078 0.376955
vt -0.512661 0.376955
vt -0.437584 0.376955
vt -0.372432 0.388432
vt -0.303327 0.388432
vt -0.367188 0.376955
vt -0.300585 0.376955
vt -0.238098 0.388432
vt -0.174136 0.388432
vt -0.236887 0.376955
vt -0.173999 0.376955
vt -0.108836 0.388432
vt -0.041897 0.388432
vt -0.109825 0.376955
vt -0.044492 0.376955
vt 0.026978 0.388432
vt 0.021874 0.376955
vt -0.297658 1.063809
vt -0.357477 1.049531
vt -0.337720 0.988770
vt -0.278243 1.036381
vt -0.230847 1.070049
vt -0.249859 1.083342
vt -0.259303 1.098608
vt -0.300719 1.103856
vt -0.355587 1.108314
vt -0.297407 0.826175
vt -0.248650 0.864730
vt -0.254850 0.878057
vt -0.301271 0.873587
vt -0.359604 0.870202
vt -0.356645 0.797028
vt -0.277473 0.786011
vt -0.232117 0.852981
vt -0.050112 1.151158
vt -0.111535 1.115167
vt -0.103567 1.100072
vt -0.044195 1.102472
vt 0.025652 1.104357
vt 0.021108 1.178539
vt -0.070710 1.192899
vt -0.128844 1.128066
vt -0.053656 0.912510
vt 0.022116 0.928267
vt 0.002089 0.987749
vt -0.072499 0.938616
vt -0.135446 0.902856
vt -0.120892 0.891143
vt -0.114970 0.878189
vt -0.052007 0.873893
vt 0.020291 0.870332
vt 0.282277 1.153414
vt 0.204814 1.180657
vt 0.208484 1.104897
vt 0.282048 1.103260
vt 0.346377 1.100964
vt 0.352024 1.116573
vt 0.367241 1.130022
vt 0.297404 1.196843
vt -0.056868 0.824894
vt 0.014806 0.794412
vt -0.119703 0.865067
vt -0.133704 0.853425
vt -0.076843 0.783384
vt -0.436844 0.786697
vt -0.441761 0.868988
vt 0.104159 0.783309
vt 0.196319 0.791609
vt 0.203569 0.867741
vt 0.111261 0.868245
vt 0.196325 0.197278
vt 0.379180 0.197265
vt 0.376968 0.215142
vt 0.195277 0.215243
vt 0.013585 0.215343
vt 0.013470 0.197291
vt 0.012544 0.179130
vt 0.197290 0.179301
vt 0.382036 0.179472
vt 0.991820 0.586046
vt 1.147777 0.586547
vt 1.154059 0.602651
vt 0.990433 0.602186
vt 0.826807 0.601720
vt 0.835863 0.585545
vt 0.837222 0.569603
vt 0.992350 0.570031
vt 1.147479 0.570460
vt 0.991479 0.554384
vt 0.831493 0.554116
vt 0.820895 0.538492
vt 0.990092 0.538609
vt 1.159289 0.538726
vt 1.151465 0.554651
vt -0.115672 1.025217
vt -0.099632 0.987780
vt -0.066722 1.036940
vt -0.124469 1.072570
vt -0.149525 1.062524
vt -0.178536 1.057819
vt -0.177021 1.022952
vt -0.176631 0.987839
vt 0.984513 0.711120
vt 0.984428 0.726918
vt 0.799855 0.726674
vt 0.799341 0.710676
vt 0.798747 0.694406
vt 0.984786 0.695078
vt 1.170825 0.695750
vt 1.169685 0.711564
vt 1.169001 0.727163
vt 0.989076 0.522213
vt 0.807650 0.522138
vt 0.793081 0.505419
vt 0.988244 0.505506
vt 1.183408 0.505594
vt 1.170501 0.522288
vt -0.225407 1.212451
vt -0.167121 1.214493
vt -0.272969 1.195276
vt -0.238533 1.126468
vt -0.210957 1.135095
vt -0.179653 1.138603
vt 0.195139 0.233712
vt 0.195514 0.251489
vt 0.017425 0.251130
vt 0.016390 0.233581
vt 0.373888 0.233843
vt 0.373602 0.251848
vt -0.642335 0.763948
vt -0.702730 0.757317
vt -0.674236 0.839826
vt -0.701310 0.832329
vt 0.328797 0.758850
vt 0.383220 0.753119
vt 0.406588 0.827569
vt 0.382208 0.834952
vt 0.362087 0.844098
vt 0.288490 0.776836
vt 0.197176 0.160795
vt 0.007304 0.160565
vt 0.005861 0.142274
vt 0.197017 0.142587
vt 0.388173 0.142900
vt 0.387047 0.161025
vt 0.985484 0.678871
vt 1.168210 0.679764
vt 0.802757 0.677978
vt 0.804848 0.662174
vt 0.986226 0.663103
vt 1.167604 0.664032
vt -0.579698 1.069355
vt -0.602413 1.041898
vt -0.548220 0.990540
vt -0.523866 1.052406
vt -0.518519 1.111849
vt -0.571558 1.109650
vt -0.610537 1.106022
vt -0.622181 1.091457
vt -0.644483 1.078791
vt 0.194498 0.055346
vt 0.344009 0.055952
vt 0.345100 0.073559
vt 0.195841 0.073135
vt 0.046582 0.072711
vt 0.044986 0.054739
vt 0.036428 0.036498
vt 0.193694 0.037401
vt 0.350961 0.038303
vt 0.197442 0.091032
vt 0.353518 0.091616
vt 0.366023 0.109372
vt 0.198409 0.108625
vt 0.030795 0.107878
vt 0.041366 0.090448
vt 0.184477 0.915631
vt 0.175114 0.894605
vt 0.194690 0.938568
vt 0.167454 0.877401
vt 0.190516 0.866853
vt 0.137645 0.872752
vt 0.093694 0.837298
vt 0.100576 0.852728
vt 0.116911 0.826586
vt 0.140837 0.816098
vt 0.259744 0.799907
vt 0.295047 0.784271
vt 0.107516 0.868075
vt 0.213701 0.856495
vt -0.234621 1.024718
vt -0.248851 0.988031
vt -0.206358 1.060935
vt -0.295281 1.153378
vt -0.349008 1.183837
vt -0.255087 1.113645
vt -0.441336 1.045764
vt -0.442960 0.989846
vt -0.437357 1.111191
vt 0.276415 0.819332
vt 0.350480 0.856768
vt 0.348195 0.870976
vt 0.279881 0.868934
vt 0.117560 1.041304
vt 0.025755 1.047018
vt 0.116613 0.987120
vt 0.232811 0.986202
vt 0.210524 1.046629
vt 0.116448 1.105214
vt -0.235018 0.950405
vt -0.207153 0.912310
vt -0.181482 0.916389
vt -0.178493 0.952237
vt -0.278238 0.938958
vt -0.230261 0.902926
vt 0.111920 1.188702
vt -0.429803 1.195748
vt -0.511882 1.188117
vt -0.119215 0.950083
vt -0.156611 0.912255
vt -0.624739 1.224313
vt -0.679094 1.233368
vt -0.690944 1.154077
vt -0.658966 1.145781
vt -0.631933 1.135568
vt -0.583741 1.203696
vt -0.569460 1.159952
vt -0.614789 1.121520
vt 0.193712 0.019038
vt 0.020755 0.017956
vt 0.001525 -0.000737
vt 0.194139 0.000467
vt 0.386754 0.001671
vt 0.366668 0.020120
vt 0.988732 0.618208
vt 1.168021 0.618513
vt 1.178610 0.633998
vt 0.987279 0.633732
vt 0.795949 0.633465
vt 0.809444 0.617903
vt 0.986634 0.648377
vt 1.174770 0.648973
vt 0.798498 0.647780
vt -0.232931 0.769076
vt -0.176409 0.765954
vt -0.181735 0.841363
vt -0.208528 0.844622
vt -0.120535 0.767230
vt -0.155588 0.844910
vt 0.196002 0.267375
vt 0.379775 0.267636
vt 0.389177 0.282317
vt 0.196547 0.282316
vt 0.003918 0.282314
vt 0.012229 0.267114
vt 0.338079 1.216710
vt 0.389429 1.139075
vt 0.415102 1.145929
vt 0.391530 1.224797
vt 0.197848 0.125503
vt 0.016326 0.124932
vt 0.379369 0.126074
vt 0.984295 0.742394
vt 0.795606 0.742287
vt 1.172984 0.742501
vt 1.179302 0.757710
vt 0.984138 0.757709
vt 0.788975 0.757708
vt -0.112634 1.210994
vt -0.151916 1.136069
vt -0.652532 0.950550
vt -0.680795 0.909870
vt -0.656264 0.899839
vt -0.608544 0.938296
vt -0.637327 0.990780
vt -0.707776 0.991220
vt -0.708306 0.955342
vt -0.708020 0.918992
vt -0.648237 1.030110
vt -0.672204 1.068989
vt -0.702636 1.060618
vt -0.705614 1.026155
vt -0.588129 0.911117
vt -0.527463 0.928353
vt -0.637120 0.887993
vt -0.443451 0.933813
vt -0.359145 0.928212
vt 0.114963 0.932808
vt 0.208463 0.926131
vt -0.046314 1.063545
vt -0.108514 1.085480
vt -0.297602 0.912267
vt -0.247440 0.891149
vt 0.358539 1.023164
vt 0.396259 1.060958
vt 0.370046 1.071562
vt 0.307258 1.035705
vt 0.339655 0.984857
vt 0.423319 0.983805
vt 0.424866 1.018107
vt 0.427005 1.051984
vt 0.286068 1.063213
vt 0.352902 1.085429
vt 0.286194 0.908238
vt 0.356042 0.884736
vt 0.372505 0.896739
vt 0.308126 0.934636
vt 0.358444 0.945521
vt 0.396069 0.905672
vt 0.423185 0.913072
vt 0.422956 0.948651
vt 0.453351 0.621947
vt 0.356659 0.591057
vt 0.385698 0.563814
vt 0.451709 0.563814
vt 0.517720 0.563814
vt 0.548344 0.593889
vt 0.578968 0.623964
vt 0.549207 0.652590
vt 0.519445 0.681216
vt 0.455051 0.680896
vt 0.390656 0.680577
vt 0.359138 0.649438
vt 0.327621 0.618299
vn 0.0462 -0.0016 -0.9989
vn 0.5011 -0.0752 -0.8621
vn 0.5093 -0.0742 -0.8574
vn 0.0664 -0.0021 -0.9978
vn -0.4580 0.0444 -0.8878
vn -0.4891 0.0447 -0.8711
vn -0.5021 0.0444 -0.8637
vn 0.0329 -0.0021 -0.9995
vn 0.4913 -0.0758 -0.8677
vn -0.8698 0.0121 -0.4932
vn -0.9998 -0.0001 -0.0191
vn -0.9993 0.0001 -0.0370
vn -0.8631 0.0122 -0.5048
vn -0.5096 0.0099 -0.8604
vn -0.5109 0.0099 -0.8596
vn -0.5113 0.0099 -0.8593
vn -0.8753 0.0120 -0.4834
vn -1.0000 -0.0002 -0.0067
vn 0.7995 0.5093 0.3184
vn 0.8640 0.5023 -0.0350
vn 0.8035 0.5944 -0.0335
vn 0.7433 0.6013 0.2933
vn 0.6882 0.6059 0.3991
vn 0.7499 0.5104 0.4210
vn 0.7655 0.4829 0.4253
vn 0.8142 0.4792 0.3278
vn 0.8791 0.4758 -0.0282
vn -0.0835 0.4721 -0.8776
vn -0.4505 0.4835 -0.7505
vn -0.4201 0.5823 -0.6960
vn -0.0746 0.5704 -0.8180
vn 0.0506 0.5652 -0.8234
vn 0.0338 0.4677 -0.8832
vn 0.0286 0.4409 -0.8971
vn -0.0819 0.4404 -0.8941
vn -0.4635 0.4544 -0.7607
vn -0.0755 0.6823 0.7272
vn -0.0326 0.7015 0.7120
vn -0.3446 0.7388 0.5792
vn -0.3591 0.7029 0.6139
vn -0.4036 0.5911 0.6984
vn -0.0764 0.5955 0.7997
vn 0.0433 0.5982 0.8002
vn 0.8685 0.0005 -0.4957
vn 0.4866 0.0000 -0.8736
vn 0.4750 -0.0076 -0.8799
vn 0.8763 -0.0032 -0.4817
vn 0.9997 -0.0009 -0.0258
vn 0.9999 -0.0009 -0.0147
vn 1.0000 -0.0009 -0.0033
vn 0.8632 0.0041 -0.5048
vn 0.4905 0.0075 -0.8714
vn -0.8877 -0.0112 0.4602
vn -0.8860 -0.0112 0.4635
vn -0.5279 -0.0088 0.8493
vn -0.5273 -0.0088 0.8496
vn -0.5292 -0.0089 0.8484
vn -0.8920 -0.0111 0.4518
vn -0.7514 -0.0167 0.6596
vn -0.7244 -0.0138 0.6892
vn -0.8455 -0.0249 0.5334
vn -0.8689 -0.0249 0.4944
vn -0.8691 -0.0087 0.4946
vn -0.7792 -0.0221 0.6264
vn -0.5226 -0.0261 0.8522
vn -0.4337 -0.0184 0.9009
vn -0.3726 0.0002 0.9280
vn 0.8677 -0.0068 0.4970
vn 0.8765 -0.0068 0.4814
vn 0.9999 -0.0128 -0.0019
vn 0.9999 -0.0128 0.0034
vn 0.9999 -0.0128 0.0047
vn 0.8647 -0.0069 0.5023
vn 0.4929 0.0013 0.8701
vn 0.4964 0.0014 0.8681
vn 0.5095 0.0014 0.8605
vn 0.8789 -0.0105 -0.4769
vn 0.5205 -0.0070 -0.8538
vn 0.5216 -0.0070 -0.8532
vn 0.8789 -0.0105 -0.4770
vn 0.8811 -0.0105 -0.4728
vn 0.5242 -0.0070 -0.8516
vn -0.0106 0.0001 0.9999
vn -0.0069 0.0001 1.0000
vn -0.8473 0.3191 -0.4246
vn -0.9718 0.2346 0.0252
vn -0.9712 0.2373 0.0199
vn -0.8462 0.3145 -0.4302
vn -0.4319 0.4551 -0.7787
vn -0.4409 0.4561 -0.7730
vn -0.4394 0.4579 -0.7728
vn -0.8424 0.3258 -0.4291
vn -0.9724 0.2320 0.0258
vn 0.7989 -0.3559 0.4848
vn 0.7970 -0.3559 0.4879
vn 0.4779 -0.3856 0.7893
vn 0.4711 -0.3859 0.7932
vn 0.4574 -0.3869 0.8007
vn 0.7924 -0.3562 0.4951
vn 0.9276 -0.3729 0.0218
vn 0.9276 -0.3736 0.0046
vn 0.9275 -0.3738 -0.0034
vn 0.0343 -0.4392 0.8977
vn 0.0579 -0.4388 0.8967
vn -0.4144 -0.4604 0.7851
vn -0.4471 -0.4571 0.7689
vn -0.4626 -0.4546 0.7612
vn 0.0154 -0.4385 0.8986
vn -0.0113 0.5606 0.8280
vn 0.3826 0.6060 0.6974
vn 0.3742 0.6028 0.7047
vn 0.0097 0.5593 0.8289
vn -0.4328 0.4467 0.7830
vn -0.4521 0.4471 0.7718
vn -0.4673 0.4472 0.7626
vn -0.0252 0.5622 0.8266
vn 0.3901 0.6083 0.6912
vn 0.7709 -0.4270 -0.4727
vn 0.4202 -0.4972 -0.7591
vn 0.4063 -0.4994 -0.7652
vn 0.7575 -0.4310 -0.4904
vn 0.7797 -0.4240 -0.4607
vn 0.4266 -0.4957 -0.7565
vn -0.8238 -0.3859 -0.4152
vn -0.9255 -0.3760 0.0444
vn -0.9257 -0.3756 0.0451
vn -0.8274 -0.3861 -0.4079
vn -0.4794 -0.3779 -0.7921
vn -0.4605 -0.3767 -0.8038
vn -0.4479 -0.3759 -0.8113
vn -0.8197 -0.3857 -0.4236
vn -0.9256 -0.3766 0.0375
vn 0.0294 0.5601 -0.8279
vn 0.0344 0.5570 -0.8298
vn 0.3849 0.6415 -0.6635
vn 0.3967 0.6449 -0.6532
vn 0.4165 0.6484 -0.6372
vn 0.0319 0.5640 -0.8252
vn 0.7433 0.5028 0.4413
vn 0.8891 0.4563 0.0354
vn 0.8864 0.4610 0.0424
vn 0.7328 0.4987 0.4630
vn 0.7545 0.5043 0.4200
vn 0.8910 0.4531 0.0268
vn -0.7966 -0.4213 0.4335
vn -0.7952 -0.4211 0.4363
vn -0.8962 -0.4428 -0.0258
vn -0.8988 -0.4384 0.0086
vn -0.9000 -0.4339 0.0411
vn -0.7953 -0.4217 0.4356
vn -0.8330 0.3080 0.4596
vn -0.8327 0.3029 0.4636
vn -0.8328 0.3126 0.4568
vn 0.0112 -0.5123 -0.8587
vn -0.4224 -0.4944 -0.7597
vn -0.3910 -0.4957 -0.7755
vn 0.0199 -0.5129 -0.8582
vn 0.0069 -0.5119 -0.8590
vn -0.4526 -0.4927 -0.7432
vn 0.7292 0.5807 -0.3620
vn 0.7171 0.5775 -0.3902
vn 0.7288 0.5879 -0.3509
vn 0.0091 -0.3561 -0.9344
vn -0.0026 -0.3560 -0.9345
vn 0.4675 -0.3585 -0.8081
vn 0.4682 -0.3576 -0.8080
vn 0.4608 -0.3569 -0.8126
vn 0.0151 -0.3562 -0.9343
vn 0.8434 -0.2879 -0.4537
vn 0.8433 -0.2908 -0.4520
vn 0.9707 -0.2392 0.0249
vn 0.9701 -0.2417 0.0235
vn 0.9696 -0.2442 0.0170
vn 0.8384 -0.2867 -0.4636
vn 0.7675 0.4718 -0.4340
vn 0.4520 0.4726 -0.7565
vn 0.4422 0.4718 -0.7628
vn 0.7594 0.4717 -0.4480
vn 0.8687 0.4950 -0.0182
vn 0.8674 0.4975 0.0074
vn 0.8651 0.5002 0.0390
vn 0.7739 0.4719 -0.4224
vn 0.4637 0.4732 -0.7491
vn -0.8007 0.4122 0.4348
vn -0.4569 0.4359 0.7754
vn -0.4429 0.4356 0.7836
vn -0.7902 0.4126 0.4532
vn -0.9249 0.3791 0.0300
vn -0.9253 0.3792 -0.0031
vn -0.9246 0.3803 -0.0222
vn -0.8040 0.4126 0.4283
vn -0.4632 0.4363 0.7714
vn -0.0324 -0.5215 0.8526
vn 0.4186 -0.4857 0.7673
vn 0.4234 -0.4877 0.7635
vn -0.0199 -0.5223 0.8525
vn -0.4493 -0.4840 0.7509
vn -0.4620 -0.4810 0.7451
vn -0.4759 -0.4771 0.7388
vn -0.0498 -0.5204 0.8525
vn 0.4003 -0.4854 0.7772
vn -0.0027 0.4401 0.8979
vn 0.4275 0.4650 0.7752
vn 0.4443 0.4654 0.7656
vn 0.0097 0.4403 0.8978
vn -0.0151 0.4400 0.8979
vn 0.4081 0.4642 0.7862
vn -0.0041 0.4270 -0.9042
vn -0.0223 0.4232 -0.9058
vn 0.0281 0.4332 -0.9009
vn -0.4594 0.3488 -0.8169
vn -0.4991 0.3435 -0.7955
vn -0.5392 0.3374 -0.7717
vn -0.7953 -0.4035 0.4524
vn -0.7936 -0.4038 0.4552
vn -0.8000 -0.4022 0.4452
vn 0.8090 -0.3454 0.4756
vn 0.8075 -0.3517 0.4736
vn 0.8067 -0.3402 0.4832
vn -0.8364 0.3258 -0.4407
vn -0.8546 0.3261 -0.4042
vn -0.8214 0.3267 -0.4675
vn 0.7418 0.4950 0.4524
vn 0.7548 0.4944 0.4311
vn 0.7256 0.4949 0.4781
vn 0.0141 -0.0007 0.9999
vn 0.5244 -0.0092 0.8514
vn 0.5218 -0.0168 0.8529
vn -0.0176 -0.0042 0.9998
vn -0.4899 0.0047 0.8718
vn -0.4996 0.0047 0.8662
vn -0.5150 0.0047 0.8572
vn 0.0430 0.0027 0.9991
vn 0.5291 -0.0017 0.8486
vn 0.8827 -0.0073 0.4699
vn 0.8976 -0.0111 0.4407
vn 0.8689 -0.0035 0.4950
vn -0.8597 0.0001 -0.5108
vn -0.8750 0.0037 -0.4842
vn -1.0000 0.0029 -0.0001
vn -1.0000 -0.0042 0.0064
vn -0.9999 -0.0119 0.0028
vn -0.8433 -0.0030 -0.5375
vn -0.5015 0.0051 -0.8651
vn -0.5029 0.0051 -0.8643
vn -0.5090 0.0050 -0.8608
vn -0.8640 -0.0002 0.5034
vn -0.8865 0.0034 0.4628
vn -0.8421 -0.0037 0.5393
vn -0.0340 0.0033 -0.9994
vn -0.0129 0.0070 -0.9999
vn -0.0634 -0.0002 -0.9980
vn -0.7106 0.4823 0.5122
vn -0.4310 0.4991 0.7517
vn -0.6647 0.5746 0.4774
vn -0.7294 0.5713 0.3762
vn -0.7736 0.4775 0.4166
vn -0.7837 0.4507 0.4275
vn -0.7240 0.4524 0.5207
vn -0.4364 0.4723 0.7658
vn 0.8346 -0.0453 0.5490
vn 0.4812 -0.0429 0.8756
vn 0.4744 -0.0427 0.8793
vn 0.8203 -0.0450 0.5702
vn 0.9963 -0.0789 0.0341
vn 0.9966 -0.0806 0.0152
vn 0.9964 -0.0834 -0.0138
vn 0.8463 -0.0455 0.5308
vn 0.4832 -0.0432 0.8745
vn -0.8675 0.0151 0.4972
vn -0.9986 0.0487 0.0217
vn -0.9987 0.0493 0.0128
vn -0.8595 0.0142 0.5109
vn -0.4609 -0.0126 0.8873
vn -0.4839 -0.0122 0.8750
vn -0.4972 -0.0120 0.8676
vn -0.8683 0.0148 0.4958
vn -0.9984 0.0480 0.0312
vn -0.8832 0.0576 -0.4654
vn -0.8689 0.0579 -0.4916
vn -0.8908 0.0570 -0.4509
vn 0.0297 -0.0312 0.9991
vn 0.0434 -0.0314 0.9986
vn 0.0129 -0.0309 0.9994
vn 0.8464 -0.1111 -0.5209
vn 0.8471 -0.1111 -0.5196
vn 0.8392 -0.1111 -0.5324
vn 0.8608 -0.0223 -0.5084
vn 0.9979 -0.0646 0.0106
vn 0.9979 -0.0637 -0.0099
vn 0.8544 -0.0207 -0.5193
vn 0.4882 0.0416 -0.8717
vn 0.4965 0.0402 -0.8671
vn 0.5044 0.0389 -0.8626
vn 0.8679 -0.0240 -0.4961
vn 0.9972 -0.0658 0.0369
vn -0.8622 0.0514 0.5040
vn -0.9992 0.0033 0.0390
vn -0.9985 0.0045 0.0541
vn -0.8528 0.0534 0.5196
vn -0.4838 0.0867 0.8709
vn -0.5042 0.0854 0.8594
vn -0.5222 0.0842 0.8487
vn -0.8713 0.0493 0.4882
vn -0.9997 0.0020 0.0231
vn -0.0266 0.0681 0.9973
vn -0.0028 0.0683 0.9977
vn 0.4919 0.0106 0.8706
vn 0.4701 0.0107 0.8826
vn 0.4480 0.0109 0.8940
vn -0.0473 0.0676 0.9966
vn -0.8975 0.0007 -0.4410
vn -0.5185 0.0547 -0.8533
vn -0.5230 0.0551 -0.8506
vn -0.9026 0.0006 -0.4305
vn -0.8926 0.0008 -0.4508
vn -0.5141 0.0543 -0.8560
vn 0.8499 -0.0493 0.5247
vn 0.8619 -0.0494 0.5047
vn 0.8351 -0.0488 0.5479
vn 0.0142 0.0794 -0.9967
vn 0.0077 0.0795 -0.9968
vn 0.0183 0.0793 -0.9967
vn -0.7714 -0.4685 -0.4306
vn -0.7477 -0.4712 -0.4679
vn -0.7935 -0.4655 -0.3921
vn -0.7377 0.4786 -0.4762
vn -0.8001 0.4741 -0.3674
vn -0.7565 0.5703 -0.3201
vn -0.6917 0.5754 -0.4365
vn -0.7546 0.4473 -0.4801
vn -0.8094 0.4481 -0.3796
vn -0.0012 -0.0009 -1.0000
vn -0.0037 -0.0008 -1.0000
vn 0.0026 -0.0010 -1.0000
vn -0.6211 -0.7032 -0.3460
vn -0.7017 -0.7125 0.0036
vn -0.7015 -0.7127 0.0009
vn -0.6178 -0.7030 -0.3522
vn -0.3608 -0.6990 -0.6175
vn -0.3626 -0.6992 -0.6162
vn -0.3639 -0.6994 -0.6152
vn -0.6240 -0.7033 -0.3406
vn -0.7019 -0.7122 0.0068
vn -0.6199 -0.7109 0.3322
vn -0.3763 -0.7101 0.5951
vn -0.3729 -0.7101 0.5973
vn -0.6176 -0.7110 0.3362
vn -0.6219 -0.7106 0.3291
vn -0.3799 -0.7102 0.5927
vn -0.0173 -0.7012 0.7128
vn 0.3484 -0.7109 0.6109
vn 0.3437 -0.7107 0.6139
vn -0.0179 -0.7009 0.7130
vn -0.0170 -0.7015 0.7125
vn 0.3528 -0.7112 0.6081
vn 0.6079 -0.7173 0.3405
vn 0.6892 -0.7245 -0.0036
vn 0.6890 -0.7247 -0.0019
vn 0.6041 -0.7172 0.3473
vn 0.6113 -0.7173 0.3343
vn 0.6895 -0.7243 -0.0054
vn 0.6048 -0.7199 -0.3404
vn 0.3473 -0.7153 -0.6064
vn 0.3421 -0.7151 -0.6096
vn 0.6019 -0.7200 -0.3456
vn 0.6073 -0.7198 -0.3362
vn 0.3519 -0.7155 -0.6036
vn -0.0103 -0.6982 -0.7158
vn -0.0124 -0.6980 -0.7160
vn -0.0082 -0.6984 -0.7157
vn 0.7304 -0.0064 0.6830
vn 0.3745 -0.0143 0.9271
vn 0.5157 -0.0087 0.8567
vn 0.7864 -0.0256 0.6172
vn 0.8558 -0.0201 0.5169
vn 0.8533 0.0105 0.5213
vn 0.8771 0.0236 0.4797
vn 0.7475 0.0071 0.6642
vn 0.3412 -0.0057 0.9400
vn 0.7730 -0.0208 0.6340
vn 0.8877 -0.0284 0.4595
vn 0.8667 -0.0083 0.4987
vn 0.7437 -0.0050 0.6685
vn 0.3621 0.0027 0.9322
vn 0.4261 -0.0196 0.9045
vn 0.5242 -0.0260 0.8512
vn 0.8021 -0.0247 0.5967
vn 0.8953 -0.0159 0.4453
vn 0.8384 0.0120 -0.5449
vn 0.9287 0.0412 -0.3685
vn 0.8859 0.0155 -0.4636
vn 0.7791 0.0017 -0.6268
vn 0.4236 -0.0157 -0.9057
vn 0.4870 -0.0112 -0.8733
vn 0.5809 -0.0146 -0.8139
vn 0.8744 -0.0040 -0.4851
vn 0.9601 0.0158 -0.2790
vn 0.8074 0.0280 -0.5894
vn 0.4586 -0.0121 -0.8886
vn 0.5984 -0.0196 -0.8010
vn 0.8761 0.0256 -0.4815
vn 0.9377 0.0733 -0.3397
vn 0.9008 0.0654 -0.4293
vn 0.8791 -0.0040 -0.4767
vn 0.7754 -0.0119 -0.6314
vn 0.4242 -0.0107 -0.9055
vn -0.8293 0.0347 -0.5578
vn -0.4650 0.0061 -0.8853
vn -0.4080 -0.0078 -0.9129
vn -0.7851 0.0039 -0.6194
vn -0.8934 0.0052 -0.4493
vn -0.9211 0.0554 -0.3854
vn -0.9534 0.0487 -0.2977
vn -0.8686 0.0305 -0.4947
vn -0.5624 0.0103 -0.8268
vn 0.8143 -0.0450 -0.5787
vn 0.4689 -0.0218 -0.8830
vn 0.9034 -0.0637 -0.4239
vn 0.9351 -0.0515 -0.3506
vn 0.8422 -0.0316 -0.5382
vn 0.5470 -0.0195 -0.8369
vn -0.0200 -0.0104 0.9997
vn -0.0183 -0.0186 0.9997
vn -0.0199 0.0033 0.9998
vn 0.0071 -0.0105 -0.9999
vn 0.0087 -0.0130 -0.9999
vn -0.5283 -0.0060 -0.8490
vn -0.4643 -0.0163 -0.8855
vn -0.4159 -0.0100 -0.9094
vn 0.0092 -0.0104 -0.9999
vn -0.0007 0.3856 0.9227
vn -0.0006 0.3852 0.9228
vn -0.0014 -0.0439 0.9990
vn -0.0016 -0.0439 0.9990
vn -0.0017 -0.0246 0.9997
vn -0.0007 0.3966 0.9180
vn -0.0014 0.6918 0.7221
vn -0.0013 0.6828 0.7306
vn -0.0013 0.6884 0.7253
vn -0.0021 0.4336 -0.9011
vn -0.0021 0.4415 -0.8973
vn -0.0005 0.7346 -0.6785
vn -0.0007 0.7168 -0.6973
vn -0.0005 0.7475 -0.6643
vn -0.0020 0.4528 -0.8916
vn -0.0025 0.0057 -1.0000
vn -0.0025 0.0146 -0.9999
vn -0.0025 0.0024 -1.0000
vn -0.0019 -0.4055 -0.9141
vn -0.0019 -0.4297 -0.9030
vn -0.0016 -0.6858 -0.7278
vn -0.0016 -0.6683 -0.7439
vn -0.0015 -0.6905 -0.7233
vn -0.0019 -0.4284 -0.9036
vn 0.9560 -0.0965 -0.2770
vn 0.9471 -0.0261 -0.3198
vn 0.8614 -0.0583 -0.5047
vn 0.9215 -0.0879 -0.3784
vn 0.9643 -0.1172 -0.2374
vn 0.9888 -0.1305 0.0721
vn 0.9920 -0.1025 0.0732
vn 0.9976 -0.0248 0.0648
vn 0.0013 -0.4312 0.9022
vn 0.0015 -0.6730 0.7396
vn 0.0015 -0.6810 0.7323
vn 0.0019 -0.0281 0.9996
vn 0.0019 -0.0202 0.9998
vn 0.0019 -0.0263 0.9997
vn 0.0013 -0.4263 0.9046
vn 0.0016 -0.6713 0.7412
vn -0.0015 -0.8661 -0.4998
vn -0.0015 -0.8826 -0.4701
vn 0.0003 -1.0000 0.0040
vn 0.0002 -0.9998 -0.0181
vn 0.0004 -0.9999 0.0171
vn -0.0013 -0.8880 -0.4598
vn 0.9063 0.0181 0.4222
vn 0.9955 0.0215 0.0918
vn 0.9974 0.0209 0.0695
vn 0.8922 0.0239 0.4510
vn 0.5131 0.0238 0.8580
vn 0.8009 0.0152 0.5986
vn 0.9041 -0.0021 0.4273
vn 0.9172 0.0047 0.3983
vn 0.9923 0.0221 0.1221
vn -0.0021 -0.4434 0.8963
vn -0.0013 -0.7131 0.7011
vn -0.0014 -0.7116 0.7025
vn -0.0022 -0.4289 0.9033
vn -0.0020 -0.4478 0.8941
vn -0.0012 -0.7259 0.6878
vn -0.8865 -0.0352 0.4614
vn -0.9952 -0.0468 0.0862
vn -0.9972 -0.0465 0.0587
vn -0.8740 -0.0402 0.4843
vn -0.8913 -0.0222 0.4528
vn -0.9928 -0.0469 0.1102
vn -0.9396 -0.0185 -0.3418
vn -0.9068 -0.0121 -0.4214
vn -0.9610 -0.0199 -0.2760
vn -0.9395 -0.0428 -0.3398
vn -0.8423 -0.0164 -0.5387
vn -0.0035 0.8878 0.4603
vn -0.0036 0.8949 0.4463
vn -0.0038 0.9993 0.0372
vn -0.0035 0.9996 0.0266
vn -0.0035 0.9976 0.0693
vn -0.0035 0.8905 0.4549
vn 0.0019 0.3974 0.9176
vn 0.0019 0.3905 0.9206
vn 0.0019 0.3887 0.9213
vn 0.0005 0.6709 0.7415
vn 0.0005 0.6681 0.7441
vn 0.0005 0.6776 0.7355
vn -0.7231 -0.0084 0.6907
vn -0.7822 -0.0073 0.6230
vn -0.5250 0.0033 0.8511
vn -0.3921 -0.0056 0.9199
vn -0.3537 -0.0026 0.9354
vn -0.7140 0.0002 0.7001
vn -0.8494 0.0021 0.5278
vn -0.8470 -0.0088 0.5315
vn -0.8577 -0.0103 0.5141
vn -0.0044 -0.3675 -0.9300
vn -0.0041 -0.3595 -0.9332
vn -0.0074 0.0654 -0.9978
vn -0.0075 0.0440 -0.9990
vn -0.0075 0.0467 -0.9989
vn -0.0041 -0.4011 -0.9160
vn 0.0013 -0.7401 -0.6725
vn 0.0010 -0.7021 -0.7121
vn 0.0014 -0.7195 -0.6945
vn -0.0021 0.4192 -0.9079
vn -0.0014 0.4390 -0.8985
vn 0.0038 0.7172 -0.6968
vn 0.0035 0.6840 -0.7294
vn 0.0036 0.7013 -0.7128
vn -0.0014 0.4489 -0.8936
vn 0.7887 0.4840 -0.3791
vn 0.7379 0.4797 -0.4747
vn 0.6819 0.5760 -0.4508
vn 0.7370 0.5774 -0.3513
vn 0.8036 0.4537 -0.3851
vn 0.7523 0.4517 -0.4796
vn 0.6745 0.6663 -0.3180
vn 0.7077 0.7060 -0.0281
vn 0.6437 0.6838 -0.3435
vn 0.6708 0.7406 -0.0377
vn -0.6330 0.6665 -0.3939
vn -0.3729 0.7023 -0.6064
vn -0.6448 0.6845 -0.3400
vn -0.3443 0.7411 -0.5764
vn -0.6086 0.6623 0.4371
vn -0.6196 0.6791 0.3937
vn -0.0791 0.5031 0.8606
vn 0.0351 0.5036 0.8632
vn -0.0773 0.4730 0.8777
vn 0.0320 0.4766 0.8785
vn -0.0673 0.6631 -0.7455
vn -0.0173 0.6802 -0.7328
vn 0.6772 0.6878 0.2614
vn 0.6440 0.7083 0.2891
vn 0.9029 -0.0660 0.4247
vn 0.8934 -0.0203 0.4487
vn 0.9143 -0.0764 0.3977
vn 0.7732 0.0080 0.6341
vn 0.4063 0.0177 0.9136
vn 0.9054 0.0173 0.4242
vn -0.0246 -0.0126 0.9996
vn -0.0207 -0.0009 0.9998
vn -0.0300 -0.0031 0.9995
vn -0.8200 -0.0416 -0.5709
vn -0.9086 -0.0650 -0.4126
vn -0.8803 -0.0037 -0.4743
vn -0.7765 -0.0110 -0.6300
vn 0.0169 -0.0181 -0.9997
vn 0.4455 -0.0138 -0.8952
vn 0.0142 -0.0136 -0.9998
vn -0.6004 -0.0069 -0.7997
vn -0.4435 -0.0096 -0.8962
vn 0.0196 -0.0138 -0.9997
vn 0.9102 0.0284 0.4132
vn 0.9227 0.0405 0.3834
vn 0.9940 0.0808 0.0738
vn 0.9962 0.0530 0.0697
vn 0.8054 0.0120 0.5926
vn 0.8816 0.0251 0.4714
vn 0.0184 -0.0126 -0.9998
vn 0.0214 -0.0090 -0.9997
vn -0.0334 0.0114 0.9994
vn -0.4245 0.0189 0.9052
vn -0.0317 0.0204 0.9993
vn -0.5508 0.0325 0.8340
vn 0.9600 0.0455 -0.2763
vn 0.9692 0.0676 -0.2370
vn -0.9154 0.0451 0.4001
vn -0.9962 0.0567 0.0666
vn -0.9936 0.0572 0.0974
vn -0.9228 0.0320 0.3839
vn -0.8911 0.0126 0.4537
vn -0.7978 0.0286 0.6022
vn -0.9086 0.0502 0.4147
vn -0.9977 0.0560 0.0387
vn -0.7453 0.0120 0.6666
vn -0.8706 0.0124 0.4919
vn 0.0027 -0.9148 -0.4038
vn 0.0026 -0.9351 -0.3543
vn 0.0019 -0.9999 0.0101
vn 0.0020 -0.9997 -0.0258
vn 0.0021 -0.9999 -0.0131
vn 0.0027 -0.9288 -0.3707
vn 0.0005 0.9124 -0.4092
vn 0.0005 0.9296 -0.3687
vn -0.0004 0.9991 0.0429
vn -0.0004 0.9998 0.0215
vn -0.0005 0.9984 0.0566
vn 0.0005 0.9355 -0.3532
vn -0.0010 0.8843 0.4670
vn -0.0010 0.8970 0.4421
vn -0.0010 0.8936 0.4489
vn 0.9070 -0.0375 0.4195
vn 0.8940 -0.0416 0.4461
vn 0.9982 -0.0548 0.0247
vn 0.9974 -0.0546 0.0471
vn 0.9963 -0.0542 0.0666
vn 0.9155 -0.0254 0.4016
vn 0.9375 -0.0359 -0.3462
vn 0.9098 -0.0322 -0.4137
vn 0.9577 -0.0355 -0.2855
vn 0.0004 -0.9204 0.3909
vn 0.0007 -0.9320 0.3624
vn 0.0004 -0.9220 0.3872
vn -0.9575 0.0395 -0.2858
vn -0.9763 0.0412 -0.2123
vn -0.9344 0.0353 -0.3545
vn 0.0012 0.8984 -0.4393
vn 0.0002 0.9083 -0.4183
vn 0.0006 0.9289 -0.3704
vn 0.0018 -0.8740 0.4860
vn 0.0018 -0.8843 0.4669
vn 0.0019 -0.8757 0.4829
vn 0.9621 0.0006 -0.2726
vn 0.9372 -0.0038 -0.3489
vn 0.9802 0.0024 -0.1981
vn -0.8936 0.0589 0.4449
vn -0.8980 0.0649 0.4353
vn -0.8438 0.0145 0.5364
vn -0.7756 0.0151 0.6310
vn -0.8863 0.0119 0.4629
vn -0.9964 0.0161 0.0832
vn -0.9906 0.0987 0.0950
vn -0.9857 0.1261 0.1121
vn -0.8962 -0.0353 0.4423
vn -0.9029 -0.0428 0.4277
vn -0.9887 -0.0995 0.1124
vn -0.9929 -0.0692 0.0967
vn -0.7186 -0.0000 0.6954
vn -0.3970 0.0052 0.9178
vn -0.8323 -0.0090 0.5542
vn -0.0194 0.0119 0.9997
vn 0.3920 0.0088 0.9199
vn 0.0123 -0.0075 -0.9999
vn -0.4481 -0.0103 -0.8939
vn 0.7851 -0.0316 -0.6186
vn 0.8831 -0.0409 -0.4674
vn 0.7504 0.0166 0.6608
vn 0.8652 0.0195 0.5010
vn -0.9670 -0.0651 -0.2463
vn -0.9750 -0.0887 -0.2037
vn -0.9438 -0.0803 -0.3206
vn -0.8855 -0.0427 -0.4627
vn -0.9563 0.0097 -0.2921
vn -0.8114 -0.0344 -0.5834
vn -0.9083 -0.0596 -0.4141
vn -0.8071 0.0348 -0.5894
vn -0.9006 0.0750 -0.4281
vn -0.9389 0.0959 -0.3307
vn -0.8818 0.0472 -0.4692
vn -0.9639 0.0843 -0.2525
vn -0.9707 0.1072 -0.2149
vn -0.0156 -0.9999 -0.0018
vn -0.0117 -0.9999 -0.0053
vn -0.0127 -0.9999 -0.0071
vn -0.0165 -0.9998 -0.0066
vn -0.0205 -0.9998 -0.0061
vn -0.0205 -0.9998 -0.0034
vn -0.0205 -0.9998 -0.0004
vn -0.0195 -0.9998 0.0016
vn -0.0186 -0.9998 0.0033
vn -0.0149 -0.9999 0.0029
vn -0.0109 -0.9999 0.0025
vn -0.0108 -0.9999 -0.0003
vn -0.0107 -0.9999 -0.0032
usemtl beams_and_sticks
s 1
f 1/1/1 155/2/2 404/3/3 156/4/4
f 1/1/1 156/4/4 393/5/5 152/6/6
f 1/1/1 152/6/6 394/7/7 157/8/8
f 1/1/1 157/8/8 403/9/9 155/2/2
f 2/10/10 244/11/11 387/12/12 141/13/13
f 2/10/10 141/13/13 381/14/14 243/15/15
f 2/10/10 243/15/15 423/16/16 225/17/17
f 2/10/10 225/17/17 426/18/18 244/11/11
f 3/19/19 297/20/20 461/21/21 306/22/22
f 3/19/19 306/22/22 459/23/23 295/24/24
f 3/19/19 295/24/24 417/25/25 293/26/26
f 3/19/19 293/26/26 421/27/27 297/20/20
f 4/28/28 298/29/29 462/30/30 305/31/31
f 4/28/28 305/31/31 463/32/32 220/33/33
f 4/28/28 220/33/33 418/34/34 294/35/35
f 4/28/28 294/35/35 419/36/36 298/29/29
f 5/37/37 212/38/38 392/39/39 296/40/40
f 5/37/37 296/40/40 460/41/41 304/42/42
f 5/37/37 304/42/42 459/23/43 212/38/38
f 6/43/44 218/44/45 418/45/46 289/46/47
f 6/43/44 289/46/47 421/47/48 217/48/49
f 6/43/44 217/48/49 373/49/50 134/50/51
f 6/43/44 134/50/51 378/51/52 218/44/45
f 7/52/53 229/53/54 428/54/55 245/55/56
f 7/52/53 245/55/56 383/56/57 143/57/58
f 7/52/53 143/57/58 387/58/12 244/59/11
f 7/52/53 244/59/11 426/60/18 229/53/54
f 8/61/59 309/62/60 450/63/61 249/64/62
f 8/61/59 249/64/62 442/65/63 286/66/64
f 8/61/59 286/66/64 382/67/65 288/68/66
f 8/61/59 288/68/66 465/69/67 309/62/60
f 9/70/68 235/71/69 432/72/70 247/73/71
f 9/70/68 247/73/71 385/74/72 145/75/73
f 9/70/68 145/75/73 388/76/74 246/77/75
f 9/70/68 246/77/75 430/78/76 235/71/69
f 10/79/77 242/80/78 390/81/79 137/82/80
f 10/79/77 137/82/80 385/74/72 247/73/71
f 10/79/77 247/73/71 432/72/70 238/83/81
f 10/79/77 238/83/81 434/84/82 242/80/78
f 11/85/83 246/77/75 388/76/74 139/86/83
f 11/85/83 139/86/83 383/56/57 245/55/56
f 11/85/83 245/55/56 428/54/55 232/87/84
f 11/85/83 232/87/84 430/78/76 246/77/75
f 12/88/85 197/89/86 399/90/87 161/91/88
f 12/88/85 161/91/88 393/5/89 189/92/90
f 12/88/85 189/92/90 368/93/91 129/94/92
f 12/88/85 129/94/92 374/95/93 197/89/86
f 13/96/94 126/97/95 376/98/96 191/99/97
f 13/96/94 191/99/97 401/100/98 160/101/99
f 13/96/94 160/101/99 398/102/100 190/103/101
f 13/96/94 190/103/101 373/49/102 126/97/95
f 14/104/103 191/99/97 376/98/96 130/105/104
f 14/104/103 130/105/104 371/106/105 194/107/106
f 14/104/103 194/107/106 396/108/107 165/109/108
f 14/104/103 165/109/108 401/100/98 191/99/97
f 15/110/109 192/111/110 402/112/111 164/113/112
f 15/110/109 164/113/112 395/114/113 195/115/114
f 15/110/109 195/115/114 370/116/115 131/117/116
f 15/110/109 131/117/116 377/118/117 192/111/110
f 16/119/118 198/120/119 378/51/120 134/50/121
f 16/119/118 134/50/121 373/49/102 190/103/101
f 16/119/118 190/103/101 398/102/100 169/121/122
f 16/119/118 169/121/122 403/9/123 198/120/119
f 17/122/124 208/123/125 386/124/126 140/125/127
f 17/122/124 140/125/127 380/126/128 200/127/129
f 17/122/124 200/127/129 405/128/130 181/129/131
f 17/122/124 181/129/131 411/130/132 208/123/125
f 18/131/133 189/92/90 393/5/89 156/4/134
f 18/131/133 156/4/134 404/3/135 199/132/136
f 18/131/133 199/132/136 379/133/137 125/134/138
f 18/131/133 125/134/138 368/93/91 189/92/90
f 19/135/139 193/136/140 397/137/141 158/138/142
f 19/135/139 158/138/142 402/112/111 192/111/110
f 19/135/139 192/111/110 377/118/117 127/139/143
f 19/135/139 127/139/143 372/140/144 193/136/140
f 20/141/145 194/107/106 371/106/105 132/142/146
f 20/141/145 132/142/146 375/143/147 196/144/148
f 20/141/145 196/144/148 400/145/149 167/146/150
f 20/141/145 167/146/150 396/108/107 194/107/106
f 21/147/151 195/115/114 395/114/113 166/148/152
f 21/147/151 166/148/152 399/149/87 197/150/86
f 21/147/151 197/150/86 374/151/93 133/152/153
f 21/147/151 133/152/153 370/116/115 195/115/114
f 22/153/154 188/154/155 369/155/156 124/156/157
f 22/153/154 124/156/157 378/51/120 198/120/119
f 22/153/154 198/120/119 403/9/123 157/8/158
f 22/153/154 157/8/158 394/7/159 188/154/155
f 23/157/160 199/132/136 404/3/135 168/158/161
f 23/157/160 168/158/161 397/137/141 193/136/140
f 23/157/160 193/136/140 372/140/144 135/159/162
f 23/157/160 135/159/162 379/133/137 199/132/136
f 24/160/163 146/161/164 391/162/165 210/163/166
f 24/160/163 210/163/166 416/164/167 187/165/168
f 24/160/163 187/165/168 405/128/130 200/127/129
f 24/160/163 200/127/129 380/126/128 146/161/164
f 25/166/169 210/163/166 391/162/165 136/167/170
f 25/166/169 136/167/170 384/168/171 203/169/172
f 25/166/169 203/169/172 409/170/173 175/171/174
f 25/166/169 175/171/174 416/164/167 210/163/166
f 26/172/175 211/173/176 415/174/177 174/175/178
f 26/172/175 174/175/178 410/176/179 204/177/180
f 26/172/175 204/177/180 385/74/181 137/82/182
f 26/172/175 137/82/182 390/81/183 211/173/176
f 27/178/184 207/179/185 408/180/186 182/181/187
f 27/178/184 182/181/187 412/182/188 209/183/189
f 27/178/184 209/183/189 387/58/190 143/57/191
f 27/178/184 143/57/191 383/56/192 207/179/185
f 28/184/193 202/185/194 389/186/195 138/187/196
f 28/184/193 138/187/196 382/67/197 206/188/198
f 28/184/193 206/188/198 407/189/199 178/190/200
f 28/184/193 178/190/200 414/191/201 202/185/194
f 29/192/202 205/193/203 413/194/204 177/195/205
f 29/192/202 177/195/205 408/180/186 207/179/185
f 29/192/202 207/179/185 383/56/192 139/86/206
f 29/192/202 139/86/206 388/76/207 205/193/203
f 30/196/208 186/197/209 415/174/177 211/173/176
f 30/196/208 211/173/176 390/81/183 147/198/210
f 30/196/208 147/198/210 381/14/211 201/199/212
f 30/196/208 201/199/212 406/200/213 186/197/209
f 31/201/214 206/188/198 382/67/197 142/202/215
f 31/201/214 142/202/215 386/203/126 208/204/125
f 31/201/214 208/204/125 411/205/132 183/206/216
f 31/201/214 183/206/216 407/189/199 206/188/198
f 32/207/217 203/169/172 384/168/171 144/208/218
f 32/207/217 144/208/218 389/186/195 202/185/194
f 32/207/217 202/185/194 414/191/201 185/209/219
f 32/207/217 185/209/219 409/170/173 203/169/172
f 33/210/220 209/211/189 412/212/188 180/213/221
f 33/210/220 180/213/221 406/200/213 201/199/212
f 33/210/220 201/199/212 381/14/211 141/13/222
f 33/210/220 141/13/222 387/12/190 209/211/189
f 34/214/223 204/177/180 410/176/179 184/215/224
f 34/214/223 184/215/224 413/194/204 205/193/203
f 34/214/223 205/193/203 388/76/207 145/75/225
f 34/214/223 145/75/225 385/74/181 204/177/180
f 35/216/226 214/217/227 417/218/228 290/219/229
f 35/216/226 290/219/229 420/220/230 215/221/231
f 35/216/226 215/221/231 371/106/232 130/105/233
f 35/216/226 130/105/233 376/98/234 214/217/227
f 36/222/235 217/48/49 421/47/48 293/223/236
f 36/222/235 293/223/236 417/218/228 214/217/227
f 36/222/235 214/217/227 376/98/234 126/97/237
f 36/222/235 126/97/237 373/49/50 217/48/49
f 37/224/238 128/225/239 375/226/240 223/227/241
f 37/224/238 223/227/241 422/228/242 291/229/243
f 37/224/238 291/229/243 419/230/244 221/231/245
f 37/224/238 221/231/245 369/155/246 128/225/239
f 38/232/247 132/142/248 371/106/232 215/221/231
f 38/232/247 215/221/231 420/220/230 292/233/249
f 38/232/247 292/233/249 422/234/242 223/235/241
f 38/232/247 223/235/241 375/143/240 132/142/248
f 39/236/250 124/156/251 369/155/246 221/231/245
f 39/236/250 221/231/245 419/230/244 294/237/252
f 39/236/250 294/237/252 418/45/46 218/44/45
f 39/236/250 218/44/45 378/51/52 124/156/251
f 40/238/253 213/239/254 460/41/41 303/240/255
f 40/238/253 303/240/255 464/241/256 300/242/257
f 40/238/253 300/242/257 422/243/258 292/244/259
f 40/238/253 292/244/259 420/245/260 213/239/254
f 41/246/261 153/247/262 402/112/263 158/138/264
f 41/246/261 158/138/264 397/137/265 159/248/266
f 41/246/261 159/248/266 398/102/267 160/101/268
f 41/246/261 160/101/268 401/100/269 153/247/262
f 42/249/270 162/250/271 399/149/272 166/148/273
f 42/249/270 166/148/273 395/114/274 154/251/275
f 42/249/270 154/251/275 396/108/276 167/146/277
f 42/249/270 167/146/277 400/145/278 162/250/271
f 43/252/279 152/6/6 393/5/5 161/91/280
f 43/252/279 161/91/280 399/90/272 162/253/271
f 43/252/279 162/253/271 400/254/278 163/255/281
f 43/252/279 163/255/281 394/7/7 152/6/6
f 44/256/282 154/251/275 395/114/274 164/113/283
f 44/256/282 164/113/283 402/112/263 153/247/262
f 44/256/282 153/247/262 401/100/269 165/109/284
f 44/256/282 165/109/284 396/108/276 154/251/275
f 45/257/285 159/248/266 397/137/265 168/158/286
f 45/257/285 168/158/286 404/3/3 155/2/2
f 45/257/285 155/2/2 403/9/9 169/121/287
f 45/257/285 169/121/287 398/102/267 159/248/266
f 46/258/288 173/259/289 410/176/290 174/175/291
f 46/258/288 174/175/291 415/174/292 170/260/293
f 46/258/288 170/260/293 416/164/294 175/171/295
f 46/258/288 175/171/295 409/170/296 173/259/289
f 47/261/297 171/262/298 412/182/299 182/181/300
f 47/261/297 182/181/300 408/180/301 176/263/302
f 47/261/297 176/263/302 407/189/303 183/206/304
f 47/261/297 183/206/304 411/205/305 171/262/298
f 48/264/306 176/263/302 408/180/301 177/195/307
f 48/264/306 177/195/307 413/194/308 172/265/309
f 48/264/306 172/265/309 414/191/310 178/190/311
f 48/264/306 178/190/311 407/189/303 176/263/302
f 49/266/312 179/267/313 406/200/314 180/213/315
f 49/266/312 180/213/315 412/212/299 171/268/298
f 49/266/312 171/268/298 411/130/305 181/129/316
f 49/266/312 181/129/316 405/128/317 179/267/313
f 50/269/318 172/265/309 413/194/308 184/215/319
f 50/269/318 184/215/319 410/176/290 173/259/289
f 50/269/318 173/259/289 409/170/296 185/209/320
f 50/269/318 185/209/320 414/191/310 172/265/309
f 51/270/321 170/260/293 415/174/292 186/197/322
f 51/270/321 186/197/322 406/200/314 179/267/313
f 51/270/321 179/267/313 405/128/317 187/165/323
f 51/270/321 187/165/323 416/164/294 170/260/293
f 52/271/324 128/225/325 369/155/156 188/154/155
f 52/271/324 188/154/155 394/7/159 163/255/326
f 52/271/324 163/255/326 400/254/149 196/272/148
f 52/271/324 196/272/148 375/226/147 128/225/325
f 53/273/327 300/242/328 464/241/329 302/274/330
f 53/273/327 302/274/330 462/30/30 298/29/29
f 53/273/327 298/29/29 419/36/36 291/275/331
f 53/273/327 291/275/331 422/243/332 300/242/328
f 54/276/333 147/198/334 390/81/79 242/80/78
f 54/276/333 242/80/78 434/84/82 240/277/335
f 54/276/333 240/277/335 423/16/16 243/15/15
f 54/276/333 243/15/15 381/14/14 147/198/334
f 55/278/336 224/279/337 426/18/338 225/17/339
f 55/278/336 225/17/339 423/16/340 226/280/341
f 55/278/336 226/280/341 424/281/342 227/282/343
f 55/278/336 227/282/343 425/283/344 224/279/337
f 56/284/345 228/285/346 428/54/347 229/53/348
f 56/284/345 229/53/348 426/60/338 224/286/337
f 56/284/345 224/286/337 425/287/344 230/288/349
f 56/284/345 230/288/349 427/289/350 228/285/346
f 57/290/351 231/291/352 430/78/353 232/87/354
f 57/290/351 232/87/354 428/54/347 228/285/346
f 57/290/351 228/285/346 427/289/350 233/292/355
f 57/290/351 233/292/355 429/293/356 231/291/352
f 58/294/357 234/295/358 432/72/359 235/71/360
f 58/294/357 235/71/360 430/78/353 231/291/352
f 58/294/357 231/291/352 429/293/356 236/296/361
f 58/294/357 236/296/361 431/297/362 234/295/358
f 59/298/363 237/299/364 434/84/365 238/83/366
f 59/298/363 238/83/366 432/72/359 234/295/358
f 59/298/363 234/295/358 431/297/362 239/300/367
f 59/298/363 239/300/367 433/301/368 237/299/364
f 60/302/369 226/280/341 423/16/340 240/277/370
f 60/302/369 240/277/370 434/84/365 237/299/364
f 60/302/369 237/299/364 433/301/368 241/303/371
f 60/302/369 241/303/371 424/281/342 226/280/341
f 61/304/372 356/305/373 483/306/374 284/307/375
f 61/304/372 284/307/375 443/308/376 259/309/377
f 61/304/372 259/309/377 451/310/378 325/311/379
f 61/304/372 325/311/379 471/312/380 356/305/373
f 62/313/381 255/314/382 449/315/383 310/316/384
f 62/313/381 310/316/384 466/317/385 149/318/386
f 62/313/381 149/318/386 389/186/387 282/319/388
f 62/313/381 282/319/388 441/320/389 255/314/382
f 63/321/390 269/322/391 458/323/392 319/324/393
f 63/321/390 319/324/393 470/325/394 151/326/395
f 63/321/390 151/326/395 379/133/396 287/327/397
f 63/321/390 287/327/397 436/328/398 269/322/391
f 64/329/399 359/330/400 485/331/401 351/332/402
f 64/329/399 351/332/402 454/333/403 265/334/404
f 64/329/399 265/334/404 440/335/405 317/336/406
f 64/329/399 317/336/406 469/337/407 359/330/400
f 65/338/408 148/339/409 468/340/410 320/341/411
f 65/338/408 320/341/411 457/342/412 266/343/413
f 65/338/408 266/343/413 435/344/414 308/345/415
f 65/338/408 308/345/415 368/93/416 148/339/409
f 66/346/417 314/347/418 469/337/407 317/336/406
f 66/346/417 317/336/406 440/335/405 281/348/419
f 66/346/417 281/348/419 446/349/420 272/350/421
f 66/346/417 272/350/421 391/162/422 314/347/418
f 67/351/423 138/187/424 389/186/387 149/318/386
f 67/351/423 149/318/386 466/317/385 311/352/425
f 67/351/423 311/352/425 465/69/67 288/68/66
f 67/351/423 288/68/66 382/67/65 138/187/424
f 68/353/426 314/347/418 391/162/422 146/161/427
f 68/353/426 146/161/427 380/126/428 312/354/429
f 68/353/426 312/354/429 467/355/430 318/356/431
f 68/353/426 318/356/431 469/337/407 314/347/418
f 69/357/432 268/358/433 458/359/434 278/360/435
f 69/357/432 278/360/435 457/361/436 267/362/437
f 69/357/432 267/362/437 455/363/438 279/364/439
f 69/357/432 279/364/439 456/365/440 268/358/433
f 70/366/441 255/367/442 441/368/443 333/369/444
f 70/366/441 333/369/444 442/370/445 249/371/446
f 70/366/441 249/371/446 450/372/447 276/373/448
f 70/366/441 276/373/448 449/374/449 255/367/442
f 71/375/450 276/373/448 450/372/447 254/376/451
f 71/375/450 254/376/451 448/377/452 277/378/453
f 71/375/450 277/378/453 447/379/454 258/380/455
f 71/375/450 258/380/455 449/374/449 276/373/448
f 72/381/456 362/382/457 485/331/401 349/383/458
f 72/381/456 349/383/458 456/384/459 250/385/460
f 72/381/456 250/385/460 477/386/461 344/387/462
f 72/381/456 344/387/462 481/388/463 362/382/457
f 73/389/464 280/390/465 453/391/466 264/392/464
f 73/389/464 264/392/464 439/393/467 270/394/468
f 73/389/464 270/394/468 440/395/469 265/396/470
f 73/389/464 265/396/470 454/397/471 280/390/465
f 74/398/472 261/399/473 479/400/474 347/401/475
f 74/398/472 347/401/475 480/402/476 343/403/477
f 74/398/472 343/403/477 447/379/454 277/378/453
f 74/398/472 277/378/453 448/377/452 261/399/473
f 75/404/478 348/405/479 372/140/480 127/139/481
f 75/404/478 127/139/481 377/118/482 283/406/483
f 75/404/478 283/406/483 437/407/484 248/408/485
f 75/404/478 248/408/485 473/409/486 348/405/479
f 76/410/487 335/411/488 435/412/489 266/413/490
f 76/410/487 266/413/490 457/361/436 278/360/435
f 76/410/487 278/360/435 458/359/434 269/414/491
f 76/410/487 269/414/491 436/415/492 335/411/488
f 77/416/493 273/417/494 386/203/495 142/202/496
f 77/416/493 142/202/496 382/67/65 286/66/64
f 77/416/493 286/66/64 442/65/63 253/418/497
f 77/416/493 253/418/497 475/419/498 273/417/494
f 78/420/499 140/125/500 386/124/495 273/421/494
f 78/420/499 273/421/494 475/422/498 332/423/501
f 78/420/499 332/423/501 445/424/502 329/425/503
f 78/420/499 329/425/503 380/126/428 140/125/500
f 79/426/504 251/427/505 478/428/506 346/429/507
f 79/426/504 346/429/507 477/430/508 250/431/509
f 79/426/504 250/431/509 456/365/440 279/364/439
f 79/426/504 279/364/439 455/363/438 251/427/505
f 80/432/510 281/433/511 440/395/469 270/394/468
f 80/432/510 270/394/468 439/393/467 328/434/512
f 80/432/510 328/434/512 445/435/513 336/436/514
f 80/432/510 336/436/514 446/437/515 281/433/511
f 81/438/516 353/439/517 484/440/518 323/441/519
f 81/438/516 323/441/519 472/442/520 326/443/521
f 81/438/516 326/443/521 452/444/522 260/445/523
f 81/438/516 260/445/523 444/446/524 353/439/517
f 82/447/525 256/448/526 451/449/527 274/450/528
f 82/447/525 274/450/528 452/451/529 257/452/530
f 82/447/525 257/452/530 438/453/531 334/454/532
f 82/447/525 334/454/532 437/455/533 256/448/526
f 83/456/534 259/457/535 443/458/536 271/459/537
f 83/456/534 271/459/537 444/460/538 260/461/539
f 83/456/534 260/461/539 452/451/529 274/450/528
f 83/456/534 274/450/528 451/449/527 259/457/535
f 84/462/540 220/33/541 463/32/542 301/463/543
f 84/462/540 301/463/543 461/21/21 297/20/20
f 84/462/540 297/20/20 421/27/27 289/464/544
f 84/462/540 289/464/544 418/34/545 220/33/541
f 85/465/546 216/466/547 461/21/21 301/463/543
f 85/465/546 301/463/543 463/32/542 299/467/548
f 85/465/546 299/467/548 392/39/549 216/466/547
f 86/468/550 219/469/551 462/30/30 302/274/330
f 86/468/550 302/274/330 464/241/329 222/470/552
f 86/468/550 222/470/552 392/39/553 219/469/551
f 87/471/554 222/470/555 464/241/256 303/240/255
f 87/471/554 303/240/255 460/41/41 296/40/40
f 87/471/554 296/40/40 392/39/39 222/470/555
f 88/472/556 295/24/557 459/23/43 304/42/42
f 88/472/556 304/42/42 460/41/41 213/239/254
f 88/472/556 213/239/254 420/245/260 290/473/558
f 88/472/556 290/473/558 417/25/559 295/24/557
f 89/474/560 299/467/561 463/32/32 305/31/31
f 89/474/560 305/31/31 462/30/30 219/469/551
f 89/474/560 219/469/551 392/39/553 299/467/561
f 90/475/562 212/38/563 459/23/23 306/22/22
f 90/475/562 306/22/22 461/21/21 216/466/547
f 90/475/562 216/466/547 392/39/549 212/38/563
f 91/476/564 363/477/565 481/388/463 344/387/462
f 91/476/564 344/387/462 477/386/461 262/478/566
f 91/476/564 262/478/566 443/308/376 284/307/375
f 91/476/564 284/307/375 483/306/374 363/477/565
f 92/479/567 283/406/483 377/118/482 322/480/568
f 92/479/567 322/480/568 471/312/380 325/311/379
f 92/479/567 325/311/379 451/310/378 256/481/569
f 92/479/567 256/481/569 437/407/484 283/406/483
f 93/482/570 323/441/519 484/440/518 358/483/571
f 93/482/570 358/483/571 483/306/374 356/305/373
f 93/482/570 356/305/373 471/312/380 324/484/572
f 93/482/570 324/484/572 472/442/520 323/441/519
f 94/485/573 328/486/574 439/487/575 315/488/576
f 94/485/573 315/488/576 467/355/430 312/354/429
f 94/485/573 312/354/429 380/126/428 329/425/503
f 94/485/573 329/425/503 445/424/502 328/486/574
f 95/489/577 313/490/578 485/331/401 361/491/579
f 95/489/577 361/491/579 486/492/580 316/493/581
f 95/489/577 316/493/581 468/340/410 321/494/582
f 95/489/577 321/494/582 470/325/394 313/490/578
f 96/495/583 343/496/584 480/497/585 350/498/586
f 96/495/583 350/498/586 481/388/463 363/477/565
f 96/495/583 363/477/565 483/306/374 352/499/587
f 96/495/583 352/499/587 447/500/588 343/496/584
f 97/501/589 151/326/395 470/325/394 321/494/582
f 97/501/589 321/494/582 468/340/410 148/339/409
f 97/501/589 148/339/409 368/93/416 125/134/590
f 97/501/589 125/134/590 379/133/396 151/326/395
f 98/502/591 150/503/592 472/442/520 324/484/572
f 98/502/591 324/484/572 471/312/380 322/480/568
f 98/502/591 322/480/568 377/118/482 131/117/593
f 98/502/591 131/117/593 370/116/594 150/503/592
f 99/504/595 263/505/596 454/333/403 351/332/402
f 99/504/595 351/332/402 485/331/401 362/382/457
f 99/504/595 362/382/457 481/388/463 350/498/586
f 99/504/595 350/498/586 480/497/585 263/505/596
f 100/506/597 275/507/598 476/508/599 327/509/600
f 100/506/597 327/509/600 438/510/601 285/511/602
f 100/506/597 285/511/602 370/116/594 133/152/603
f 100/506/597 133/152/603 374/151/604 275/507/598
f 101/512/605 257/513/606 452/444/522 326/443/521
f 101/512/605 326/443/521 472/442/520 150/503/592
f 101/512/605 150/503/592 370/116/594 285/511/602
f 101/512/605 285/511/602 438/510/601 257/513/606
f 102/514/607 334/454/532 438/453/531 327/515/608
f 102/514/607 327/515/608 476/516/609 338/517/610
f 102/514/607 338/517/610 473/518/611 248/519/612
f 102/514/607 248/519/612 437/455/533 334/454/532
f 103/520/613 331/521/614 474/522/615 340/523/616
f 103/520/613 340/523/616 475/524/617 253/525/618
f 103/520/613 253/525/618 442/370/445 333/369/444
f 103/520/613 333/369/444 441/368/443 331/521/614
f 104/526/619 252/527/620 446/437/515 336/436/514
f 104/526/619 336/436/514 445/435/513 332/528/621
f 104/526/619 332/528/621 475/524/617 340/523/616
f 104/526/619 340/523/616 474/522/615 252/527/620
f 105/529/622 282/319/388 389/186/387 144/208/623
f 105/529/622 144/208/623 384/168/624 339/530/625
f 105/529/622 339/530/625 474/531/626 331/532/627
f 105/529/622 331/532/627 441/320/389 282/319/388
f 106/533/628 339/530/625 384/168/624 136/167/629
f 106/533/628 136/167/629 391/162/422 272/350/421
f 106/533/628 272/350/421 446/349/420 252/534/630
f 106/533/628 252/534/630 474/531/626 339/530/625
f 107/535/631 330/536/632 473/537/611 338/538/610
f 107/535/631 338/538/610 476/539/609 337/540/633
f 107/535/631 337/540/633 435/412/489 335/411/488
f 107/535/631 335/411/488 436/415/492 330/536/632
f 108/541/634 308/345/415 435/344/414 337/542/635
f 108/541/634 337/542/635 476/543/599 275/544/598
f 108/541/634 275/544/598 374/95/604 129/94/636
f 108/541/634 129/94/636 368/93/416 308/345/415
f 109/545/637 341/546/638 444/460/538 271/459/537
f 109/545/637 271/459/537 443/458/536 262/547/639
f 109/545/637 262/547/639 477/430/508 346/429/507
f 109/545/637 346/429/507 478/428/506 341/546/638
f 110/548/640 342/549/641 453/391/466 280/390/465
f 110/548/640 280/390/465 454/397/471 263/550/642
f 110/548/640 263/550/642 480/551/476 347/552/475
f 110/548/640 347/552/475 479/553/474 342/549/641
f 111/554/643 287/327/397 379/133/396 135/159/644
f 111/554/643 135/159/644 372/140/480 348/405/479
f 111/554/643 348/405/479 473/409/486 330/555/645
f 111/554/643 330/555/645 436/328/398 287/327/397
f 112/556/646 261/557/647 448/558/648 355/559/649
f 112/556/646 355/559/649 484/440/518 364/560/650
f 112/556/646 364/560/650 482/561/651 354/562/652
f 112/556/646 354/562/652 479/563/653 261/557/647
f 113/564/654 364/560/650 484/440/518 353/439/517
f 113/564/654 353/439/517 444/446/524 341/565/655
f 113/564/654 341/565/655 478/566/656 345/567/657
f 113/564/654 345/567/657 482/561/651 364/560/650
f 114/568/658 309/62/60 465/69/67 357/569/659
f 114/568/658 357/569/659 484/440/518 355/559/649
f 114/568/658 355/559/649 448/558/648 254/570/660
f 114/568/658 254/570/660 450/63/61 309/62/60
f 115/571/661 357/569/659 465/69/67 311/352/425
f 115/571/661 311/352/425 466/317/385 307/572/662
f 115/571/661 307/572/662 483/306/374 358/483/571
f 115/571/661 358/483/571 484/440/518 357/569/659
f 116/573/663 359/330/400 469/337/407 318/356/431
f 116/573/663 318/356/431 467/355/430 360/574/664
f 116/573/663 360/574/664 486/492/580 361/491/579
f 116/573/663 361/491/579 485/331/401 359/330/400
f 117/575/665 349/383/458 485/331/401 313/490/578
f 117/575/665 313/490/578 470/325/394 319/324/393
f 117/575/665 319/324/393 458/323/392 268/576/666
f 117/575/665 268/576/666 456/384/459 349/383/458
f 118/577/667 258/578/668 447/500/588 352/499/587
f 118/577/667 352/499/587 483/306/374 307/572/662
f 118/577/667 307/572/662 466/317/385 310/316/384
f 118/577/667 310/316/384 449/315/383 258/578/668
f 119/579/669 251/580/670 455/581/671 366/582/672
f 119/579/669 366/582/672 486/492/580 365/583/673
f 119/579/669 365/583/673 482/584/651 345/585/657
f 119/579/669 345/585/657 478/586/656 251/580/670
f 120/587/674 320/341/411 468/340/410 316/493/581
f 120/587/674 316/493/581 486/492/580 366/582/672
f 120/587/674 366/582/672 455/581/671 267/588/675
f 120/587/674 267/588/675 457/342/412 320/341/411
f 121/589/676 315/488/576 439/487/575 264/590/677
f 121/589/676 264/590/677 453/591/678 367/592/679
f 121/589/676 367/592/679 486/492/580 360/574/664
f 121/589/676 360/574/664 467/355/430 315/488/576
f 122/593/680 365/583/673 486/492/580 367/592/679
f 122/593/680 367/592/679 453/591/678 342/594/681
f 122/593/680 342/594/681 479/595/653 354/596/652
f 122/593/680 354/596/652 482/584/651 365/583/673
f 123/597/682 227/598/683 424/599/684 241/600/685
f 123/597/682 241/600/685 433/601/686 239/602/687
f 123/597/682 239/602/687 431/603/688 236/604/689
f 123/597/682 236/604/689 429/605/690 233/606/691
f 123/597/682 233/606/691 427/607/692 230/608/693
f 123/597/682 230/608/693 425/609/694 227/598/683
